<ttFont>
    <TTGlyph name=".notdef" xMin="256" yMin="0" xMax="1280" yMax="1280">
      <contour>
        <pt x="256" y="0" on="1"/>
        <pt x="256" y="1280" on="1"/>
        <pt x="1280" y="1280" on="1"/>
        <pt x="1280" y="0" on="1"/>
      </contour>
      <contour>
        <pt x="288" y="32" on="1"/>
        <pt x="1248" y="32" on="1"/>
        <pt x="1248" y="1248" on="1"/>
        <pt x="288" y="1248" on="1"/>
      </contour>
    </TTGlyph>
    <TTGlyph name="ampersand" xMin="106" yMin="-47" xMax="1304" yMax="1452">
      <contour>
        <pt x="1009" y="684" on="1"/>
        <pt x="1173" y="684" on="1"/>
        <pt x="1173" y="492" on="0"/>
        <pt x="1054" y="309" on="1"/>
        <pt x="1304" y="0" on="1"/>
        <pt x="1081" y="0" on="1"/>
        <pt x="954" y="160" on="1"/>
        <pt x="854" y="61" on="0"/>
        <pt x="796" y="27" on="1"/>
        <pt x="681" y="-47" on="0"/>
        <pt x="526" y="-47" on="1"/>
        <pt x="288" y="-47" on="0"/>
        <pt x="174" y="121" on="1"/>
        <pt x="106" y="221" on="0"/>
        <pt x="106" y="360" on="1"/>
        <pt x="106" y="526" on="0"/>
        <pt x="212" y="635" on="1"/>
        <pt x="286" y="709" on="0"/>
        <pt x="438" y="797" on="1"/>
        <pt x="294" y="977" on="0"/>
        <pt x="276" y="1075" on="1"/>
        <pt x="272" y="1102" on="0"/>
        <pt x="272" y="1130" on="1"/>
        <pt x="272" y="1288" on="0"/>
        <pt x="405" y="1384" on="1"/>
        <pt x="499" y="1452" on="0"/>
        <pt x="622" y="1452" on="1"/>
        <pt x="806" y="1452" on="0"/>
        <pt x="901" y="1317" on="1"/>
        <pt x="931" y="1260" on="1"/>
        <pt x="950" y="1217" on="0"/>
        <pt x="954" y="1167" on="1"/>
        <pt x="956" y="1149" on="0"/>
        <pt x="956" y="1130" on="1"/>
        <pt x="956" y="989" on="0"/>
        <pt x="843" y="889" on="1"/>
        <pt x="784" y="836" on="0"/>
        <pt x="673" y="774" on="1"/>
        <pt x="946" y="440" on="1"/>
        <pt x="1009" y="552" on="0"/>
        <pt x="1009" y="676" on="1"/>
      </contour>
      <contour>
        <pt x="583" y="883" on="1"/>
        <pt x="749" y="987" on="0"/>
        <pt x="780" y="1063" on="1"/>
        <pt x="794" y="1094" on="0"/>
        <pt x="794" y="1135" on="1"/>
        <pt x="794" y="1241" on="0"/>
        <pt x="702" y="1288" on="1"/>
        <pt x="663" y="1309" on="0"/>
        <pt x="616" y="1309" on="1"/>
        <pt x="493" y="1309" on="0"/>
        <pt x="452" y="1206" on="1"/>
        <pt x="440" y="1174" on="0"/>
        <pt x="440" y="1133" on="1"/>
        <pt x="440" y="1065" on="0"/>
        <pt x="491" y="993" on="1"/>
      </contour>
      <contour>
        <pt x="856" y="281" on="1"/>
        <pt x="528" y="690" on="1"/>
        <pt x="335" y="567" on="0"/>
        <pt x="294" y="465" on="1"/>
        <pt x="278" y="424" on="0"/>
        <pt x="278" y="375" on="1"/>
        <pt x="278" y="242" on="0"/>
        <pt x="389" y="164" on="1"/>
        <pt x="460" y="113" on="0"/>
        <pt x="546" y="113" on="1"/>
        <pt x="684" y="113" on="0"/>
        <pt x="823" y="246" on="1"/>
        <pt x="839" y="262" on="0"/>
      </contour>
    </TTGlyph>
    <TTGlyph name="asterisk" xMin="450" yMin="903" xMax="1071" yMax="1493">
      <contour>
        <pt x="696" y="1493" on="1"/>
        <pt x="825" y="1493" on="1"/>
        <pt x="815" y="1264" on="1"/>
        <pt x="1032" y="1341" on="1"/>
        <pt x="1071" y="1221" on="1"/>
        <pt x="849" y="1159" on="1"/>
        <pt x="993" y="977" on="1"/>
        <pt x="888" y="903" on="1"/>
        <pt x="761" y="1094" on="1"/>
        <pt x="632" y="903" on="1"/>
        <pt x="530" y="977" on="1"/>
        <pt x="671" y="1159" on="1"/>
        <pt x="450" y="1221" on="1"/>
        <pt x="489" y="1341" on="1"/>
        <pt x="706" y="1264" on="1"/>
      </contour>
    </TTGlyph>
    <TTGlyph name="at" xMin="69" yMin="-290" xMax="1947" yMax="1518">
      <contour>
        <pt x="1361" y="1026" on="1"/>
        <pt x="1531" y="1026" on="1"/>
        <pt x="1347" y="453" on="1"/>
        <pt x="1322" y="381" on="0"/>
        <pt x="1322" y="350" on="1"/>
        <pt x="1322" y="295" on="0"/>
        <pt x="1382" y="268" on="1"/>
        <pt x="1402" y="260" on="0"/>
        <pt x="1425" y="260" on="1"/>
        <pt x="1556" y="260" on="0"/>
        <pt x="1664" y="408" on="1"/>
        <pt x="1769" y="553" on="0"/>
        <pt x="1769" y="731" on="1"/>
        <pt x="1769" y="977" on="0"/>
        <pt x="1570" y="1159" on="1"/>
        <pt x="1367" y="1348" on="0"/>
        <pt x="1079" y="1360" on="1"/>
        <pt x="1048" y="1360" on="1"/>
        <pt x="747" y="1360" on="0"/>
        <pt x="515" y="1151" on="1"/>
        <pt x="446" y="1081" on="1"/>
        <pt x="243" y="850" on="0"/>
        <pt x="243" y="559" on="1"/>
        <pt x="243" y="270" on="0"/>
        <pt x="458" y="72" on="1"/>
        <pt x="679" y="-133" on="0"/>
        <pt x="1011" y="-133" on="1"/>
        <pt x="1173" y="-133" on="0"/>
        <pt x="1406" y="-67" on="1"/>
        <pt x="1464" y="-204" on="1"/>
        <pt x="1234" y="-290" on="0"/>
        <pt x="1001" y="-290" on="1"/>
        <pt x="632" y="-290" on="0"/>
        <pt x="364" y="-71" on="1"/>
        <pt x="114" y="133" on="0"/>
        <pt x="75" y="434" on="1"/>
        <pt x="69" y="481" on="0"/>
        <pt x="69" y="528" on="1"/>
        <pt x="69" y="844" on="0"/>
        <pt x="264" y="1110" on="1"/>
        <pt x="321" y="1190" on="0"/>
        <pt x="393" y="1253" on="1"/>
        <pt x="614" y="1454" on="0"/>
        <pt x="923" y="1505" on="1"/>
        <pt x="999" y="1518" on="0"/>
        <pt x="1075" y="1518" on="1"/>
        <pt x="1415" y="1518" on="0"/>
        <pt x="1666" y="1311" on="1"/>
        <pt x="1904" y="1118" on="0"/>
        <pt x="1941" y="842" on="1"/>
        <pt x="1947" y="799" on="0"/>
        <pt x="1947" y="756" on="1"/>
        <pt x="1947" y="508" on="0"/>
        <pt x="1771" y="299" on="1"/>
        <pt x="1615" y="117" on="0"/>
        <pt x="1390" y="117" on="1"/>
        <pt x="1193" y="117" on="0"/>
        <pt x="1165" y="274" on="1"/>
        <pt x="1030" y="127" on="0"/>
        <pt x="874" y="127" on="1"/>
        <pt x="706" y="127" on="0"/>
        <pt x="610" y="268" on="1"/>
        <pt x="540" y="369" on="0"/>
        <pt x="540" y="502" on="1"/>
        <pt x="540" y="725" on="0"/>
        <pt x="702" y="897" on="1"/>
        <pt x="860" y="1067" on="0"/>
        <pt x="1066" y="1069" on="1"/>
        <pt x="1238" y="1069" on="0"/>
        <pt x="1316" y="891" on="1"/>
      </contour>
      <contour>
        <pt x="1054" y="938" on="1"/>
        <pt x="919" y="938" on="0"/>
        <pt x="817" y="793" on="1"/>
        <pt x="724" y="664" on="0"/>
        <pt x="724" y="500" on="1"/>
        <pt x="724" y="362" on="0"/>
        <pt x="821" y="293" on="1"/>
        <pt x="870" y="258" on="0"/>
        <pt x="927" y="258" on="1"/>
        <pt x="1046" y="258" on="0"/>
        <pt x="1136" y="391" on="1"/>
        <pt x="1204" y="489" on="0"/>
        <pt x="1236" y="662" on="1"/>
        <pt x="1245" y="707" on="0"/>
        <pt x="1247" y="741" on="1"/>
        <pt x="1247" y="755" on="1"/>
        <pt x="1247" y="856" on="0"/>
        <pt x="1163" y="909" on="1"/>
        <pt x="1113" y="938" on="0"/>
      </contour>
    </TTGlyph>
    <TTGlyph name="colon" xMin="225" yMin="0" xMax="438" yMax="1073">
      <contour>
        <pt x="438" y="213" on="1"/>
        <pt x="438" y="0" on="1"/>
        <pt x="225" y="0" on="1"/>
        <pt x="225" y="213" on="1"/>
      </contour>
      <contour>
        <pt x="438" y="1073" on="1"/>
        <pt x="438" y="860" on="1"/>
        <pt x="225" y="860" on="1"/>
        <pt x="225" y="1073" on="1"/>
      </contour>
    </TTGlyph>
    <TTGlyph name="comma" xMin="178" yMin="-301" xMax="393" yMax="213">
      <contour>
        <pt x="178" y="213" on="1"/>
        <pt x="393" y="213" on="1"/>
        <pt x="393" y="-32" on="1"/>
        <pt x="393" y="-301" on="0"/>
        <pt x="178" y="-301" on="1"/>
        <pt x="178" y="-223" on="1"/>
        <pt x="266" y="-219" on="0"/>
        <pt x="287" y="-155" on="1"/>
        <pt x="301" y="-116" on="0"/>
        <pt x="301" y="-36" on="1"/>
        <pt x="301" y="0" on="1"/>
        <pt x="178" y="0" on="1"/>
      </contour>
    </TTGlyph>
    <TTGlyph name="dollar" xMin="70" yMin="-258" xMax="1064" yMax="1577">
      <contour>
        <pt x="501" y="1577" on="1"/>
        <pt x="622" y="1577" on="1"/>
        <pt x="622" y="1466" on="1"/>
        <pt x="880" y="1448" on="0"/>
        <pt x="976" y="1257" on="1"/>
        <pt x="1015" y="1180" on="0"/>
        <pt x="1019" y="1083" on="1"/>
        <pt x="1019" y="1063" on="1"/>
        <pt x="858" y="1063" on="1"/>
        <pt x="856" y="1221" on="0"/>
        <pt x="739" y="1290" on="1"/>
        <pt x="698" y="1313" on="0"/>
        <pt x="649" y="1321" on="1"/>
        <pt x="636" y="1323" on="0"/>
        <pt x="622" y="1323" on="1"/>
        <pt x="622" y="813" on="1"/>
        <pt x="827" y="750" on="0"/>
        <pt x="890" y="715" on="1"/>
        <pt x="1064" y="616" on="0"/>
        <pt x="1064" y="399" on="1"/>
        <pt x="1064" y="186" on="0"/>
        <pt x="925" y="61" on="1"/>
        <pt x="903" y="41" on="0"/>
        <pt x="876" y="25" on="1"/>
        <pt x="776" y="-34" on="0"/>
        <pt x="622" y="-47" on="1"/>
        <pt x="622" y="-258" on="1"/>
        <pt x="501" y="-258" on="1"/>
        <pt x="501" y="-47" on="1"/>
        <pt x="186" y="-26" on="0"/>
        <pt x="98" y="213" on="1"/>
        <pt x="70" y="293" on="0"/>
        <pt x="70" y="390" on="1"/>
        <pt x="70" y="408" on="0"/>
        <pt x="71" y="426" on="1"/>
        <pt x="233" y="426" on="1"/>
        <pt x="247" y="274" on="0"/>
        <pt x="276" y="225" on="1"/>
        <pt x="280" y="219" on="0"/>
        <pt x="284" y="211" on="1"/>
        <pt x="356" y="113" on="0"/>
        <pt x="501" y="94" on="1"/>
        <pt x="501" y="651" on="1"/>
        <pt x="311" y="709" on="0"/>
        <pt x="243" y="758" on="1"/>
        <pt x="98" y="862" on="0"/>
        <pt x="98" y="1057" on="1"/>
        <pt x="98" y="1356" on="0"/>
        <pt x="384" y="1442" on="1"/>
        <pt x="438" y="1458" on="0"/>
        <pt x="501" y="1466" on="1"/>
      </contour>
      <contour>
        <pt x="501" y="829" on="1"/>
        <pt x="501" y="1321" on="1"/>
        <pt x="305" y="1294" on="0"/>
        <pt x="270" y="1139" on="1"/>
        <pt x="264" y="1110" on="0"/>
        <pt x="264" y="1077" on="1"/>
        <pt x="264" y="893" on="0"/>
      </contour>
      <contour>
        <pt x="622" y="633" on="1"/>
        <pt x="622" y="94" on="1"/>
        <pt x="747" y="109" on="0"/>
        <pt x="810" y="170" on="1"/>
        <pt x="896" y="252" on="0"/>
        <pt x="896" y="375" on="1"/>
        <pt x="896" y="500" on="0"/>
        <pt x="800" y="561" on="1"/>
        <pt x="741" y="598" on="0"/>
      </contour>
    </TTGlyph>
    <TTGlyph name="eight" xMin="74" yMin="0" xMax="1004" yMax="1500">
      <contour>
        <pt x="539" y="1350" on="1"/>
        <pt x="254" y="1350" on="0"/>
        <pt x="254" y="1100" on="1"/>
        <pt x="254" y="850" on="0"/>
        <pt x="539" y="850" on="1"/>
        <pt x="824" y="850" on="0"/>
        <pt x="824" y="1100" on="1"/>
        <pt x="824" y="1350" on="0"/>
      </contour>
      <contour>
        <pt x="539" y="700" on="1"/>
        <pt x="224" y="700" on="0"/>
        <pt x="224" y="425" on="1"/>
        <pt x="224" y="150" on="0"/>
        <pt x="539" y="150" on="1"/>
        <pt x="854" y="150" on="0"/>
        <pt x="854" y="425" on="1"/>
        <pt x="854" y="700" on="0"/>
      </contour>
      <contour>
        <pt x="237" y="780" on="1"/>
        <pt x="104" y="878" on="0"/>
        <pt x="104" y="1100" on="1"/>
        <pt x="104" y="1500" on="0"/>
        <pt x="539" y="1500" on="1"/>
        <pt x="974" y="1500" on="0"/>
        <pt x="974" y="1100" on="1"/>
        <pt x="974" y="878" on="0"/>
        <pt x="841" y="780" on="1"/>
        <pt x="1004" y="677" on="0"/>
        <pt x="1004" y="425" on="1"/>
        <pt x="1004" y="0" on="0"/>
        <pt x="539" y="0" on="1"/>
        <pt x="74" y="0" on="0"/>
        <pt x="74" y="425" on="1"/>
        <pt x="74" y="677" on="0"/>
      </contour>
    </TTGlyph>
    <TTGlyph name="equal" xMin="102" yMin="227" xMax="1093" yMax="723">
      <contour>
        <pt x="1093" y="723" on="1"/>
        <pt x="1093" y="580" on="1"/>
        <pt x="102" y="580" on="1"/>
        <pt x="102" y="723" on="1"/>
      </contour>
      <contour>
        <pt x="1093" y="371" on="1"/>
        <pt x="1093" y="227" on="1"/>
        <pt x="102" y="227" on="1"/>
        <pt x="102" y="371" on="1"/>
      </contour>
    </TTGlyph>
    <TTGlyph name="exclam" xMin="450" yMin="0" xMax="622" yMax="1493">
      <contour>
        <pt x="612" y="1493" on="1"/>
        <pt x="612" y="801" on="1"/>
        <pt x="572" y="344" on="1"/>
        <pt x="502" y="344" on="1"/>
        <pt x="462" y="801" on="1"/>
        <pt x="462" y="1493" on="1"/>
      </contour>
      <contour>
        <pt x="622" y="213" on="1"/>
        <pt x="622" y="0" on="1"/>
        <pt x="450" y="0" on="1"/>
        <pt x="450" y="213" on="1"/>
      </contour>
    </TTGlyph>
    <TTGlyph name="five" xMin="124" yMin="0" xMax="1039" yMax="1500">
      <contour>
        <pt x="1039" y="500" on="1"/>
        <pt x="1039" y="0" on="0"/>
        <pt x="602" y="0" on="1"/>
        <pt x="174" y="0" on="0"/>
        <pt x="124" y="397" on="1"/>
        <pt x="274" y="397" on="1"/>
        <pt x="324" y="150" on="0"/>
        <pt x="602" y="150" on="1"/>
        <pt x="889" y="150" on="0"/>
        <pt x="889" y="500" on="1"/>
        <pt x="889" y="850" on="0"/>
        <pt x="612" y="850" on="1"/>
        <pt x="410" y="850" on="0"/>
        <pt x="324" y="722" on="1"/>
        <pt x="179" y="722" on="1"/>
        <pt x="249" y="1500" on="1"/>
        <pt x="969" y="1500" on="1"/>
        <pt x="969" y="1350" on="1"/>
        <pt x="384" y="1350" on="1"/>
        <pt x="347" y="949" on="1"/>
        <pt x="454" y="1000" on="0"/>
        <pt x="612" y="1000" on="1"/>
        <pt x="1039" y="1000" on="0"/>
      </contour>
    </TTGlyph>
    <TTGlyph name="four" xMin="40" yMin="0" xMax="1040" yMax="1500">
      <contour>
        <pt x="698" y="1231" on="1"/>
        <pt x="221" y="519" on="1"/>
        <pt x="698" y="519" on="1"/>
      </contour>
      <contour>
        <pt x="698" y="1500" on="1"/>
        <pt x="848" y="1500" on="1"/>
        <pt x="848" y="519" on="1"/>
        <pt x="1040" y="519" on="1"/>
        <pt x="1040" y="369" on="1"/>
        <pt x="848" y="369" on="1"/>
        <pt x="848" y="0" on="1"/>
        <pt x="698" y="0" on="1"/>
        <pt x="698" y="369" on="1"/>
        <pt x="40" y="369" on="1"/>
        <pt x="40" y="519" on="1"/>
      </contour>
    </TTGlyph>
    <TTGlyph name="glyph139" xMin="-800" yMin="-650" xMax="530" yMax="1500">
      <contour>
        <pt x="380" y="-410" on="1"/>
        <pt x="380" y="-550" on="0"/>
        <pt x="237" y="-650" on="0"/>
        <pt x="121" y="-650" on="1"/>
        <pt x="5" y="-650" on="0"/>
        <pt x="-65" y="-636" on="1"/>
        <pt x="-134" y="-622" on="0"/>
        <pt x="-152" y="-595" on="1"/>
        <pt x="-169" y="-622" on="0"/>
        <pt x="-223" y="-636" on="1"/>
        <pt x="-277" y="-650" on="0"/>
        <pt x="-375" y="-650" on="1"/>
        <pt x="-525" y="-650" on="0"/>
        <pt x="-600" y="-600" on="1"/>
        <pt x="-675" y="-550" on="0"/>
        <pt x="-675" y="-450" on="1"/>
        <pt x="-675" y="-350" on="1"/>
        <pt x="-753" y="-350" on="0"/>
        <pt x="-800" y="-300" on="0"/>
        <pt x="-800" y="-245" on="1"/>
        <pt x="-800" y="-200" on="0"/>
        <pt x="-675" y="-100" on="1"/>
        <pt x="-507" y="-100" on="1"/>
        <pt x="-507" y="-411" on="1"/>
        <pt x="-507" y="-550" on="0"/>
        <pt x="-375" y="-550" on="1"/>
        <pt x="-234" y="-550" on="0"/>
        <pt x="-234" y="-410" on="1"/>
        <pt x="-234" y="-100" on="1"/>
        <pt x="-66" y="-100" on="1"/>
        <pt x="-66" y="-410" on="1"/>
        <pt x="-66" y="-550" on="0"/>
        <pt x="67" y="-550" on="1"/>
        <pt x="200" y="-550" on="0"/>
        <pt x="200" y="-410" on="1"/>
        <pt x="200" y="963" on="1"/>
        <pt x="200" y="1069" on="0"/>
        <pt x="0" y="1131" on="1"/>
        <pt x="20" y="1232" on="0"/>
        <pt x="171" y="1500" on="0"/>
        <pt x="225" y="1500" on="1"/>
        <pt x="269" y="1500" on="0"/>
        <pt x="340" y="1457" on="1"/>
        <pt x="410" y="1414" on="1"/>
        <pt x="441" y="1395" on="0"/>
        <pt x="483" y="1395" on="1"/>
        <pt x="505" y="1395" on="0"/>
        <pt x="530" y="1400" on="1"/>
        <pt x="520" y="1330" on="0"/>
        <pt x="459" y="1241" on="0"/>
        <pt x="408" y="1236" on="1"/>
        <pt x="403" y="1235" on="0"/>
        <pt x="398" y="1235" on="1"/>
        <pt x="348" y="1235" on="0"/>
        <pt x="263" y="1288" on="1"/>
        <pt x="237" y="1303" on="0"/>
        <pt x="215" y="1303" on="1"/>
        <pt x="152" y="1303" on="0"/>
        <pt x="106" y="1188" on="1"/>
        <pt x="380" y="1100" on="0"/>
        <pt x="380" y="1020" on="1"/>
      </contour>
    </TTGlyph>
    <TTGlyph name="glyph144" xMin="-1067" yMin="-650" xMax="530" yMax="1500">
      <contour>
        <pt x="380" y="-410" on="1"/>
        <pt x="380" y="-550" on="0"/>
        <pt x="237" y="-650" on="0"/>
        <pt x="95" y="-650" on="1"/>
        <pt x="15" y="-650" on="0"/>
        <pt x="-55" y="-636" on="1"/>
        <pt x="-124" y="-622" on="0"/>
        <pt x="-142" y="-595" on="1"/>
        <pt x="-159" y="-622" on="0"/>
        <pt x="-213" y="-636" on="1"/>
        <pt x="-267" y="-650" on="0"/>
        <pt x="-365" y="-650" on="1"/>
        <pt x="-515" y="-650" on="0"/>
        <pt x="-655" y="-550" on="0"/>
        <pt x="-655" y="-400" on="1"/>
        <pt x="-655" y="-320" on="1"/>
        <pt x="-655" y="-200" on="0"/>
        <pt x="-777" y="-200" on="1"/>
        <pt x="-899" y="-200" on="0"/>
        <pt x="-899" y="-320" on="1"/>
        <pt x="-899" y="-400" on="1"/>
        <pt x="-874" y="-400" on="1"/>
        <pt x="-799" y="-400" on="0"/>
        <pt x="-799" y="-450" on="1"/>
        <pt x="-799" y="-498" on="0"/>
        <pt x="-849" y="-575" on="1"/>
        <pt x="-899" y="-650" on="0"/>
        <pt x="-1002" y="-650" on="1"/>
        <pt x="-1067" y="-650" on="0"/>
        <pt x="-1067" y="-550" on="1"/>
        <pt x="-1067" y="-319" on="1"/>
        <pt x="-1067" y="-200" on="0"/>
        <pt x="-927" y="-100" on="0"/>
        <pt x="-777" y="-100" on="1"/>
        <pt x="-627" y="-100" on="0"/>
        <pt x="-552" y="-150" on="1"/>
        <pt x="-487" y="-200" on="0"/>
        <pt x="-487" y="-320" on="1"/>
        <pt x="-487" y="-411" on="1"/>
        <pt x="-487" y="-550" on="0"/>
        <pt x="-365" y="-550" on="1"/>
        <pt x="-224" y="-550" on="0"/>
        <pt x="-224" y="-410" on="1"/>
        <pt x="-224" y="-100" on="1"/>
        <pt x="-56" y="-100" on="1"/>
        <pt x="-56" y="-410" on="1"/>
        <pt x="-56" y="-550" on="0"/>
        <pt x="95" y="-550" on="1"/>
        <pt x="200" y="-550" on="0"/>
        <pt x="200" y="-410" on="1"/>
        <pt x="200" y="963" on="1"/>
        <pt x="200" y="1069" on="0"/>
        <pt x="0" y="1131" on="1"/>
        <pt x="20" y="1232" on="0"/>
        <pt x="171" y="1500" on="0"/>
        <pt x="225" y="1500" on="1"/>
        <pt x="269" y="1500" on="0"/>
        <pt x="340" y="1457" on="1"/>
        <pt x="410" y="1414" on="1"/>
        <pt x="441" y="1395" on="0"/>
        <pt x="483" y="1395" on="1"/>
        <pt x="505" y="1395" on="0"/>
        <pt x="530" y="1400" on="1"/>
        <pt x="520" y="1330" on="0"/>
        <pt x="459" y="1241" on="0"/>
        <pt x="408" y="1236" on="1"/>
        <pt x="403" y="1235" on="0"/>
        <pt x="398" y="1235" on="1"/>
        <pt x="348" y="1235" on="0"/>
        <pt x="263" y="1288" on="1"/>
        <pt x="237" y="1303" on="0"/>
        <pt x="215" y="1303" on="1"/>
        <pt x="152" y="1303" on="0"/>
        <pt x="106" y="1188" on="1"/>
        <pt x="380" y="1100" on="0"/>
        <pt x="380" y="1020" on="1"/>
      </contour>
    </TTGlyph>
    <TTGlyph name="glyph146" xMin="-1775" yMin="-750" xMax="-325" yMax="-50">
      <contour>
        <pt x="-325" y="-430" on="1"/>
        <pt x="-475" y="-430" on="1"/>
        <pt x="-475" y="-310" on="1"/>
        <pt x="-703" y="-183" on="0"/>
        <pt x="-747" y="-183" on="1"/>
        <pt x="-792" y="-183" on="0"/>
        <pt x="-975" y="-256" on="1"/>
        <pt x="-975" y="-430" on="1"/>
        <pt x="-1125" y="-430" on="1"/>
        <pt x="-1125" y="-232" on="1"/>
        <pt x="-1193" y="-168" on="0"/>
        <pt x="-1226" y="-168" on="1"/>
        <pt x="-1259" y="-168" on="0"/>
        <pt x="-1365" y="-270" on="1"/>
        <pt x="-1501" y="-168" on="0"/>
        <pt x="-1526" y="-168" on="1"/>
        <pt x="-1558" y="-168" on="0"/>
        <pt x="-1625" y="-230" on="1"/>
        <pt x="-1625" y="-252" on="1"/>
        <pt x="-1525" y="-252" on="0"/>
        <pt x="-1525" y="-302" on="1"/>
        <pt x="-1525" y="-350" on="0"/>
        <pt x="-1595" y="-430" on="0"/>
        <pt x="-1670" y="-430" on="1"/>
        <pt x="-1775" y="-430" on="0"/>
        <pt x="-1775" y="-289" on="1"/>
        <pt x="-1775" y="-209" on="0"/>
        <pt x="-1575" y="-50" on="0"/>
        <pt x="-1529" y="-50" on="1"/>
        <pt x="-1490" y="-50" on="0"/>
        <pt x="-1365" y="-150" on="1"/>
        <pt x="-1260" y="-50" on="0"/>
        <pt x="-1222" y="-50" on="1"/>
        <pt x="-1185" y="-50" on="0"/>
        <pt x="-1033" y="-172" on="1"/>
        <pt x="-755" y="-50" on="0"/>
        <pt x="-705" y="-50" on="1"/>
        <pt x="-655" y="-50" on="0"/>
        <pt x="-490" y="-130" on="1"/>
        <pt x="-407" y="-170" on="1"/>
        <pt x="-325" y="-210" on="0"/>
        <pt x="-325" y="-320" on="1"/>
      </contour>
      <contour>
        <pt x="-325" y="-600" on="1"/>
        <pt x="-325" y="-675" on="0"/>
        <pt x="-412" y="-712" on="1"/>
        <pt x="-500" y="-750" on="0"/>
        <pt x="-675" y="-750" on="1"/>
        <pt x="-925" y="-750" on="0"/>
        <pt x="-1120" y="-675" on="1"/>
        <pt x="-1315" y="-600" on="0"/>
        <pt x="-1475" y="-600" on="1"/>
        <pt x="-1650" y="-600" on="0"/>
        <pt x="-1775" y="-690" on="1"/>
        <pt x="-1775" y="-640" on="1"/>
        <pt x="-1775" y="-590" on="0"/>
        <pt x="-1650" y="-500" on="0"/>
        <pt x="-1475" y="-500" on="1"/>
        <pt x="-1275" y="-500" on="0"/>
        <pt x="-1075" y="-575" on="1"/>
        <pt x="-875" y="-650" on="0"/>
        <pt x="-675" y="-650" on="1"/>
        <pt x="-475" y="-650" on="0"/>
        <pt x="-475" y="-600" on="1"/>
        <pt x="-475" y="-550" on="0"/>
        <pt x="-575" y="-550" on="1"/>
        <pt x="-575" y="-450" on="0"/>
        <pt x="-475" y="-450" on="1"/>
        <pt x="-400" y="-450" on="0"/>
        <pt x="-362" y="-488" on="1"/>
        <pt x="-325" y="-525" on="0"/>
      </contour>
    </TTGlyph>
    <TTGlyph name="glyph150" xMin="-1130" yMin="-650" xMax="530" yMax="1500">
      <contour>
        <pt x="-952" y="-475" on="1"/>
        <pt x="-952" y="-550" on="1"/>
        <pt x="-911" y="-550" on="0"/>
        <pt x="-911" y="-500" on="1"/>
        <pt x="-911" y="-488" on="0"/>
        <pt x="-922" y="-481" on="1"/>
        <pt x="-932" y="-475" on="0"/>
      </contour>
      <contour>
        <pt x="380" y="-399" on="1"/>
        <pt x="380" y="-650" on="0"/>
        <pt x="105" y="-650" on="1"/>
        <pt x="-45" y="-650" on="0"/>
        <pt x="-195" y="-430" on="0"/>
        <pt x="-245" y="-430" on="1"/>
        <pt x="-270" y="-430" on="1"/>
        <pt x="-270" y="-530" on="1"/>
        <pt x="-270" y="-650" on="0"/>
        <pt x="-375" y="-650" on="1"/>
        <pt x="-440" y="-650" on="0"/>
        <pt x="-540" y="-480" on="0"/>
        <pt x="-540" y="-430" on="1"/>
        <pt x="-540" y="-380" on="0"/>
        <pt x="-515" y="-355" on="1"/>
        <pt x="-491" y="-331" on="0"/>
        <pt x="-446" y="-330" on="1"/>
        <pt x="-447" y="-330" on="1"/>
        <pt x="-447" y="-266" on="0"/>
        <pt x="-510" y="-223" on="1"/>
        <pt x="-524" y="-214" on="0"/>
        <pt x="-541" y="-214" on="1"/>
        <pt x="-601" y="-214" on="0"/>
        <pt x="-699" y="-331" on="1"/>
        <pt x="-798" y="-214" on="0"/>
        <pt x="-858" y="-214" on="1"/>
        <pt x="-875" y="-214" on="0"/>
        <pt x="-889" y="-223" on="1"/>
        <pt x="-952" y="-266" on="0"/>
        <pt x="-952" y="-330" on="1"/>
        <pt x="-952" y="-375" on="1"/>
        <pt x="-889" y="-375" on="0"/>
        <pt x="-858" y="-406" on="1"/>
        <pt x="-827" y="-438" on="0"/>
        <pt x="-827" y="-500" on="1"/>
        <pt x="-827" y="-650" on="0"/>
        <pt x="-952" y="-650" on="1"/>
        <pt x="-1130" y="-650" on="0"/>
        <pt x="-1130" y="-550" on="1"/>
        <pt x="-1130" y="-330" on="1"/>
        <pt x="-1130" y="-208" on="0"/>
        <pt x="-915" y="-50" on="0"/>
        <pt x="-862" y="-50" on="1"/>
        <pt x="-818" y="-50" on="0"/>
        <pt x="-699" y="-164" on="1"/>
        <pt x="-580" y="-50" on="0"/>
        <pt x="-536" y="-50" on="1"/>
        <pt x="-484" y="-50" on="0"/>
        <pt x="-270" y="-208" on="0"/>
        <pt x="-270" y="-330" on="1"/>
        <pt x="-245" y="-330" on="1"/>
        <pt x="-165" y="-330" on="0"/>
        <pt x="-5" y="-550" on="0"/>
        <pt x="105" y="-550" on="1"/>
        <pt x="200" y="-550" on="0"/>
        <pt x="200" y="-399" on="1"/>
        <pt x="200" y="963" on="1"/>
        <pt x="200" y="1069" on="0"/>
        <pt x="0" y="1131" on="1"/>
        <pt x="20" y="1232" on="0"/>
        <pt x="171" y="1500" on="0"/>
        <pt x="225" y="1500" on="1"/>
        <pt x="269" y="1500" on="0"/>
        <pt x="340" y="1457" on="1"/>
        <pt x="410" y="1414" on="1"/>
        <pt x="441" y="1395" on="0"/>
        <pt x="483" y="1395" on="1"/>
        <pt x="505" y="1395" on="0"/>
        <pt x="530" y="1400" on="1"/>
        <pt x="520" y="1330" on="0"/>
        <pt x="459" y="1241" on="0"/>
        <pt x="408" y="1236" on="1"/>
        <pt x="403" y="1235" on="0"/>
        <pt x="398" y="1235" on="1"/>
        <pt x="348" y="1235" on="0"/>
        <pt x="263" y="1288" on="1"/>
        <pt x="237" y="1303" on="0"/>
        <pt x="215" y="1303" on="1"/>
        <pt x="152" y="1303" on="0"/>
        <pt x="106" y="1188" on="1"/>
        <pt x="380" y="1100" on="0"/>
        <pt x="380" y="1020" on="1"/>
      </contour>
    </TTGlyph>
    <TTGlyph name="glyph157" xMin="-418" yMin="-650" xMax="530" yMax="1500">
      <contour>
        <pt x="-50" y="-308" on="1"/>
        <pt x="-37" y="-295" on="0"/>
        <pt x="-25" y="-295" on="1"/>
        <pt x="-12" y="-295" on="0"/>
        <pt x="0" y="-308" on="1"/>
        <pt x="200" y="-508" on="1"/>
        <pt x="200" y="963" on="1"/>
        <pt x="200" y="1069" on="0"/>
        <pt x="0" y="1131" on="1"/>
        <pt x="20" y="1232" on="0"/>
        <pt x="171" y="1500" on="0"/>
        <pt x="225" y="1500" on="1"/>
        <pt x="269" y="1500" on="0"/>
        <pt x="340" y="1457" on="1"/>
        <pt x="410" y="1414" on="1"/>
        <pt x="441" y="1395" on="0"/>
        <pt x="483" y="1395" on="1"/>
        <pt x="505" y="1395" on="0"/>
        <pt x="530" y="1400" on="1"/>
        <pt x="520" y="1330" on="0"/>
        <pt x="459" y="1241" on="0"/>
        <pt x="408" y="1236" on="1"/>
        <pt x="403" y="1235" on="0"/>
        <pt x="398" y="1235" on="1"/>
        <pt x="348" y="1235" on="0"/>
        <pt x="263" y="1288" on="1"/>
        <pt x="237" y="1303" on="0"/>
        <pt x="215" y="1303" on="1"/>
        <pt x="152" y="1303" on="0"/>
        <pt x="106" y="1188" on="1"/>
        <pt x="380" y="1100" on="0"/>
        <pt x="380" y="1020" on="1"/>
        <pt x="380" y="-550" on="1"/>
        <pt x="380" y="-650" on="0"/>
        <pt x="300" y="-650" on="1"/>
        <pt x="200" y="-650" on="0"/>
        <pt x="138" y="-587" on="1"/>
        <pt x="-24" y="-424" on="1"/>
        <pt x="-187" y="-587" on="1"/>
        <pt x="-250" y="-650" on="0"/>
        <pt x="-350" y="-650" on="1"/>
        <pt x="-418" y="-650" on="0"/>
        <pt x="-418" y="-550" on="1"/>
        <pt x="-418" y="-250" on="1"/>
        <pt x="-418" y="-100" on="0"/>
        <pt x="-264" y="-100" on="1"/>
        <pt x="-210" y="-100" on="0"/>
        <pt x="-138" y="-140" on="0"/>
        <pt x="-138" y="-190" on="1"/>
        <pt x="-138" y="-290" on="0"/>
        <pt x="-250" y="-350" on="1"/>
        <pt x="-250" y="-508" on="1"/>
      </contour>
    </TTGlyph>
    <TTGlyph name="glyph162" xMin="-418" yMin="-650" xMax="530" yMax="1500">
      <contour>
        <pt x="380" y="-400" on="1"/>
        <pt x="380" y="-650" on="0"/>
        <pt x="-25" y="-650" on="1"/>
        <pt x="-418" y="-650" on="0"/>
        <pt x="-418" y="-400" on="1"/>
        <pt x="-418" y="-199" on="1"/>
        <pt x="-418" y="-100" on="0"/>
        <pt x="-314" y="-100" on="1"/>
        <pt x="-250" y="-100" on="0"/>
        <pt x="-194" y="-154" on="1"/>
        <pt x="-138" y="-209" on="0"/>
        <pt x="-138" y="-259" on="1"/>
        <pt x="-138" y="-349" on="0"/>
        <pt x="-250" y="-349" on="1"/>
        <pt x="-250" y="-400" on="1"/>
        <pt x="-250" y="-550" on="0"/>
        <pt x="-25" y="-550" on="1"/>
        <pt x="200" y="-550" on="0"/>
        <pt x="200" y="-400" on="1"/>
        <pt x="200" y="963" on="1"/>
        <pt x="200" y="1069" on="0"/>
        <pt x="0" y="1131" on="1"/>
        <pt x="20" y="1232" on="0"/>
        <pt x="171" y="1500" on="0"/>
        <pt x="225" y="1500" on="1"/>
        <pt x="269" y="1500" on="0"/>
        <pt x="340" y="1457" on="1"/>
        <pt x="410" y="1414" on="1"/>
        <pt x="441" y="1395" on="0"/>
        <pt x="483" y="1395" on="1"/>
        <pt x="505" y="1395" on="0"/>
        <pt x="530" y="1400" on="1"/>
        <pt x="520" y="1330" on="0"/>
        <pt x="459" y="1241" on="0"/>
        <pt x="408" y="1236" on="1"/>
        <pt x="403" y="1235" on="0"/>
        <pt x="398" y="1235" on="1"/>
        <pt x="348" y="1235" on="0"/>
        <pt x="263" y="1288" on="1"/>
        <pt x="237" y="1303" on="0"/>
        <pt x="215" y="1303" on="1"/>
        <pt x="152" y="1303" on="0"/>
        <pt x="106" y="1188" on="1"/>
        <pt x="380" y="1100" on="0"/>
        <pt x="380" y="1020" on="1"/>
      </contour>
    </TTGlyph>
    <TTGlyph name="glyph166" xMin="-530" yMin="-650" xMax="530" yMax="1500">
      <contour>
        <pt x="380" y="100" on="1"/>
        <pt x="530" y="100" on="1"/>
        <pt x="530" y="0" on="1"/>
        <pt x="380" y="0" on="1"/>
        <pt x="380" y="-400" on="1"/>
        <pt x="380" y="-650" on="0"/>
        <pt x="-19" y="-650" on="1"/>
        <pt x="-418" y="-650" on="0"/>
        <pt x="-418" y="-400" on="1"/>
        <pt x="-418" y="-350" on="1"/>
        <pt x="-530" y="-350" on="0"/>
        <pt x="-530" y="-260" on="1"/>
        <pt x="-530" y="-210" on="0"/>
        <pt x="-474" y="-155" on="1"/>
        <pt x="-418" y="-100" on="0"/>
        <pt x="-354" y="-100" on="1"/>
        <pt x="-250" y="-100" on="0"/>
        <pt x="-250" y="-200" on="1"/>
        <pt x="-250" y="-400" on="1"/>
        <pt x="-250" y="-550" on="0"/>
        <pt x="-25" y="-550" on="1"/>
        <pt x="200" y="-550" on="0"/>
        <pt x="200" y="-400" on="1"/>
        <pt x="200" y="0" on="1"/>
        <pt x="50" y="0" on="1"/>
        <pt x="50" y="100" on="1"/>
        <pt x="200" y="100" on="1"/>
        <pt x="200" y="963" on="1"/>
        <pt x="200" y="1069" on="0"/>
        <pt x="0" y="1131" on="1"/>
        <pt x="20" y="1232" on="0"/>
        <pt x="171" y="1500" on="0"/>
        <pt x="225" y="1500" on="1"/>
        <pt x="269" y="1500" on="0"/>
        <pt x="340" y="1457" on="1"/>
        <pt x="410" y="1414" on="1"/>
        <pt x="441" y="1395" on="0"/>
        <pt x="483" y="1395" on="1"/>
        <pt x="505" y="1395" on="0"/>
        <pt x="530" y="1400" on="1"/>
        <pt x="520" y="1330" on="0"/>
        <pt x="459" y="1241" on="0"/>
        <pt x="408" y="1236" on="1"/>
        <pt x="403" y="1235" on="0"/>
        <pt x="398" y="1235" on="1"/>
        <pt x="348" y="1235" on="0"/>
        <pt x="263" y="1288" on="1"/>
        <pt x="237" y="1303" on="0"/>
        <pt x="215" y="1303" on="1"/>
        <pt x="152" y="1303" on="0"/>
        <pt x="106" y="1188" on="1"/>
        <pt x="380" y="1100" on="0"/>
        <pt x="380" y="1020" on="1"/>
      </contour>
    </TTGlyph>
    <TTGlyph name="glyph169" xMin="-555" yMin="-1200" xMax="-325" yMax="-700">
      <contour>
        <pt x="-325" y="-700" on="0"/>
        <pt x="-325" y="-782" on="1"/>
        <pt x="-325" y="-1200" on="1"/>
        <pt x="-475" y="-1200" on="1"/>
        <pt x="-475" y="-866" on="1"/>
        <pt x="-555" y="-866" on="0"/>
        <pt x="-555" y="-782" on="1"/>
        <pt x="-555" y="-700" on="0"/>
        <pt x="-435" y="-700" on="1"/>
      </contour>
    </TTGlyph>
    <TTGlyph name="glyph170" xMin="-851" yMin="-1200" xMax="-300" yMax="-700">
      <contour>
        <pt x="-611" y="-1200" on="1"/>
        <pt x="-840" y="-1200" on="0"/>
        <pt x="-840" y="-1058" on="1"/>
        <pt x="-840" y="-1018" on="0"/>
        <pt x="-821" y="-966" on="1"/>
        <pt x="-771" y="-851" on="1"/>
        <pt x="-851" y="-851" on="0"/>
        <pt x="-851" y="-775" on="1"/>
        <pt x="-851" y="-700" on="0"/>
        <pt x="-731" y="-700" on="1"/>
        <pt x="-608" y="-700" on="0"/>
        <pt x="-608" y="-795" on="1"/>
        <pt x="-608" y="-834" on="0"/>
        <pt x="-629" y="-890" on="1"/>
        <pt x="-670" y="-988" on="1"/>
        <pt x="-681" y="-1014" on="0"/>
        <pt x="-681" y="-1032" on="1"/>
        <pt x="-681" y="-1080" on="0"/>
        <pt x="-611" y="-1080" on="1"/>
        <pt x="-514" y="-1080" on="0"/>
        <pt x="-451" y="-909" on="1"/>
        <pt x="-379" y="-700" on="0"/>
        <pt x="-325" y="-700" on="1"/>
        <pt x="-300" y="-700" on="0"/>
        <pt x="-300" y="-750" on="1"/>
        <pt x="-300" y="-818" on="0"/>
        <pt x="-338" y="-966" on="1"/>
        <pt x="-396" y="-1200" on="0"/>
      </contour>
    </TTGlyph>
    <TTGlyph name="glyph171" xMin="-946" yMin="-1200" xMax="-300" yMax="-700">
      <contour>
        <pt x="-623" y="-1100" on="1"/>
        <pt x="-715" y="-1200" on="0"/>
        <pt x="-800" y="-1200" on="1"/>
        <pt x="-946" y="-1200" on="0"/>
        <pt x="-946" y="-1098" on="1"/>
        <pt x="-946" y="-1039" on="0"/>
        <pt x="-888" y="-946" on="1"/>
        <pt x="-826" y="-851" on="1"/>
        <pt x="-910" y="-851" on="0"/>
        <pt x="-910" y="-775" on="1"/>
        <pt x="-910" y="-700" on="0"/>
        <pt x="-790" y="-700" on="1"/>
        <pt x="-690" y="-700" on="0"/>
        <pt x="-660" y="-750" on="1"/>
        <pt x="-650" y="-768" on="0"/>
        <pt x="-650" y="-791" on="1"/>
        <pt x="-650" y="-833" on="0"/>
        <pt x="-686" y="-893" on="1"/>
        <pt x="-746" y="-986" on="1"/>
        <pt x="-784" y="-1048" on="0"/>
        <pt x="-784" y="-1075" on="1"/>
        <pt x="-784" y="-1097" on="0"/>
        <pt x="-760" y="-1097" on="1"/>
        <pt x="-708" y="-1097" on="0"/>
        <pt x="-567" y="-949" on="1"/>
        <pt x="-546" y="-1097" on="0"/>
        <pt x="-510" y="-1097" on="1"/>
        <pt x="-477" y="-1097" on="0"/>
        <pt x="-453" y="-1002" on="1"/>
        <pt x="-378" y="-700" on="0"/>
        <pt x="-339" y="-700" on="1"/>
        <pt x="-300" y="-700" on="0"/>
        <pt x="-300" y="-773" on="1"/>
        <pt x="-300" y="-849" on="0"/>
        <pt x="-317" y="-1003" on="1"/>
        <pt x="-354" y="-1200" on="0"/>
        <pt x="-470" y="-1200" on="1"/>
        <pt x="-583" y="-1200" on="0"/>
      </contour>
    </TTGlyph>
    <TTGlyph name="glyph172" xMin="-1150" yMin="2000" xMax="-250" yMax="2400">
      <contour>
        <pt x="-1150" y="2150" on="1"/>
        <pt x="-1150" y="2400" on="0"/>
        <pt x="-850" y="2400" on="1"/>
        <pt x="-590" y="2400" on="0"/>
        <pt x="-335" y="2175" on="1"/>
        <pt x="-250" y="2100" on="0"/>
        <pt x="-250" y="2050" on="1"/>
        <pt x="-250" y="2000" on="0"/>
        <pt x="-350" y="2000" on="1"/>
        <pt x="-950" y="2000" on="1"/>
        <pt x="-1150" y="2000" on="0"/>
      </contour>
      <contour>
        <pt x="-1000" y="2150" on="1"/>
        <pt x="-1000" y="2100" on="0"/>
        <pt x="-950" y="2100" on="1"/>
        <pt x="-430" y="2100" on="1"/>
        <pt x="-560" y="2197" on="0"/>
        <pt x="-739" y="2250" on="0"/>
        <pt x="-850" y="2250" on="1"/>
        <pt x="-1000" y="2250" on="0"/>
      </contour>
    </TTGlyph>
    <TTGlyph name="glyph173" xMin="-1150" yMin="2000" xMax="-250" yMax="2500">
      <contour>
        <pt x="-1000" y="2150" on="1"/>
        <pt x="-1000" y="2100" on="0"/>
        <pt x="-950" y="2100" on="1"/>
        <pt x="-430" y="2100" on="1"/>
        <pt x="-560" y="2197" on="0"/>
        <pt x="-739" y="2250" on="0"/>
        <pt x="-850" y="2250" on="1"/>
        <pt x="-1000" y="2250" on="0"/>
      </contour>
      <contour>
        <pt x="-384" y="2216" on="1"/>
        <pt x="-384" y="2500" on="1"/>
        <pt x="-250" y="2500" on="1"/>
        <pt x="-250" y="2050" on="1"/>
        <pt x="-250" y="2000" on="0"/>
        <pt x="-350" y="2000" on="1"/>
        <pt x="-950" y="2000" on="1"/>
        <pt x="-1150" y="2000" on="0"/>
        <pt x="-1150" y="2150" on="1"/>
        <pt x="-1150" y="2400" on="0"/>
        <pt x="-850" y="2400" on="1"/>
        <pt x="-614" y="2400" on="0"/>
      </contour>
    </TTGlyph>
    <TTGlyph name="glyph174" xMin="-1150" yMin="2000" xMax="-250" yMax="2500">
      <contour>
        <pt x="-1000" y="2150" on="1"/>
        <pt x="-1000" y="2100" on="0"/>
        <pt x="-950" y="2100" on="1"/>
        <pt x="-430" y="2100" on="1"/>
        <pt x="-574" y="2185" on="0"/>
        <pt x="-769" y="2250" on="0"/>
        <pt x="-870" y="2250" on="1"/>
        <pt x="-1000" y="2250" on="0"/>
      </contour>
      <contour>
        <pt x="-646" y="2345" on="1"/>
        <pt x="-646" y="2349" on="1"/>
        <pt x="-635" y="2424" on="0"/>
        <pt x="-586" y="2462" on="1"/>
        <pt x="-536" y="2500" on="0"/>
        <pt x="-450" y="2500" on="1"/>
        <pt x="-350" y="2500" on="0"/>
        <pt x="-300" y="2450" on="1"/>
        <pt x="-250" y="2400" on="0"/>
        <pt x="-250" y="2300" on="1"/>
        <pt x="-250" y="2185" on="0"/>
        <pt x="-316" y="2136" on="1"/>
        <pt x="-318" y="2134" on="1"/>
        <pt x="-250" y="2077" on="0"/>
        <pt x="-250" y="2050" on="1"/>
        <pt x="-250" y="2000" on="0"/>
        <pt x="-350" y="2000" on="1"/>
        <pt x="-950" y="2000" on="1"/>
        <pt x="-1150" y="2000" on="0"/>
        <pt x="-1150" y="2150" on="1"/>
        <pt x="-1150" y="2400" on="0"/>
        <pt x="-870" y="2400" on="1"/>
        <pt x="-762" y="2400" on="0"/>
      </contour>
      <contour>
        <pt x="-529" y="2281" on="1"/>
        <pt x="-505" y="2266" on="0"/>
        <pt x="-480" y="2250" on="1"/>
        <pt x="-456" y="2235" on="0"/>
        <pt x="-435" y="2220" on="1"/>
        <pt x="-370" y="2228" on="0"/>
        <pt x="-370" y="2300" on="1"/>
        <pt x="-370" y="2380" on="0"/>
        <pt x="-450" y="2380" on="1"/>
        <pt x="-530" y="2380" on="0"/>
        <pt x="-530" y="2300" on="1"/>
        <pt x="-530" y="2294" on="0"/>
      </contour>
    </TTGlyph>
    <TTGlyph name="glyph175" xMin="-1150" yMin="2000" xMax="-250" yMax="2500">
      <contour>
        <pt x="-1000" y="2150" on="1"/>
        <pt x="-1000" y="2100" on="0"/>
        <pt x="-950" y="2100" on="1"/>
        <pt x="-430" y="2100" on="1"/>
        <pt x="-560" y="2197" on="0"/>
        <pt x="-739" y="2250" on="0"/>
        <pt x="-850" y="2250" on="1"/>
        <pt x="-1000" y="2250" on="0"/>
      </contour>
      <contour>
        <pt x="-634" y="2361" on="1"/>
        <pt x="-634" y="2500" on="1"/>
        <pt x="-500" y="2500" on="1"/>
        <pt x="-500" y="2297" on="1"/>
        <pt x="-441" y="2262" on="0"/>
        <pt x="-384" y="2216" on="1"/>
        <pt x="-384" y="2500" on="1"/>
        <pt x="-250" y="2500" on="1"/>
        <pt x="-250" y="2050" on="1"/>
        <pt x="-250" y="2000" on="0"/>
        <pt x="-350" y="2000" on="1"/>
        <pt x="-950" y="2000" on="1"/>
        <pt x="-1150" y="2000" on="0"/>
        <pt x="-1150" y="2150" on="1"/>
        <pt x="-1150" y="2400" on="0"/>
        <pt x="-850" y="2400" on="1"/>
        <pt x="-741" y="2400" on="0"/>
      </contour>
    </TTGlyph>
    <TTGlyph name="glyph176" xMin="-950" yMin="2000" xMax="-500" yMax="2450">
      <contour>
        <pt x="-805" y="2225" on="1"/>
        <pt x="-805" y="2175" on="0"/>
        <pt x="-765" y="2125" on="0"/>
        <pt x="-725" y="2125" on="1"/>
        <pt x="-685" y="2125" on="0"/>
        <pt x="-645" y="2175" on="0"/>
        <pt x="-645" y="2225" on="1"/>
        <pt x="-645" y="2275" on="0"/>
        <pt x="-685" y="2325" on="0"/>
        <pt x="-725" y="2325" on="1"/>
        <pt x="-765" y="2325" on="0"/>
        <pt x="-805" y="2275" on="0"/>
      </contour>
      <contour>
        <pt x="-500" y="2225" on="1"/>
        <pt x="-500" y="2112" on="0"/>
        <pt x="-556" y="2056" on="1"/>
        <pt x="-612" y="2000" on="0"/>
        <pt x="-725" y="2000" on="1"/>
        <pt x="-838" y="2000" on="0"/>
        <pt x="-894" y="2056" on="1"/>
        <pt x="-950" y="2112" on="0"/>
        <pt x="-950" y="2225" on="1"/>
        <pt x="-950" y="2338" on="0"/>
        <pt x="-894" y="2394" on="1"/>
        <pt x="-838" y="2450" on="0"/>
        <pt x="-725" y="2450" on="1"/>
        <pt x="-612" y="2450" on="0"/>
        <pt x="-556" y="2394" on="1"/>
        <pt x="-500" y="2338" on="0"/>
      </contour>
    </TTGlyph>
    <TTGlyph name="glyph177" xMin="-935" yMin="2000" xMax="-515" yMax="2419">
      <contour>
        <pt x="-785" y="2149" on="1"/>
        <pt x="-935" y="2149" on="1"/>
        <pt x="-935" y="2270" on="1"/>
        <pt x="-785" y="2270" on="1"/>
        <pt x="-785" y="2419" on="1"/>
        <pt x="-665" y="2419" on="1"/>
        <pt x="-665" y="2270" on="1"/>
        <pt x="-515" y="2270" on="1"/>
        <pt x="-515" y="2149" on="1"/>
        <pt x="-665" y="2149" on="1"/>
        <pt x="-665" y="2000" on="1"/>
        <pt x="-785" y="2000" on="1"/>
      </contour>
    </TTGlyph>
    <TTGlyph name="glyph178" xMin="-900" yMin="1967" xMax="-200" yMax="2500">
      <contour>
        <pt x="-730" y="2317" on="1"/>
        <pt x="-600" y="2317" on="0"/>
        <pt x="-600" y="2212" on="1"/>
        <pt x="-600" y="2117" on="0"/>
        <pt x="-675" y="2117" on="1"/>
        <pt x="-740" y="2117" on="0"/>
        <pt x="-750" y="2167" on="1"/>
        <pt x="-750" y="2068" on="0"/>
        <pt x="-650" y="2068" on="1"/>
        <pt x="-475" y="2068" on="0"/>
        <pt x="-412" y="2121" on="1"/>
        <pt x="-350" y="2174" on="0"/>
        <pt x="-350" y="2280" on="1"/>
        <pt x="-350" y="2400" on="0"/>
        <pt x="-400" y="2400" on="1"/>
        <pt x="-450" y="2400" on="0"/>
        <pt x="-450" y="2450" on="1"/>
        <pt x="-450" y="2500" on="0"/>
        <pt x="-400" y="2500" on="1"/>
        <pt x="-325" y="2500" on="0"/>
        <pt x="-262" y="2445" on="1"/>
        <pt x="-200" y="2390" on="0"/>
        <pt x="-200" y="2280" on="1"/>
        <pt x="-200" y="2123" on="0"/>
        <pt x="-312" y="2045" on="1"/>
        <pt x="-425" y="1967" on="0"/>
        <pt x="-650" y="1967" on="1"/>
        <pt x="-775" y="1967" on="0"/>
        <pt x="-838" y="2017" on="1"/>
        <pt x="-900" y="2067" on="0"/>
        <pt x="-900" y="2167" on="1"/>
        <pt x="-900" y="2317" on="0"/>
      </contour>
    </TTGlyph>
    <TTGlyph name="glyph179" xMin="200" yMin="0" xMax="1900" yMax="1500">
      <contour>
        <pt x="380" y="150" on="1"/>
        <pt x="500" y="150" on="0"/>
        <pt x="500" y="400" on="1"/>
        <pt x="500" y="500" on="0"/>
        <pt x="380" y="500" on="1"/>
      </contour>
      <contour>
        <pt x="1020" y="1200" on="1"/>
        <pt x="1020" y="1304" on="0"/>
        <pt x="951" y="1342" on="1"/>
        <pt x="938" y="1348" on="0"/>
        <pt x="923" y="1348" on="1"/>
        <pt x="850" y="1348" on="0"/>
        <pt x="700" y="1200" on="1"/>
        <pt x="551" y="1348" on="0"/>
        <pt x="477" y="1348" on="1"/>
        <pt x="462" y="1348" on="0"/>
        <pt x="450" y="1342" on="1"/>
        <pt x="380" y="1304" on="0"/>
        <pt x="380" y="1200" on="1"/>
        <pt x="380" y="600" on="1"/>
        <pt x="600" y="600" on="0"/>
        <pt x="600" y="400" on="1"/>
        <pt x="600" y="200" on="0"/>
        <pt x="475" y="0" on="0"/>
        <pt x="350" y="0" on="1"/>
        <pt x="200" y="0" on="0"/>
        <pt x="200" y="100" on="1"/>
        <pt x="200" y="1200" on="1"/>
        <pt x="200" y="1322" on="0"/>
        <pt x="310" y="1411" on="1"/>
        <pt x="420" y="1500" on="0"/>
        <pt x="479" y="1500" on="1"/>
        <pt x="529" y="1500" on="0"/>
        <pt x="700" y="1366" on="1"/>
        <pt x="872" y="1500" on="0"/>
        <pt x="922" y="1500" on="1"/>
        <pt x="981" y="1500" on="0"/>
        <pt x="1090" y="1411" on="1"/>
        <pt x="1106" y="1398" on="0"/>
        <pt x="1119" y="1385" on="1"/>
        <pt x="1229" y="1500" on="0"/>
        <pt x="1460" y="1500" on="1"/>
        <pt x="1900" y="1500" on="0"/>
        <pt x="1900" y="1081" on="1"/>
        <pt x="1900" y="0" on="1"/>
        <pt x="1720" y="0" on="1"/>
        <pt x="1720" y="1081" on="1"/>
        <pt x="1720" y="1380" on="0"/>
        <pt x="1460" y="1380" on="1"/>
        <pt x="1200" y="1380" on="0"/>
        <pt x="1200" y="1081" on="1"/>
        <pt x="1200" y="0" on="1"/>
        <pt x="1020" y="0" on="1"/>
      </contour>
    </TTGlyph>
    <TTGlyph name="glyph180" xMin="-1812" yMin="-650" xMax="-1012" yMax="-100">
      <contour>
        <pt x="-1662" y="-470" on="1"/>
        <pt x="-1662" y="-537" on="1"/>
        <pt x="-1612" y="-518" on="0"/>
        <pt x="-1612" y="-491" on="1"/>
        <pt x="-1612" y="-470" on="0"/>
      </contour>
      <contour>
        <pt x="-1812" y="-350" on="1"/>
        <pt x="-1812" y="-220" on="0"/>
        <pt x="-1592" y="-100" on="0"/>
        <pt x="-1412" y="-100" on="1"/>
        <pt x="-1232" y="-100" on="0"/>
        <pt x="-1012" y="-220" on="0"/>
        <pt x="-1012" y="-350" on="1"/>
        <pt x="-1012" y="-650" on="1"/>
        <pt x="-1162" y="-650" on="1"/>
        <pt x="-1162" y="-350" on="1"/>
        <pt x="-1162" y="-270" on="0"/>
        <pt x="-1307" y="-200" on="0"/>
        <pt x="-1412" y="-200" on="1"/>
        <pt x="-1517" y="-200" on="0"/>
        <pt x="-1662" y="-270" on="0"/>
        <pt x="-1662" y="-350" on="1"/>
        <pt x="-1662" y="-370" on="1"/>
        <pt x="-1587" y="-370" on="0"/>
        <pt x="-1549" y="-400" on="1"/>
        <pt x="-1512" y="-430" on="0"/>
        <pt x="-1512" y="-490" on="1"/>
        <pt x="-1512" y="-560" on="0"/>
        <pt x="-1587" y="-605" on="1"/>
        <pt x="-1662" y="-650" on="1"/>
        <pt x="-1812" y="-650" on="1"/>
      </contour>
    </TTGlyph>
    <TTGlyph name="glyph181" xMin="-1242" yMin="-1200" xMax="-1012" yMax="-700">
      <contour>
        <pt x="-1012" y="-700" on="0"/>
        <pt x="-1012" y="-782" on="1"/>
        <pt x="-1012" y="-1200" on="1"/>
        <pt x="-1162" y="-1200" on="1"/>
        <pt x="-1162" y="-866" on="1"/>
        <pt x="-1242" y="-866" on="0"/>
        <pt x="-1242" y="-782" on="1"/>
        <pt x="-1242" y="-700" on="0"/>
        <pt x="-1122" y="-700" on="1"/>
      </contour>
    </TTGlyph>
    <TTGlyph name="glyph182" xMin="-1513" yMin="-1200" xMax="-962" yMax="-700">
      <contour>
        <pt x="-1273" y="-1200" on="1"/>
        <pt x="-1502" y="-1200" on="0"/>
        <pt x="-1502" y="-1058" on="1"/>
        <pt x="-1502" y="-1018" on="0"/>
        <pt x="-1483" y="-966" on="1"/>
        <pt x="-1433" y="-851" on="1"/>
        <pt x="-1513" y="-851" on="0"/>
        <pt x="-1513" y="-775" on="1"/>
        <pt x="-1513" y="-700" on="0"/>
        <pt x="-1393" y="-700" on="1"/>
        <pt x="-1270" y="-700" on="0"/>
        <pt x="-1270" y="-795" on="1"/>
        <pt x="-1270" y="-834" on="0"/>
        <pt x="-1291" y="-890" on="1"/>
        <pt x="-1332" y="-988" on="1"/>
        <pt x="-1343" y="-1014" on="0"/>
        <pt x="-1343" y="-1032" on="1"/>
        <pt x="-1343" y="-1080" on="0"/>
        <pt x="-1273" y="-1080" on="1"/>
        <pt x="-1176" y="-1080" on="0"/>
        <pt x="-1113" y="-909" on="1"/>
        <pt x="-1041" y="-700" on="0"/>
        <pt x="-987" y="-700" on="1"/>
        <pt x="-962" y="-700" on="0"/>
        <pt x="-962" y="-750" on="1"/>
        <pt x="-962" y="-818" on="0"/>
        <pt x="-1000" y="-966" on="1"/>
        <pt x="-1058" y="-1200" on="0"/>
      </contour>
    </TTGlyph>
    <TTGlyph name="glyph183" xMin="-1608" yMin="-1200" xMax="-962" yMax="-700">
      <contour>
        <pt x="-1285" y="-1100" on="1"/>
        <pt x="-1377" y="-1200" on="0"/>
        <pt x="-1462" y="-1200" on="1"/>
        <pt x="-1608" y="-1200" on="0"/>
        <pt x="-1608" y="-1098" on="1"/>
        <pt x="-1608" y="-1039" on="0"/>
        <pt x="-1550" y="-946" on="1"/>
        <pt x="-1488" y="-851" on="1"/>
        <pt x="-1572" y="-851" on="0"/>
        <pt x="-1572" y="-775" on="1"/>
        <pt x="-1572" y="-700" on="0"/>
        <pt x="-1452" y="-700" on="1"/>
        <pt x="-1352" y="-700" on="0"/>
        <pt x="-1322" y="-750" on="1"/>
        <pt x="-1312" y="-768" on="0"/>
        <pt x="-1312" y="-791" on="1"/>
        <pt x="-1312" y="-833" on="0"/>
        <pt x="-1348" y="-893" on="1"/>
        <pt x="-1408" y="-986" on="1"/>
        <pt x="-1446" y="-1048" on="0"/>
        <pt x="-1446" y="-1075" on="1"/>
        <pt x="-1446" y="-1097" on="0"/>
        <pt x="-1422" y="-1097" on="1"/>
        <pt x="-1370" y="-1097" on="0"/>
        <pt x="-1229" y="-949" on="1"/>
        <pt x="-1208" y="-1097" on="0"/>
        <pt x="-1172" y="-1097" on="1"/>
        <pt x="-1139" y="-1097" on="0"/>
        <pt x="-1115" y="-1002" on="1"/>
        <pt x="-1040" y="-700" on="0"/>
        <pt x="-1001" y="-700" on="1"/>
        <pt x="-962" y="-700" on="0"/>
        <pt x="-962" y="-773" on="1"/>
        <pt x="-962" y="-849" on="0"/>
        <pt x="-979" y="-1003" on="1"/>
        <pt x="-1016" y="-1200" on="0"/>
        <pt x="-1132" y="-1200" on="1"/>
        <pt x="-1245" y="-1200" on="0"/>
      </contour>
    </TTGlyph>
    <TTGlyph name="glyph185" xMin="-606" yMin="-1200" xMax="380" yMax="2400">
      <contour>
        <pt x="-462" y="1994" on="1"/>
        <pt x="38" y="1994" on="1"/>
        <pt x="-59" y="2071" on="0"/>
        <pt x="-221" y="2116" on="0"/>
        <pt x="-312" y="2116" on="1"/>
        <pt x="-462" y="2116" on="0"/>
      </contour>
      <contour>
        <pt x="380" y="-950" on="1"/>
        <pt x="380" y="-1200" on="0"/>
        <pt x="0" y="-1200" on="1"/>
        <pt x="-380" y="-1200" on="0"/>
        <pt x="-380" y="-950" on="1"/>
        <pt x="-380" y="-700" on="1"/>
        <pt x="-200" y="-700" on="1"/>
        <pt x="-200" y="-950" on="1"/>
        <pt x="-200" y="-1080" on="0"/>
        <pt x="0" y="-1080" on="1"/>
        <pt x="200" y="-1080" on="0"/>
        <pt x="200" y="-950" on="1"/>
        <pt x="200" y="1700" on="1"/>
        <pt x="200" y="1850" on="0"/>
        <pt x="88" y="1850" on="1"/>
        <pt x="-462" y="1850" on="1"/>
        <pt x="-606" y="1850" on="0"/>
        <pt x="-606" y="1994" on="1"/>
        <pt x="-606" y="2250" on="0"/>
        <pt x="-312" y="2250" on="1"/>
        <pt x="-203" y="2250" on="0"/>
        <pt x="-96" y="2211" on="1"/>
        <pt x="-96" y="2400" on="1"/>
        <pt x="38" y="2400" on="1"/>
        <pt x="38" y="2300" on="1"/>
        <pt x="39" y="2147" on="1"/>
        <pt x="97" y="2112" on="0"/>
        <pt x="154" y="2066" on="1"/>
        <pt x="154" y="2350" on="1"/>
        <pt x="288" y="2350" on="1"/>
        <pt x="288" y="1947" on="1"/>
        <pt x="380" y="1876" on="0"/>
        <pt x="380" y="1700" on="1"/>
      </contour>
    </TTGlyph>
    <TTGlyph name="glyph186" xMin="-470" yMin="-1200" xMax="380" yMax="2461">
      <contour>
        <pt x="200" y="1640" on="1"/>
        <pt x="200" y="1930" on="0"/>
        <pt x="10" y="1930" on="1"/>
        <pt x="-100" y="1930" on="0"/>
        <pt x="-222" y="1804" on="0"/>
        <pt x="-264" y="1800" on="1"/>
        <pt x="-273" y="1800" on="1"/>
        <pt x="-310" y="1800" on="0"/>
        <pt x="-351" y="1830" on="1"/>
        <pt x="-420" y="1905" on="0"/>
        <pt x="-420" y="2021" on="1"/>
        <pt x="-420" y="2086" on="0"/>
        <pt x="-380" y="2221" on="0"/>
        <pt x="-380" y="2291" on="1"/>
        <pt x="-380" y="2361" on="0"/>
        <pt x="-470" y="2361" on="1"/>
        <pt x="-470" y="2461" on="0"/>
        <pt x="-370" y="2461" on="1"/>
        <pt x="-200" y="2461" on="0"/>
        <pt x="-200" y="2291" on="1"/>
        <pt x="-200" y="2206" on="0"/>
        <pt x="-252" y="2091" on="0"/>
        <pt x="-252" y="2021" on="1"/>
        <pt x="-252" y="1978" on="1"/>
        <pt x="-120" y="2050" on="0"/>
        <pt x="10" y="2050" on="1"/>
        <pt x="380" y="2050" on="0"/>
        <pt x="380" y="1640" on="1"/>
        <pt x="380" y="-950" on="1"/>
        <pt x="380" y="-1200" on="0"/>
        <pt x="0" y="-1200" on="1"/>
        <pt x="-380" y="-1200" on="0"/>
        <pt x="-380" y="-950" on="1"/>
        <pt x="-380" y="-700" on="1"/>
        <pt x="-200" y="-700" on="1"/>
        <pt x="-200" y="-950" on="1"/>
        <pt x="-200" y="-1080" on="0"/>
        <pt x="0" y="-1080" on="1"/>
        <pt x="200" y="-1080" on="0"/>
        <pt x="200" y="-950" on="1"/>
      </contour>
    </TTGlyph>
    <TTGlyph name="glyph187" xMin="-800" yMin="-1200" xMax="530" yMax="1500">
      <contour>
        <pt x="380" y="-981" on="1"/>
        <pt x="380" y="-1109" on="0"/>
        <pt x="237" y="-1200" on="0"/>
        <pt x="121" y="-1200" on="1"/>
        <pt x="5" y="-1200" on="0"/>
        <pt x="-65" y="-1187" on="1"/>
        <pt x="-134" y="-1174" on="0"/>
        <pt x="-152" y="-1150" on="1"/>
        <pt x="-169" y="-1174" on="0"/>
        <pt x="-223" y="-1187" on="1"/>
        <pt x="-277" y="-1200" on="0"/>
        <pt x="-375" y="-1200" on="1"/>
        <pt x="-525" y="-1200" on="0"/>
        <pt x="-600" y="-1154" on="1"/>
        <pt x="-675" y="-1109" on="0"/>
        <pt x="-675" y="-1018" on="1"/>
        <pt x="-675" y="-927" on="1"/>
        <pt x="-753" y="-927" on="0"/>
        <pt x="-800" y="-881" on="0"/>
        <pt x="-800" y="-831" on="1"/>
        <pt x="-800" y="-790" on="0"/>
        <pt x="-675" y="-700" on="1"/>
        <pt x="-507" y="-700" on="1"/>
        <pt x="-507" y="-982" on="1"/>
        <pt x="-507" y="-1109" on="0"/>
        <pt x="-375" y="-1109" on="1"/>
        <pt x="-234" y="-1109" on="0"/>
        <pt x="-234" y="-981" on="1"/>
        <pt x="-234" y="-700" on="1"/>
        <pt x="-66" y="-700" on="1"/>
        <pt x="-66" y="-981" on="1"/>
        <pt x="-66" y="-1109" on="0"/>
        <pt x="67" y="-1109" on="1"/>
        <pt x="200" y="-1109" on="0"/>
        <pt x="200" y="-981" on="1"/>
        <pt x="200" y="963" on="1"/>
        <pt x="200" y="1069" on="0"/>
        <pt x="0" y="1131" on="1"/>
        <pt x="20" y="1232" on="0"/>
        <pt x="171" y="1500" on="0"/>
        <pt x="225" y="1500" on="1"/>
        <pt x="269" y="1500" on="0"/>
        <pt x="340" y="1457" on="1"/>
        <pt x="410" y="1414" on="1"/>
        <pt x="441" y="1395" on="0"/>
        <pt x="483" y="1395" on="1"/>
        <pt x="505" y="1395" on="0"/>
        <pt x="530" y="1400" on="1"/>
        <pt x="520" y="1330" on="0"/>
        <pt x="459" y="1241" on="0"/>
        <pt x="408" y="1236" on="1"/>
        <pt x="403" y="1235" on="0"/>
        <pt x="398" y="1235" on="1"/>
        <pt x="348" y="1235" on="0"/>
        <pt x="263" y="1288" on="1"/>
        <pt x="237" y="1303" on="0"/>
        <pt x="215" y="1303" on="1"/>
        <pt x="152" y="1303" on="0"/>
        <pt x="106" y="1188" on="1"/>
        <pt x="380" y="1100" on="0"/>
        <pt x="380" y="1020" on="1"/>
      </contour>
    </TTGlyph>
    <TTGlyph name="glyph188" xMin="-1067" yMin="-1200" xMax="530" yMax="1500">
      <contour>
        <pt x="380" y="-981" on="1"/>
        <pt x="380" y="-1109" on="0"/>
        <pt x="237" y="-1200" on="0"/>
        <pt x="95" y="-1200" on="1"/>
        <pt x="15" y="-1200" on="0"/>
        <pt x="-55" y="-1187" on="1"/>
        <pt x="-124" y="-1174" on="0"/>
        <pt x="-142" y="-1150" on="1"/>
        <pt x="-159" y="-1174" on="0"/>
        <pt x="-213" y="-1187" on="1"/>
        <pt x="-267" y="-1200" on="0"/>
        <pt x="-365" y="-1200" on="1"/>
        <pt x="-515" y="-1200" on="0"/>
        <pt x="-655" y="-1109" on="0"/>
        <pt x="-655" y="-972" on="1"/>
        <pt x="-655" y="-900" on="1"/>
        <pt x="-655" y="-790" on="0"/>
        <pt x="-777" y="-790" on="1"/>
        <pt x="-899" y="-790" on="0"/>
        <pt x="-899" y="-900" on="1"/>
        <pt x="-899" y="-972" on="1"/>
        <pt x="-874" y="-972" on="1"/>
        <pt x="-799" y="-972" on="0"/>
        <pt x="-799" y="-1018" on="1"/>
        <pt x="-799" y="-1061" on="0"/>
        <pt x="-849" y="-1131" on="1"/>
        <pt x="-899" y="-1200" on="0"/>
        <pt x="-1002" y="-1200" on="1"/>
        <pt x="-1067" y="-1200" on="0"/>
        <pt x="-1067" y="-1109" on="1"/>
        <pt x="-1067" y="-899" on="1"/>
        <pt x="-1067" y="-790" on="0"/>
        <pt x="-927" y="-700" on="0"/>
        <pt x="-777" y="-700" on="1"/>
        <pt x="-627" y="-700" on="0"/>
        <pt x="-552" y="-745" on="1"/>
        <pt x="-487" y="-790" on="0"/>
        <pt x="-487" y="-900" on="1"/>
        <pt x="-487" y="-982" on="1"/>
        <pt x="-487" y="-1109" on="0"/>
        <pt x="-365" y="-1109" on="1"/>
        <pt x="-224" y="-1109" on="0"/>
        <pt x="-224" y="-981" on="1"/>
        <pt x="-224" y="-700" on="1"/>
        <pt x="-56" y="-700" on="1"/>
        <pt x="-56" y="-981" on="1"/>
        <pt x="-56" y="-1109" on="0"/>
        <pt x="95" y="-1109" on="1"/>
        <pt x="200" y="-1109" on="0"/>
        <pt x="200" y="-981" on="1"/>
        <pt x="200" y="963" on="1"/>
        <pt x="200" y="1069" on="0"/>
        <pt x="0" y="1131" on="1"/>
        <pt x="20" y="1232" on="0"/>
        <pt x="171" y="1500" on="0"/>
        <pt x="225" y="1500" on="1"/>
        <pt x="269" y="1500" on="0"/>
        <pt x="340" y="1457" on="1"/>
        <pt x="410" y="1414" on="1"/>
        <pt x="441" y="1395" on="0"/>
        <pt x="483" y="1395" on="1"/>
        <pt x="505" y="1395" on="0"/>
        <pt x="530" y="1400" on="1"/>
        <pt x="520" y="1330" on="0"/>
        <pt x="459" y="1241" on="0"/>
        <pt x="408" y="1236" on="1"/>
        <pt x="403" y="1235" on="0"/>
        <pt x="398" y="1235" on="1"/>
        <pt x="348" y="1235" on="0"/>
        <pt x="263" y="1288" on="1"/>
        <pt x="237" y="1303" on="0"/>
        <pt x="215" y="1303" on="1"/>
        <pt x="152" y="1303" on="0"/>
        <pt x="106" y="1188" on="1"/>
        <pt x="380" y="1100" on="0"/>
        <pt x="380" y="1020" on="1"/>
      </contour>
    </TTGlyph>
    <TTGlyph name="glyph189" xMin="-1130" yMin="-1200" xMax="530" yMax="1500">
      <contour>
        <pt x="-952" y="-1054" on="1"/>
        <pt x="-952" y="-1116" on="1"/>
        <pt x="-911" y="-1116" on="0"/>
        <pt x="-911" y="-1075" on="1"/>
        <pt x="-911" y="-1065" on="0"/>
        <pt x="-922" y="-1059" on="1"/>
        <pt x="-932" y="-1054" on="0"/>
      </contour>
      <contour>
        <pt x="380" y="-990" on="1"/>
        <pt x="380" y="-1200" on="0"/>
        <pt x="105" y="-1200" on="1"/>
        <pt x="-45" y="-1200" on="0"/>
        <pt x="-195" y="-1016" on="0"/>
        <pt x="-245" y="-1016" on="1"/>
        <pt x="-270" y="-1016" on="1"/>
        <pt x="-270" y="-1100" on="1"/>
        <pt x="-270" y="-1200" on="0"/>
        <pt x="-375" y="-1200" on="1"/>
        <pt x="-440" y="-1200" on="0"/>
        <pt x="-540" y="-1058" on="0"/>
        <pt x="-540" y="-1016" on="1"/>
        <pt x="-540" y="-975" on="0"/>
        <pt x="-515" y="-954" on="1"/>
        <pt x="-491" y="-934" on="0"/>
        <pt x="-446" y="-933" on="1"/>
        <pt x="-447" y="-933" on="1"/>
        <pt x="-447" y="-880" on="0"/>
        <pt x="-510" y="-844" on="1"/>
        <pt x="-524" y="-837" on="0"/>
        <pt x="-541" y="-837" on="1"/>
        <pt x="-601" y="-837" on="0"/>
        <pt x="-699" y="-934" on="1"/>
        <pt x="-798" y="-837" on="0"/>
        <pt x="-858" y="-837" on="1"/>
        <pt x="-875" y="-837" on="0"/>
        <pt x="-889" y="-844" on="1"/>
        <pt x="-952" y="-880" on="0"/>
        <pt x="-952" y="-933" on="1"/>
        <pt x="-952" y="-970" on="1"/>
        <pt x="-889" y="-970" on="0"/>
        <pt x="-858" y="-996" on="1"/>
        <pt x="-827" y="-1023" on="0"/>
        <pt x="-827" y="-1075" on="1"/>
        <pt x="-827" y="-1200" on="0"/>
        <pt x="-952" y="-1200" on="1"/>
        <pt x="-1130" y="-1200" on="0"/>
        <pt x="-1130" y="-1116" on="1"/>
        <pt x="-1130" y="-933" on="1"/>
        <pt x="-1130" y="-831" on="0"/>
        <pt x="-915" y="-700" on="0"/>
        <pt x="-862" y="-700" on="1"/>
        <pt x="-818" y="-700" on="0"/>
        <pt x="-699" y="-795" on="1"/>
        <pt x="-580" y="-700" on="0"/>
        <pt x="-536" y="-700" on="1"/>
        <pt x="-484" y="-700" on="0"/>
        <pt x="-270" y="-831" on="0"/>
        <pt x="-270" y="-933" on="1"/>
        <pt x="-245" y="-933" on="1"/>
        <pt x="-165" y="-933" on="0"/>
        <pt x="-5" y="-1116" on="0"/>
        <pt x="105" y="-1116" on="1"/>
        <pt x="200" y="-1116" on="0"/>
        <pt x="200" y="-990" on="1"/>
        <pt x="200" y="963" on="1"/>
        <pt x="200" y="1069" on="0"/>
        <pt x="0" y="1131" on="1"/>
        <pt x="20" y="1232" on="0"/>
        <pt x="171" y="1500" on="0"/>
        <pt x="225" y="1500" on="1"/>
        <pt x="269" y="1500" on="0"/>
        <pt x="340" y="1457" on="1"/>
        <pt x="410" y="1414" on="1"/>
        <pt x="441" y="1395" on="0"/>
        <pt x="483" y="1395" on="1"/>
        <pt x="505" y="1395" on="0"/>
        <pt x="530" y="1400" on="1"/>
        <pt x="520" y="1330" on="0"/>
        <pt x="459" y="1241" on="0"/>
        <pt x="408" y="1236" on="1"/>
        <pt x="403" y="1235" on="0"/>
        <pt x="398" y="1235" on="1"/>
        <pt x="348" y="1235" on="0"/>
        <pt x="263" y="1288" on="1"/>
        <pt x="237" y="1303" on="0"/>
        <pt x="215" y="1303" on="1"/>
        <pt x="152" y="1303" on="0"/>
        <pt x="106" y="1188" on="1"/>
        <pt x="380" y="1100" on="0"/>
        <pt x="380" y="1020" on="1"/>
      </contour>
    </TTGlyph>
    <TTGlyph name="glyph190" xMin="-418" yMin="-1200" xMax="530" yMax="1500">
      <contour>
        <pt x="380" y="-1109" on="1"/>
        <pt x="380" y="-1200" on="0"/>
        <pt x="300" y="-1200" on="1"/>
        <pt x="200" y="-1200" on="0"/>
        <pt x="138" y="-1142" on="1"/>
        <pt x="-24" y="-994" on="1"/>
        <pt x="-187" y="-1142" on="1"/>
        <pt x="-250" y="-1200" on="0"/>
        <pt x="-350" y="-1200" on="1"/>
        <pt x="-418" y="-1200" on="0"/>
        <pt x="-418" y="-1109" on="1"/>
        <pt x="-418" y="-836" on="1"/>
        <pt x="-418" y="-700" on="0"/>
        <pt x="-264" y="-700" on="1"/>
        <pt x="-210" y="-700" on="0"/>
        <pt x="-138" y="-736" on="0"/>
        <pt x="-138" y="-781" on="1"/>
        <pt x="-138" y="-872" on="0"/>
        <pt x="-250" y="-927" on="1"/>
        <pt x="-250" y="-1070" on="1"/>
        <pt x="-50" y="-889" on="1"/>
        <pt x="-37" y="-877" on="0"/>
        <pt x="-25" y="-877" on="1"/>
        <pt x="-12" y="-877" on="0"/>
        <pt x="0" y="-889" on="1"/>
        <pt x="200" y="-1070" on="1"/>
        <pt x="200" y="963" on="1"/>
        <pt x="200" y="1069" on="0"/>
        <pt x="0" y="1131" on="1"/>
        <pt x="20" y="1232" on="0"/>
        <pt x="171" y="1500" on="0"/>
        <pt x="225" y="1500" on="1"/>
        <pt x="269" y="1500" on="0"/>
        <pt x="340" y="1457" on="1"/>
        <pt x="410" y="1414" on="1"/>
        <pt x="441" y="1395" on="0"/>
        <pt x="483" y="1395" on="1"/>
        <pt x="505" y="1395" on="0"/>
        <pt x="530" y="1400" on="1"/>
        <pt x="520" y="1330" on="0"/>
        <pt x="459" y="1241" on="0"/>
        <pt x="408" y="1236" on="1"/>
        <pt x="403" y="1235" on="0"/>
        <pt x="398" y="1235" on="1"/>
        <pt x="348" y="1235" on="0"/>
        <pt x="263" y="1288" on="1"/>
        <pt x="237" y="1303" on="0"/>
        <pt x="215" y="1303" on="1"/>
        <pt x="152" y="1303" on="0"/>
        <pt x="106" y="1188" on="1"/>
        <pt x="380" y="1100" on="0"/>
        <pt x="380" y="1020" on="1"/>
      </contour>
    </TTGlyph>
    <TTGlyph name="glyph191" xMin="-418" yMin="-1200" xMax="530" yMax="1500">
      <contour>
        <pt x="380" y="-972" on="1"/>
        <pt x="380" y="-1200" on="0"/>
        <pt x="-25" y="-1200" on="1"/>
        <pt x="-418" y="-1200" on="0"/>
        <pt x="-418" y="-972" on="1"/>
        <pt x="-418" y="-790" on="1"/>
        <pt x="-418" y="-700" on="0"/>
        <pt x="-314" y="-700" on="1"/>
        <pt x="-250" y="-700" on="0"/>
        <pt x="-194" y="-749" on="1"/>
        <pt x="-138" y="-799" on="0"/>
        <pt x="-138" y="-844" on="1"/>
        <pt x="-138" y="-926" on="0"/>
        <pt x="-250" y="-926" on="1"/>
        <pt x="-250" y="-972" on="1"/>
        <pt x="-250" y="-1109" on="0"/>
        <pt x="-25" y="-1109" on="1"/>
        <pt x="200" y="-1109" on="0"/>
        <pt x="200" y="-972" on="1"/>
        <pt x="200" y="963" on="1"/>
        <pt x="200" y="1069" on="0"/>
        <pt x="0" y="1131" on="1"/>
        <pt x="20" y="1232" on="0"/>
        <pt x="171" y="1500" on="0"/>
        <pt x="225" y="1500" on="1"/>
        <pt x="269" y="1500" on="0"/>
        <pt x="340" y="1457" on="1"/>
        <pt x="410" y="1414" on="1"/>
        <pt x="441" y="1395" on="0"/>
        <pt x="483" y="1395" on="1"/>
        <pt x="505" y="1395" on="0"/>
        <pt x="530" y="1400" on="1"/>
        <pt x="520" y="1330" on="0"/>
        <pt x="459" y="1241" on="0"/>
        <pt x="408" y="1236" on="1"/>
        <pt x="403" y="1235" on="0"/>
        <pt x="398" y="1235" on="1"/>
        <pt x="348" y="1235" on="0"/>
        <pt x="263" y="1288" on="1"/>
        <pt x="237" y="1303" on="0"/>
        <pt x="215" y="1303" on="1"/>
        <pt x="152" y="1303" on="0"/>
        <pt x="106" y="1188" on="1"/>
        <pt x="380" y="1100" on="0"/>
        <pt x="380" y="1020" on="1"/>
      </contour>
    </TTGlyph>
    <TTGlyph name="glyph192" xMin="0" yMin="-1200" xMax="960" yMax="1500">
      <contour>
        <pt x="380" y="-950" on="1"/>
        <pt x="380" y="-1100" on="0"/>
        <pt x="580" y="-1100" on="1"/>
        <pt x="780" y="-1100" on="0"/>
        <pt x="780" y="-950" on="1"/>
        <pt x="780" y="-700" on="1"/>
        <pt x="960" y="-700" on="1"/>
        <pt x="960" y="-950" on="1"/>
        <pt x="960" y="-1200" on="0"/>
        <pt x="580" y="-1200" on="1"/>
        <pt x="200" y="-1200" on="0"/>
        <pt x="200" y="-950" on="1"/>
        <pt x="200" y="963" on="1"/>
        <pt x="200" y="1069" on="0"/>
        <pt x="0" y="1131" on="1"/>
        <pt x="20" y="1232" on="0"/>
        <pt x="171" y="1500" on="0"/>
        <pt x="225" y="1500" on="1"/>
        <pt x="269" y="1500" on="0"/>
        <pt x="340" y="1457" on="1"/>
        <pt x="410" y="1414" on="1"/>
        <pt x="441" y="1395" on="0"/>
        <pt x="483" y="1395" on="1"/>
        <pt x="505" y="1395" on="0"/>
        <pt x="530" y="1400" on="1"/>
        <pt x="520" y="1330" on="0"/>
        <pt x="459" y="1241" on="0"/>
        <pt x="408" y="1236" on="1"/>
        <pt x="403" y="1235" on="0"/>
        <pt x="398" y="1235" on="1"/>
        <pt x="348" y="1235" on="0"/>
        <pt x="263" y="1288" on="1"/>
        <pt x="237" y="1303" on="0"/>
        <pt x="215" y="1303" on="1"/>
        <pt x="152" y="1303" on="0"/>
        <pt x="106" y="1188" on="1"/>
        <pt x="380" y="1100" on="0"/>
        <pt x="380" y="1020" on="1"/>
      </contour>
    </TTGlyph>
    <TTGlyph name="glyph193" xMin="-530" yMin="-1200" xMax="530" yMax="1500">
      <contour>
        <pt x="380" y="-972" on="1"/>
        <pt x="380" y="-1200" on="0"/>
        <pt x="-19" y="-1200" on="1"/>
        <pt x="-418" y="-1200" on="0"/>
        <pt x="-418" y="-972" on="1"/>
        <pt x="-418" y="-927" on="1"/>
        <pt x="-530" y="-927" on="0"/>
        <pt x="-530" y="-845" on="1"/>
        <pt x="-530" y="-800" on="0"/>
        <pt x="-474" y="-750" on="1"/>
        <pt x="-418" y="-700" on="0"/>
        <pt x="-354" y="-700" on="1"/>
        <pt x="-250" y="-700" on="0"/>
        <pt x="-250" y="-790" on="1"/>
        <pt x="-250" y="-972" on="1"/>
        <pt x="-250" y="-1109" on="0"/>
        <pt x="-25" y="-1109" on="1"/>
        <pt x="200" y="-1109" on="0"/>
        <pt x="200" y="-972" on="1"/>
        <pt x="200" y="0" on="1"/>
        <pt x="50" y="0" on="1"/>
        <pt x="50" y="100" on="1"/>
        <pt x="200" y="100" on="1"/>
        <pt x="200" y="963" on="1"/>
        <pt x="200" y="1069" on="0"/>
        <pt x="0" y="1131" on="1"/>
        <pt x="20" y="1232" on="0"/>
        <pt x="171" y="1500" on="0"/>
        <pt x="225" y="1500" on="1"/>
        <pt x="269" y="1500" on="0"/>
        <pt x="340" y="1457" on="1"/>
        <pt x="410" y="1414" on="1"/>
        <pt x="441" y="1395" on="0"/>
        <pt x="483" y="1395" on="1"/>
        <pt x="505" y="1395" on="0"/>
        <pt x="530" y="1400" on="1"/>
        <pt x="520" y="1330" on="0"/>
        <pt x="459" y="1241" on="0"/>
        <pt x="408" y="1236" on="1"/>
        <pt x="403" y="1235" on="0"/>
        <pt x="398" y="1235" on="1"/>
        <pt x="348" y="1235" on="0"/>
        <pt x="263" y="1288" on="1"/>
        <pt x="237" y="1303" on="0"/>
        <pt x="215" y="1303" on="1"/>
        <pt x="152" y="1303" on="0"/>
        <pt x="106" y="1188" on="1"/>
        <pt x="380" y="1100" on="0"/>
        <pt x="380" y="1020" on="1"/>
        <pt x="380" y="100" on="1"/>
        <pt x="530" y="100" on="1"/>
        <pt x="530" y="0" on="1"/>
        <pt x="380" y="0" on="1"/>
      </contour>
    </TTGlyph>
    <TTGlyph name="glyph194" xMin="-900" yMin="1850" xMax="0" yMax="2250">
      <contour>
        <pt x="-900" y="2000" on="1"/>
        <pt x="-900" y="2250" on="0"/>
        <pt x="-600" y="2250" on="1"/>
        <pt x="-340" y="2250" on="0"/>
        <pt x="-85" y="2025" on="1"/>
        <pt x="0" y="1950" on="0"/>
        <pt x="0" y="1900" on="1"/>
        <pt x="0" y="1850" on="0"/>
        <pt x="-100" y="1850" on="1"/>
        <pt x="-700" y="1850" on="1"/>
        <pt x="-900" y="1850" on="0"/>
      </contour>
      <contour>
        <pt x="-750" y="2000" on="1"/>
        <pt x="-750" y="1950" on="0"/>
        <pt x="-700" y="1950" on="1"/>
        <pt x="-180" y="1950" on="1"/>
        <pt x="-310" y="2047" on="0"/>
        <pt x="-489" y="2100" on="0"/>
        <pt x="-600" y="2100" on="1"/>
        <pt x="-750" y="2100" on="0"/>
      </contour>
    </TTGlyph>
    <TTGlyph name="glyph195" xMin="-900" yMin="1850" xMax="0" yMax="2350">
      <contour>
        <pt x="-750" y="2000" on="1"/>
        <pt x="-750" y="1950" on="0"/>
        <pt x="-700" y="1950" on="1"/>
        <pt x="-180" y="1950" on="1"/>
        <pt x="-310" y="2047" on="0"/>
        <pt x="-489" y="2100" on="0"/>
        <pt x="-600" y="2100" on="1"/>
        <pt x="-750" y="2100" on="0"/>
      </contour>
      <contour>
        <pt x="-134" y="2066" on="1"/>
        <pt x="-134" y="2350" on="1"/>
        <pt x="0" y="2350" on="1"/>
        <pt x="0" y="1900" on="1"/>
        <pt x="0" y="1850" on="0"/>
        <pt x="-100" y="1850" on="1"/>
        <pt x="-700" y="1850" on="1"/>
        <pt x="-900" y="1850" on="0"/>
        <pt x="-900" y="2000" on="1"/>
        <pt x="-900" y="2250" on="0"/>
        <pt x="-600" y="2250" on="1"/>
        <pt x="-364" y="2250" on="0"/>
      </contour>
    </TTGlyph>
    <TTGlyph name="glyph196" xMin="-900" yMin="1850" xMax="0" yMax="2350">
      <contour>
        <pt x="-750" y="2000" on="1"/>
        <pt x="-750" y="1950" on="0"/>
        <pt x="-700" y="1950" on="1"/>
        <pt x="-180" y="1950" on="1"/>
        <pt x="-324" y="2035" on="0"/>
        <pt x="-519" y="2100" on="0"/>
        <pt x="-620" y="2100" on="1"/>
        <pt x="-750" y="2100" on="0"/>
      </contour>
      <contour>
        <pt x="-396" y="2195" on="1"/>
        <pt x="-396" y="2199" on="1"/>
        <pt x="-385" y="2274" on="0"/>
        <pt x="-336" y="2312" on="1"/>
        <pt x="-286" y="2350" on="0"/>
        <pt x="-200" y="2350" on="1"/>
        <pt x="-100" y="2350" on="0"/>
        <pt x="-50" y="2300" on="1"/>
        <pt x="0" y="2250" on="0"/>
        <pt x="0" y="2150" on="1"/>
        <pt x="0" y="2035" on="0"/>
        <pt x="-66" y="1986" on="1"/>
        <pt x="-68" y="1984" on="1"/>
        <pt x="0" y="1927" on="0"/>
        <pt x="0" y="1900" on="1"/>
        <pt x="0" y="1850" on="0"/>
        <pt x="-100" y="1850" on="1"/>
        <pt x="-700" y="1850" on="1"/>
        <pt x="-900" y="1850" on="0"/>
        <pt x="-900" y="2000" on="1"/>
        <pt x="-900" y="2250" on="0"/>
        <pt x="-620" y="2250" on="1"/>
        <pt x="-512" y="2250" on="0"/>
      </contour>
      <contour>
        <pt x="-279" y="2131" on="1"/>
        <pt x="-255" y="2116" on="0"/>
        <pt x="-230" y="2100" on="1"/>
        <pt x="-206" y="2085" on="0"/>
        <pt x="-185" y="2070" on="1"/>
        <pt x="-120" y="2078" on="0"/>
        <pt x="-120" y="2150" on="1"/>
        <pt x="-120" y="2230" on="0"/>
        <pt x="-200" y="2230" on="1"/>
        <pt x="-280" y="2230" on="0"/>
        <pt x="-280" y="2150" on="1"/>
        <pt x="-280" y="2144" on="0"/>
      </contour>
    </TTGlyph>
    <TTGlyph name="glyph197" xMin="-900" yMin="1850" xMax="0" yMax="2350">
      <contour>
        <pt x="-750" y="2000" on="1"/>
        <pt x="-750" y="1950" on="0"/>
        <pt x="-700" y="1950" on="1"/>
        <pt x="-180" y="1950" on="1"/>
        <pt x="-310" y="2047" on="0"/>
        <pt x="-489" y="2100" on="0"/>
        <pt x="-600" y="2100" on="1"/>
        <pt x="-750" y="2100" on="0"/>
      </contour>
      <contour>
        <pt x="-384" y="2211" on="1"/>
        <pt x="-384" y="2350" on="1"/>
        <pt x="-250" y="2350" on="1"/>
        <pt x="-250" y="2147" on="1"/>
        <pt x="-191" y="2112" on="0"/>
        <pt x="-134" y="2066" on="1"/>
        <pt x="-134" y="2350" on="1"/>
        <pt x="0" y="2350" on="1"/>
        <pt x="0" y="1900" on="1"/>
        <pt x="0" y="1850" on="0"/>
        <pt x="-100" y="1850" on="1"/>
        <pt x="-700" y="1850" on="1"/>
        <pt x="-900" y="1850" on="0"/>
        <pt x="-900" y="2000" on="1"/>
        <pt x="-900" y="2250" on="0"/>
        <pt x="-600" y="2250" on="1"/>
        <pt x="-491" y="2250" on="0"/>
      </contour>
    </TTGlyph>
    <TTGlyph name="glyph198" xMin="-650" yMin="1800" xMax="-200" yMax="2250">
      <contour>
        <pt x="-505" y="2025" on="1"/>
        <pt x="-505" y="1975" on="0"/>
        <pt x="-465" y="1925" on="0"/>
        <pt x="-425" y="1925" on="1"/>
        <pt x="-385" y="1925" on="0"/>
        <pt x="-345" y="1975" on="0"/>
        <pt x="-345" y="2025" on="1"/>
        <pt x="-345" y="2075" on="0"/>
        <pt x="-385" y="2125" on="0"/>
        <pt x="-425" y="2125" on="1"/>
        <pt x="-465" y="2125" on="0"/>
        <pt x="-505" y="2075" on="0"/>
      </contour>
      <contour>
        <pt x="-200" y="2025" on="1"/>
        <pt x="-200" y="1912" on="0"/>
        <pt x="-256" y="1856" on="1"/>
        <pt x="-312" y="1800" on="0"/>
        <pt x="-425" y="1800" on="1"/>
        <pt x="-538" y="1800" on="0"/>
        <pt x="-594" y="1856" on="1"/>
        <pt x="-650" y="1912" on="0"/>
        <pt x="-650" y="2025" on="1"/>
        <pt x="-650" y="2138" on="0"/>
        <pt x="-594" y="2194" on="1"/>
        <pt x="-538" y="2250" on="0"/>
        <pt x="-425" y="2250" on="1"/>
        <pt x="-312" y="2250" on="0"/>
        <pt x="-256" y="2194" on="1"/>
        <pt x="-200" y="2138" on="0"/>
      </contour>
    </TTGlyph>
    <TTGlyph name="glyph199" xMin="-670" yMin="1800" xMax="-180" yMax="2250">
      <contour>
        <pt x="-505" y="2250" on="1"/>
        <pt x="-505" y="1910" on="1"/>
        <pt x="-505" y="1830" on="0"/>
        <pt x="-587" y="1800" on="1"/>
        <pt x="-670" y="1830" on="0"/>
        <pt x="-670" y="1910" on="1"/>
        <pt x="-670" y="2250" on="1"/>
      </contour>
      <contour>
        <pt x="-180" y="2250" on="1"/>
        <pt x="-180" y="1910" on="1"/>
        <pt x="-180" y="1830" on="0"/>
        <pt x="-262" y="1800" on="1"/>
        <pt x="-345" y="1830" on="0"/>
        <pt x="-345" y="1910" on="1"/>
        <pt x="-345" y="2250" on="1"/>
      </contour>
    </TTGlyph>
    <TTGlyph name="glyph200" xMin="-710" yMin="1800" xMax="0" yMax="2297">
      <contour>
        <pt x="-560" y="1976" on="1"/>
        <pt x="-560" y="1938" on="0"/>
        <pt x="-548" y="1920" on="1"/>
        <pt x="-535" y="1901" on="0"/>
        <pt x="-500" y="1901" on="1"/>
        <pt x="-450" y="1901" on="0"/>
        <pt x="-450" y="1919" on="1"/>
        <pt x="-450" y="1950" on="0"/>
        <pt x="-380" y="1950" on="1"/>
        <pt x="-310" y="1950" on="0"/>
        <pt x="-310" y="1919" on="1"/>
        <pt x="-310" y="1860" on="0"/>
        <pt x="-354" y="1830" on="1"/>
        <pt x="-398" y="1800" on="0"/>
        <pt x="-495" y="1800" on="1"/>
        <pt x="-622" y="1800" on="0"/>
        <pt x="-666" y="1844" on="1"/>
        <pt x="-710" y="1888" on="0"/>
        <pt x="-710" y="1975" on="1"/>
        <pt x="-710" y="2052" on="0"/>
        <pt x="-665" y="2111" on="1"/>
        <pt x="-620" y="2170" on="0"/>
        <pt x="-490" y="2170" on="1"/>
        <pt x="-363" y="2170" on="0"/>
        <pt x="-315" y="2111" on="1"/>
        <pt x="-239" y="2136" on="0"/>
        <pt x="-174" y="2180" on="1"/>
        <pt x="-110" y="2223" on="0"/>
        <pt x="-68" y="2295" on="1"/>
        <pt x="-57" y="2297" on="1"/>
        <pt x="-38" y="2297" on="0"/>
        <pt x="-15" y="2268" on="1"/>
        <pt x="0" y="2248" on="0"/>
        <pt x="0" y="2234" on="1"/>
        <pt x="0" y="2220" on="0"/>
        <pt x="-12" y="2210" on="1"/>
        <pt x="-57" y="2147" on="0"/>
        <pt x="-117" y="2097" on="1"/>
        <pt x="-178" y="2048" on="0"/>
        <pt x="-253" y="2011" on="1"/>
        <pt x="-289" y="2000" on="0"/>
        <pt x="-323" y="2000" on="1"/>
        <pt x="-397" y="2070" on="0"/>
        <pt x="-460" y="2070" on="1"/>
        <pt x="-505" y="2070" on="0"/>
        <pt x="-532" y="2042" on="1"/>
        <pt x="-560" y="2013" on="0"/>
      </contour>
    </TTGlyph>
    <TTGlyph name="glyph201" xMin="-894" yMin="1800" xMax="355" yMax="2437">
      <contour>
        <pt x="-750" y="1944" on="1"/>
        <pt x="-250" y="1944" on="1"/>
        <pt x="-347" y="2021" on="0"/>
        <pt x="-509" y="2066" on="0"/>
        <pt x="-600" y="2066" on="1"/>
        <pt x="-750" y="2066" on="0"/>
      </contour>
      <contour>
        <pt x="-56" y="1948" on="1"/>
        <pt x="0" y="1891" on="0"/>
        <pt x="0" y="1850" on="1"/>
        <pt x="0" y="1800" on="0"/>
        <pt x="-100" y="1800" on="1"/>
        <pt x="-750" y="1800" on="1"/>
        <pt x="-894" y="1800" on="0"/>
        <pt x="-894" y="1944" on="1"/>
        <pt x="-894" y="2200" on="0"/>
        <pt x="-600" y="2200" on="1"/>
        <pt x="-475" y="2200" on="0"/>
        <pt x="-352" y="2149" on="1"/>
        <pt x="-344" y="2205" on="0"/>
        <pt x="-310" y="2251" on="1"/>
        <pt x="-265" y="2310" on="0"/>
        <pt x="-135" y="2310" on="1"/>
        <pt x="-8" y="2310" on="0"/>
        <pt x="40" y="2251" on="1"/>
        <pt x="116" y="2276" on="0"/>
        <pt x="181" y="2320" on="1"/>
        <pt x="245" y="2363" on="0"/>
        <pt x="287" y="2435" on="1"/>
        <pt x="298" y="2437" on="1"/>
        <pt x="317" y="2437" on="0"/>
        <pt x="340" y="2408" on="1"/>
        <pt x="355" y="2388" on="0"/>
        <pt x="355" y="2374" on="1"/>
        <pt x="355" y="2360" on="0"/>
        <pt x="343" y="2350" on="1"/>
        <pt x="298" y="2287" on="0"/>
        <pt x="238" y="2237" on="1"/>
        <pt x="177" y="2188" on="0"/>
        <pt x="102" y="2151" on="1"/>
        <pt x="66" y="2140" on="0"/>
        <pt x="32" y="2140" on="1"/>
        <pt x="-42" y="2210" on="0"/>
        <pt x="-105" y="2210" on="1"/>
        <pt x="-150" y="2210" on="0"/>
        <pt x="-177" y="2182" on="1"/>
        <pt x="-205" y="2153" on="0"/>
        <pt x="-205" y="2116" on="1"/>
        <pt x="-205" y="2088" on="0"/>
        <pt x="-194" y="2061" on="1"/>
        <pt x="-180" y="2051" on="0"/>
        <pt x="-166" y="2041" on="1"/>
        <pt x="-95" y="2043" on="0"/>
        <pt x="-95" y="2059" on="1"/>
        <pt x="-95" y="2090" on="0"/>
        <pt x="-25" y="2090" on="1"/>
        <pt x="45" y="2090" on="0"/>
        <pt x="45" y="2059" on="1"/>
        <pt x="45" y="2000" on="0"/>
        <pt x="1" y="1970" on="1"/>
        <pt x="-19" y="1956" on="0"/>
      </contour>
    </TTGlyph>
    <TTGlyph name="glyph202" xMin="-800" yMin="-650" xMax="0" yMax="-100">
      <contour>
        <pt x="-400" y="-200" on="1"/>
        <pt x="-505" y="-200" on="0"/>
        <pt x="-650" y="-270" on="0"/>
        <pt x="-650" y="-350" on="1"/>
        <pt x="-650" y="-650" on="1"/>
        <pt x="-800" y="-650" on="1"/>
        <pt x="-800" y="-350" on="1"/>
        <pt x="-800" y="-220" on="0"/>
        <pt x="-580" y="-100" on="0"/>
        <pt x="-400" y="-100" on="1"/>
        <pt x="-220" y="-100" on="0"/>
        <pt x="0" y="-220" on="0"/>
        <pt x="0" y="-350" on="1"/>
        <pt x="0" y="-650" on="1"/>
        <pt x="-150" y="-650" on="1"/>
        <pt x="-150" y="-350" on="1"/>
        <pt x="-150" y="-270" on="0"/>
        <pt x="-295" y="-200" on="0"/>
      </contour>
    </TTGlyph>
    <TTGlyph name="glyph203" xMin="-800" yMin="-650" xMax="0" yMax="-50">
      <contour>
        <pt x="-400" y="-650" on="1"/>
        <pt x="-600" y="-650" on="0"/>
        <pt x="-700" y="-603" on="1"/>
        <pt x="-800" y="-557" on="0"/>
        <pt x="-800" y="-465" on="1"/>
        <pt x="-800" y="-387" on="0"/>
        <pt x="-733" y="-378" on="1"/>
        <pt x="-418" y="-333" on="1"/>
        <pt x="-282" y="-315" on="0"/>
        <pt x="-218" y="-283" on="1"/>
        <pt x="-153" y="-253" on="0"/>
        <pt x="-153" y="-216" on="1"/>
        <pt x="-153" y="-178" on="0"/>
        <pt x="-215" y="-160" on="1"/>
        <pt x="-276" y="-141" on="0"/>
        <pt x="-400" y="-141" on="1"/>
        <pt x="-566" y="-141" on="0"/>
        <pt x="-606" y="-170" on="1"/>
        <pt x="-650" y="-202" on="0"/>
        <pt x="-650" y="-280" on="1"/>
        <pt x="-800" y="-280" on="0"/>
        <pt x="-800" y="-188" on="1"/>
        <pt x="-800" y="-119" on="0"/>
        <pt x="-700" y="-84" on="1"/>
        <pt x="-600" y="-50" on="0"/>
        <pt x="-400" y="-50" on="1"/>
        <pt x="-200" y="-50" on="0"/>
        <pt x="-100" y="-92" on="1"/>
        <pt x="0" y="-135" on="0"/>
        <pt x="0" y="-221" on="1"/>
        <pt x="0" y="-297" on="0"/>
        <pt x="-87" y="-347" on="1"/>
        <pt x="-174" y="-398" on="0"/>
        <pt x="-348" y="-421" on="1"/>
        <pt x="-651" y="-463" on="1"/>
        <pt x="-651" y="-510" on="0"/>
        <pt x="-588" y="-533" on="1"/>
        <pt x="-526" y="-557" on="0"/>
        <pt x="-400" y="-557" on="1"/>
        <pt x="-275" y="-557" on="0"/>
        <pt x="-212" y="-529" on="1"/>
        <pt x="-150" y="-502" on="0"/>
        <pt x="-150" y="-450" on="1"/>
        <pt x="0" y="-450" on="1"/>
        <pt x="0" y="-529" on="0"/>
        <pt x="-100" y="-589" on="1"/>
        <pt x="-200" y="-650" on="0"/>
      </contour>
    </TTGlyph>
    <TTGlyph name="glyph204" xMin="-800" yMin="-650" xMax="0" yMax="-100">
      <contour>
        <pt x="-650" y="-500" on="1"/>
        <pt x="-549" y="-400" on="1"/>
        <pt x="-449" y="-300" on="0"/>
        <pt x="-400" y="-300" on="1"/>
        <pt x="-300" y="-300" on="0"/>
        <pt x="-300" y="-375" on="1"/>
        <pt x="-300" y="-450" on="0"/>
        <pt x="-400" y="-450" on="1"/>
        <pt x="-450" y="-450" on="0"/>
        <pt x="-550" y="-550" on="1"/>
        <pt x="-650" y="-650" on="1"/>
        <pt x="-800" y="-650" on="1"/>
        <pt x="-800" y="-350" on="1"/>
        <pt x="-800" y="-220" on="0"/>
        <pt x="-580" y="-100" on="0"/>
        <pt x="-400" y="-100" on="1"/>
        <pt x="-220" y="-100" on="0"/>
        <pt x="0" y="-220" on="0"/>
        <pt x="0" y="-350" on="1"/>
        <pt x="0" y="-650" on="1"/>
        <pt x="-150" y="-650" on="1"/>
        <pt x="-150" y="-350" on="1"/>
        <pt x="-150" y="-270" on="0"/>
        <pt x="-295" y="-200" on="0"/>
        <pt x="-400" y="-200" on="1"/>
        <pt x="-505" y="-200" on="0"/>
        <pt x="-650" y="-270" on="0"/>
        <pt x="-650" y="-350" on="1"/>
      </contour>
    </TTGlyph>
    <TTGlyph name="glyph205" xMin="-800" yMin="-650" xMax="0" yMax="-50">
      <contour>
        <pt x="-500" y="-650" on="1"/>
        <pt x="-650" y="-650" on="0"/>
        <pt x="-725" y="-588" on="1"/>
        <pt x="-800" y="-525" on="0"/>
        <pt x="-800" y="-400" on="1"/>
        <pt x="-800" y="-300" on="0"/>
        <pt x="-763" y="-250" on="1"/>
        <pt x="-725" y="-200" on="0"/>
        <pt x="-650" y="-200" on="1"/>
        <pt x="-600" y="-200" on="0"/>
        <pt x="-575" y="-225" on="1"/>
        <pt x="-550" y="-250" on="0"/>
        <pt x="-550" y="-275" on="1"/>
        <pt x="-550" y="-300" on="0"/>
        <pt x="-575" y="-300" on="1"/>
        <pt x="-600" y="-300" on="0"/>
        <pt x="-625" y="-325" on="1"/>
        <pt x="-650" y="-350" on="0"/>
        <pt x="-650" y="-400" on="1"/>
        <pt x="-650" y="-455" on="0"/>
        <pt x="-613" y="-492" on="1"/>
        <pt x="-575" y="-530" on="0"/>
        <pt x="-500" y="-530" on="1"/>
        <pt x="-423" y="-530" on="0"/>
        <pt x="-354" y="-499" on="1"/>
        <pt x="-285" y="-468" on="0"/>
        <pt x="-240" y="-415" on="1"/>
        <pt x="-195" y="-362" on="0"/>
        <pt x="-163" y="-268" on="1"/>
        <pt x="-131" y="-175" on="0"/>
        <pt x="-123" y="-125" on="1"/>
        <pt x="-115" y="-75" on="0"/>
        <pt x="-71" y="-50" on="0"/>
        <pt x="-40" y="-50" on="1"/>
        <pt x="0" y="-50" on="0"/>
        <pt x="0" y="-110" on="1"/>
        <pt x="-13" y="-200" on="0"/>
        <pt x="-50" y="-312" on="1"/>
        <pt x="-87" y="-425" on="0"/>
        <pt x="-150" y="-500" on="1"/>
        <pt x="-213" y="-575" on="0"/>
        <pt x="-300" y="-612" on="1"/>
        <pt x="-387" y="-650" on="0"/>
      </contour>
    </TTGlyph>
    <TTGlyph name="glyph206" xMin="-780" yMin="-650" xMax="120" yMax="-51">
      <contour>
        <pt x="-460" y="-130" on="1"/>
        <pt x="-460" y="-51" on="0"/>
        <pt x="-385" y="-51" on="1"/>
        <pt x="-310" y="-51" on="0"/>
        <pt x="-310" y="-130" on="1"/>
        <pt x="-310" y="-199" on="0"/>
        <pt x="-355" y="-267" on="1"/>
        <pt x="-400" y="-336" on="0"/>
        <pt x="-467" y="-384" on="1"/>
        <pt x="-535" y="-432" on="0"/>
        <pt x="-630" y="-465" on="1"/>
        <pt x="-630" y="-508" on="0"/>
        <pt x="-593" y="-529" on="1"/>
        <pt x="-555" y="-550" on="0"/>
        <pt x="-480" y="-550" on="1"/>
        <pt x="-420" y="-550" on="0"/>
        <pt x="-361" y="-521" on="1"/>
        <pt x="-301" y="-492" on="0"/>
        <pt x="-242" y="-435" on="1"/>
        <pt x="-192" y="-386" on="1"/>
        <pt x="-280" y="-352" on="0"/>
        <pt x="-280" y="-270" on="1"/>
        <pt x="-280" y="-200" on="0"/>
        <pt x="-243" y="-166" on="1"/>
        <pt x="-205" y="-131" on="0"/>
        <pt x="-130" y="-131" on="1"/>
        <pt x="-65" y="-131" on="0"/>
        <pt x="-33" y="-166" on="1"/>
        <pt x="0" y="-200" on="0"/>
        <pt x="0" y="-270" on="1"/>
        <pt x="0" y="-288" on="0"/>
        <pt x="-16" y="-316" on="1"/>
        <pt x="20" y="-316" on="1"/>
        <pt x="47" y="-316" on="0"/>
        <pt x="120" y="-279" on="1"/>
        <pt x="120" y="-372" on="0"/>
        <pt x="18" y="-409" on="1"/>
        <pt x="-30" y="-409" on="1"/>
        <pt x="-43" y="-409" on="0"/>
        <pt x="-68" y="-408" on="0"/>
        <pt x="-79" y="-407" on="1"/>
        <pt x="-92" y="-424" on="0"/>
        <pt x="-123" y="-462" on="0"/>
        <pt x="-140" y="-483" on="1"/>
        <pt x="-210" y="-566" on="0"/>
        <pt x="-295" y="-608" on="1"/>
        <pt x="-380" y="-650" on="0"/>
        <pt x="-480" y="-650" on="1"/>
        <pt x="-630" y="-650" on="0"/>
        <pt x="-705" y="-604" on="1"/>
        <pt x="-780" y="-558" on="0"/>
        <pt x="-780" y="-465" on="1"/>
        <pt x="-780" y="-370" on="0"/>
        <pt x="-730" y="-364" on="1"/>
        <pt x="-625" y="-350" on="0"/>
        <pt x="-571" y="-314" on="1"/>
        <pt x="-517" y="-278" on="0"/>
        <pt x="-488" y="-216" on="1"/>
        <pt x="-460" y="-155" on="0"/>
      </contour>
      <contour>
        <pt x="-100" y="-270" on="1"/>
        <pt x="-94" y="-258" on="0"/>
        <pt x="-94" y="-249" on="1"/>
        <pt x="-94" y="-227" on="0"/>
        <pt x="-130" y="-227" on="1"/>
        <pt x="-180" y="-227" on="0"/>
        <pt x="-180" y="-270" on="1"/>
        <pt x="-180" y="-298" on="0"/>
        <pt x="-125" y="-308" on="1"/>
        <pt x="-107" y="-286" on="0"/>
      </contour>
    </TTGlyph>
    <TTGlyph name="glyph207" xMin="-900" yMin="-650" xMax="0" yMax="-100">
      <contour>
        <pt x="-650" y="-100" on="1"/>
        <pt x="-650" y="-310" on="1"/>
        <pt x="-600" y="-310" on="1"/>
        <pt x="-500" y="-310" on="0"/>
        <pt x="-425" y="-412" on="1"/>
        <pt x="-350" y="-485" on="1"/>
        <pt x="-300" y="-550" on="0"/>
        <pt x="-250" y="-550" on="1"/>
        <pt x="-200" y="-550" on="0"/>
        <pt x="-175" y="-512" on="1"/>
        <pt x="-150" y="-475" on="0"/>
        <pt x="-150" y="-399" on="1"/>
        <pt x="-150" y="-299" on="1"/>
        <pt x="-187" y="-299" on="1"/>
        <pt x="-219" y="-299" on="0"/>
        <pt x="-250" y="-259" on="0"/>
        <pt x="-250" y="-225" on="1"/>
        <pt x="-250" y="-198" on="0"/>
        <pt x="-150" y="-100" on="1"/>
        <pt x="0" y="-100" on="1"/>
        <pt x="0" y="-399" on="1"/>
        <pt x="0" y="-525" on="0"/>
        <pt x="-63" y="-587" on="1"/>
        <pt x="-125" y="-650" on="0"/>
        <pt x="-250" y="-650" on="1"/>
        <pt x="-350" y="-650" on="0"/>
        <pt x="-425" y="-548" on="1"/>
        <pt x="-500" y="-475" on="1"/>
        <pt x="-550" y="-410" on="0"/>
        <pt x="-600" y="-410" on="1"/>
        <pt x="-650" y="-410" on="1"/>
        <pt x="-650" y="-530" on="1"/>
        <pt x="-650" y="-650" on="0"/>
        <pt x="-725" y="-650" on="1"/>
        <pt x="-800" y="-650" on="0"/>
        <pt x="-850" y="-550" on="1"/>
        <pt x="-900" y="-470" on="0"/>
        <pt x="-900" y="-410" on="1"/>
        <pt x="-900" y="-360" on="0"/>
        <pt x="-875" y="-335" on="1"/>
        <pt x="-850" y="-310" on="0"/>
        <pt x="-800" y="-310" on="1"/>
        <pt x="-800" y="-100" on="1"/>
      </contour>
    </TTGlyph>
    <TTGlyph name="glyph208" xMin="-897" yMin="-650" xMax="100" yMax="-100">
      <contour>
        <pt x="-209" y="-650" on="1"/>
        <pt x="-250" y="-650" on="0"/>
        <pt x="-303" y="-624" on="1"/>
        <pt x="-356" y="-597" on="0"/>
        <pt x="-410" y="-544" on="1"/>
        <pt x="-447" y="-509" on="1"/>
        <pt x="-486" y="-544" on="1"/>
        <pt x="-546" y="-598" on="0"/>
        <pt x="-596" y="-624" on="1"/>
        <pt x="-646" y="-650" on="0"/>
        <pt x="-687" y="-650" on="1"/>
        <pt x="-797" y="-650" on="0"/>
        <pt x="-847" y="-557" on="1"/>
        <pt x="-897" y="-464" on="0"/>
        <pt x="-897" y="-359" on="1"/>
        <pt x="-897" y="-240" on="0"/>
        <pt x="-847" y="-170" on="1"/>
        <pt x="-797" y="-100" on="0"/>
        <pt x="-697" y="-100" on="1"/>
        <pt x="-647" y="-100" on="0"/>
        <pt x="-647" y="-150" on="1"/>
        <pt x="-647" y="-200" on="0"/>
        <pt x="-697" y="-200" on="1"/>
        <pt x="-722" y="-200" on="0"/>
        <pt x="-734" y="-245" on="1"/>
        <pt x="-747" y="-290" on="0"/>
        <pt x="-747" y="-359" on="1"/>
        <pt x="-747" y="-414" on="0"/>
        <pt x="-722" y="-520" on="0"/>
        <pt x="-667" y="-520" on="1"/>
        <pt x="-632" y="-520" on="0"/>
        <pt x="-447" y="-372" on="1"/>
        <pt x="-269" y="-520" on="0"/>
        <pt x="-217" y="-520" on="1"/>
        <pt x="-173" y="-520" on="0"/>
        <pt x="-148" y="-424" on="0"/>
        <pt x="-147" y="-398" on="1"/>
        <pt x="-159" y="-399" on="0"/>
        <pt x="-184" y="-400" on="0"/>
        <pt x="-197" y="-400" on="1"/>
        <pt x="-272" y="-400" on="0"/>
        <pt x="-310" y="-362" on="1"/>
        <pt x="-347" y="-325" on="0"/>
        <pt x="-347" y="-250" on="1"/>
        <pt x="-347" y="-175" on="0"/>
        <pt x="-310" y="-138" on="1"/>
        <pt x="-272" y="-100" on="0"/>
        <pt x="-197" y="-100" on="1"/>
        <pt x="-117" y="-100" on="0"/>
        <pt x="-69" y="-145" on="1"/>
        <pt x="-21" y="-190" on="0"/>
        <pt x="-5" y="-279" on="1"/>
        <pt x="54" y="-258" on="0"/>
        <pt x="67" y="-258" on="1"/>
        <pt x="100" y="-258" on="0"/>
        <pt x="100" y="-301" on="1"/>
        <pt x="100" y="-336" on="0"/>
        <pt x="50" y="-356" on="1"/>
        <pt x="39" y="-360" on="0"/>
        <pt x="16" y="-368" on="0"/>
        <pt x="3" y="-372" on="1"/>
        <pt x="3" y="-380" on="1"/>
        <pt x="3" y="-465" on="0"/>
        <pt x="-48" y="-558" on="1"/>
        <pt x="-98" y="-650" on="0"/>
      </contour>
      <contour>
        <pt x="-197" y="-200" on="1"/>
        <pt x="-222" y="-200" on="0"/>
        <pt x="-234" y="-212" on="1"/>
        <pt x="-247" y="-225" on="0"/>
        <pt x="-247" y="-250" on="1"/>
        <pt x="-247" y="-300" on="0"/>
        <pt x="-199" y="-300" on="1"/>
        <pt x="-162" y="-300" on="1"/>
        <pt x="-151" y="-300" on="0"/>
        <pt x="-150" y="-299" on="1"/>
        <pt x="-161" y="-200" on="0"/>
      </contour>
    </TTGlyph>
    <TTGlyph name="glyph209" xMin="-1000" yMin="-600" xMax="0" yMax="-100">
      <contour>
        <pt x="0" y="-300" on="1"/>
        <pt x="0" y="-450" on="0"/>
        <pt x="-67" y="-525" on="1"/>
        <pt x="-135" y="-600" on="0"/>
        <pt x="-270" y="-600" on="1"/>
        <pt x="-383" y="-600" on="0"/>
        <pt x="-467" y="-564" on="1"/>
        <pt x="-551" y="-528" on="0"/>
        <pt x="-606" y="-455" on="1"/>
        <pt x="-685" y="-352" on="0"/>
        <pt x="-745" y="-301" on="1"/>
        <pt x="-807" y="-250" on="0"/>
        <pt x="-850" y="-250" on="1"/>
        <pt x="-903" y="-250" on="0"/>
        <pt x="-940" y="-272" on="1"/>
        <pt x="-977" y="-295" on="0"/>
        <pt x="-1000" y="-340" on="1"/>
        <pt x="-1000" y="-290" on="1"/>
        <pt x="-1000" y="-240" on="0"/>
        <pt x="-962" y="-195" on="1"/>
        <pt x="-925" y="-150" on="0"/>
        <pt x="-850" y="-150" on="1"/>
        <pt x="-751" y="-150" on="0"/>
        <pt x="-659" y="-205" on="1"/>
        <pt x="-567" y="-260" on="0"/>
        <pt x="-482" y="-371" on="1"/>
        <pt x="-433" y="-436" on="0"/>
        <pt x="-379" y="-468" on="1"/>
        <pt x="-327" y="-500" on="0"/>
        <pt x="-270" y="-500" on="1"/>
        <pt x="-210" y="-500" on="0"/>
        <pt x="-180" y="-450" on="1"/>
        <pt x="-150" y="-400" on="0"/>
        <pt x="-150" y="-300" on="1"/>
        <pt x="-150" y="-250" on="0"/>
        <pt x="-175" y="-225" on="1"/>
        <pt x="-200" y="-200" on="0"/>
        <pt x="-250" y="-200" on="1"/>
        <pt x="-250" y="-150" on="0"/>
        <pt x="-225" y="-125" on="1"/>
        <pt x="-200" y="-100" on="0"/>
        <pt x="-150" y="-100" on="1"/>
        <pt x="-75" y="-100" on="0"/>
        <pt x="-37" y="-150" on="1"/>
        <pt x="0" y="-200" on="0"/>
      </contour>
    </TTGlyph>
    <TTGlyph name="glyph210" xMin="-800" yMin="-650" xMax="0" yMax="-100">
      <contour>
        <pt x="-650" y="-470" on="1"/>
        <pt x="-650" y="-537" on="1"/>
        <pt x="-600" y="-518" on="0"/>
        <pt x="-600" y="-491" on="1"/>
        <pt x="-600" y="-470" on="0"/>
      </contour>
      <contour>
        <pt x="-800" y="-350" on="1"/>
        <pt x="-800" y="-220" on="0"/>
        <pt x="-580" y="-100" on="0"/>
        <pt x="-400" y="-100" on="1"/>
        <pt x="-220" y="-100" on="0"/>
        <pt x="0" y="-220" on="0"/>
        <pt x="0" y="-350" on="1"/>
        <pt x="0" y="-650" on="1"/>
        <pt x="-150" y="-650" on="1"/>
        <pt x="-150" y="-350" on="1"/>
        <pt x="-150" y="-270" on="0"/>
        <pt x="-295" y="-200" on="0"/>
        <pt x="-400" y="-200" on="1"/>
        <pt x="-505" y="-200" on="0"/>
        <pt x="-650" y="-270" on="0"/>
        <pt x="-650" y="-350" on="1"/>
        <pt x="-650" y="-370" on="1"/>
        <pt x="-575" y="-370" on="0"/>
        <pt x="-537" y="-400" on="1"/>
        <pt x="-500" y="-430" on="0"/>
        <pt x="-500" y="-490" on="1"/>
        <pt x="-500" y="-560" on="0"/>
        <pt x="-575" y="-605" on="1"/>
        <pt x="-650" y="-650" on="0"/>
        <pt x="-725" y="-650" on="1"/>
        <pt x="-800" y="-650" on="0"/>
        <pt x="-800" y="-575" on="1"/>
      </contour>
    </TTGlyph>
    <TTGlyph name="glyph211" xMin="-799" yMin="-650" xMax="0" yMax="-50">
      <contour>
        <pt x="-200" y="-119" on="1"/>
        <pt x="-200" y="-85" on="0"/>
        <pt x="-175" y="-67" on="1"/>
        <pt x="-150" y="-50" on="0"/>
        <pt x="-100" y="-50" on="1"/>
        <pt x="-50" y="-50" on="0"/>
        <pt x="-25" y="-85" on="1"/>
        <pt x="0" y="-119" on="0"/>
        <pt x="0" y="-188" on="1"/>
        <pt x="0" y="-564" on="1"/>
        <pt x="0" y="-607" on="0"/>
        <pt x="-27" y="-628" on="1"/>
        <pt x="-53" y="-650" on="0"/>
        <pt x="-107" y="-650" on="1"/>
        <pt x="-383" y="-504" on="1"/>
        <pt x="-496" y="-614" on="1"/>
        <pt x="-534" y="-650" on="0"/>
        <pt x="-555" y="-650" on="1"/>
        <pt x="-576" y="-650" on="0"/>
        <pt x="-604" y="-610" on="1"/>
        <pt x="-774" y="-374" on="1"/>
        <pt x="-799" y="-340" on="0"/>
        <pt x="-799" y="-281" on="1"/>
        <pt x="-799" y="-224" on="0"/>
        <pt x="-711" y="-212" on="1"/>
        <pt x="-620" y="-200" on="0"/>
        <pt x="-547" y="-194" on="1"/>
        <pt x="-473" y="-189" on="0"/>
        <pt x="-410" y="-189" on="1"/>
        <pt x="-149" y="-189" on="1"/>
        <pt x="-175" y="-188" on="0"/>
        <pt x="-187" y="-170" on="1"/>
        <pt x="-200" y="-153" on="0"/>
      </contour>
      <contour>
        <pt x="-150" y="-301" on="1"/>
        <pt x="-423" y="-301" on="1"/>
        <pt x="-483" y="-301" on="0"/>
        <pt x="-539" y="-306" on="1"/>
        <pt x="-594" y="-311" on="0"/>
        <pt x="-649" y="-322" on="1"/>
        <pt x="-539" y="-480" on="1"/>
        <pt x="-399" y="-364" on="1"/>
        <pt x="-150" y="-470" on="1"/>
      </contour>
    </TTGlyph>
    <TTGlyph name="glyph212" xMin="-800" yMin="-675" xMax="0" yMax="-50">
      <contour>
        <pt x="-650" y="-221" on="1"/>
        <pt x="-580" y="-221" on="0"/>
        <pt x="-580" y="-252" on="1"/>
        <pt x="-580" y="-287" on="0"/>
        <pt x="-650" y="-349" on="0"/>
        <pt x="-725" y="-349" on="1"/>
        <pt x="-800" y="-349" on="0"/>
        <pt x="-800" y="-284" on="1"/>
        <pt x="-800" y="-231" on="1"/>
        <pt x="-800" y="-178" on="0"/>
        <pt x="-715" y="-114" on="1"/>
        <pt x="-630" y="-50" on="0"/>
        <pt x="-580" y="-50" on="1"/>
        <pt x="-530" y="-50" on="0"/>
        <pt x="-400" y="-146" on="1"/>
        <pt x="-270" y="-50" on="0"/>
        <pt x="-220" y="-50" on="1"/>
        <pt x="-170" y="-50" on="0"/>
        <pt x="-85" y="-114" on="1"/>
        <pt x="0" y="-178" on="0"/>
        <pt x="0" y="-239" on="1"/>
        <pt x="0" y="-295" on="0"/>
        <pt x="-65" y="-335" on="1"/>
        <pt x="-129" y="-374" on="0"/>
        <pt x="-261" y="-409" on="1"/>
        <pt x="-650" y="-512" on="1"/>
        <pt x="-600" y="-533" on="0"/>
        <pt x="-525" y="-533" on="1"/>
        <pt x="-451" y="-533" on="0"/>
        <pt x="-339" y="-514" on="1"/>
        <pt x="-227" y="-495" on="0"/>
        <pt x="-150" y="-416" on="1"/>
        <pt x="0" y="-392" on="1"/>
        <pt x="0" y="-589" on="1"/>
        <pt x="0" y="-632" on="0"/>
        <pt x="-25" y="-653" on="1"/>
        <pt x="-50" y="-675" on="0"/>
        <pt x="-200" y="-675" on="1"/>
        <pt x="-150" y="-632" on="0"/>
        <pt x="-150" y="-589" on="1"/>
        <pt x="-150" y="-547" on="1"/>
        <pt x="-239" y="-597" on="0"/>
        <pt x="-465" y="-650" on="0"/>
        <pt x="-600" y="-650" on="1"/>
        <pt x="-700" y="-650" on="0"/>
        <pt x="-800" y="-580" on="0"/>
        <pt x="-800" y="-511" on="1"/>
        <pt x="-800" y="-436" on="0"/>
        <pt x="-733" y="-420" on="1"/>
        <pt x="-284" y="-307" on="1"/>
        <pt x="-217" y="-287" on="0"/>
        <pt x="-183" y="-265" on="1"/>
        <pt x="-150" y="-244" on="0"/>
        <pt x="-150" y="-219" on="1"/>
        <pt x="-150" y="-188" on="0"/>
        <pt x="-177" y="-174" on="1"/>
        <pt x="-205" y="-161" on="0"/>
        <pt x="-228" y="-161" on="1"/>
        <pt x="-252" y="-161" on="0"/>
        <pt x="-400" y="-275" on="1"/>
        <pt x="-556" y="-161" on="0"/>
        <pt x="-579" y="-161" on="1"/>
        <pt x="-602" y="-161" on="0"/>
        <pt x="-626" y="-175" on="1"/>
        <pt x="-650" y="-189" on="0"/>
      </contour>
    </TTGlyph>
    <TTGlyph name="glyph213" xMin="-800" yMin="-650" xMax="0" yMax="-100">
      <contour>
        <pt x="-650" y="-470" on="1"/>
        <pt x="-650" y="-537" on="1"/>
        <pt x="-600" y="-518" on="0"/>
        <pt x="-600" y="-491" on="1"/>
        <pt x="-600" y="-470" on="0"/>
      </contour>
      <contour>
        <pt x="-800" y="-350" on="1"/>
        <pt x="-800" y="-220" on="0"/>
        <pt x="-580" y="-100" on="0"/>
        <pt x="-400" y="-100" on="1"/>
        <pt x="-220" y="-100" on="0"/>
        <pt x="0" y="-220" on="0"/>
        <pt x="0" y="-350" on="1"/>
        <pt x="0" y="-650" on="1"/>
        <pt x="-150" y="-650" on="1"/>
        <pt x="-150" y="-350" on="1"/>
        <pt x="-150" y="-270" on="0"/>
        <pt x="-295" y="-200" on="0"/>
        <pt x="-400" y="-200" on="1"/>
        <pt x="-505" y="-200" on="0"/>
        <pt x="-650" y="-270" on="0"/>
        <pt x="-650" y="-350" on="1"/>
        <pt x="-650" y="-370" on="1"/>
        <pt x="-575" y="-370" on="0"/>
        <pt x="-537" y="-400" on="1"/>
        <pt x="-500" y="-430" on="0"/>
        <pt x="-500" y="-490" on="1"/>
        <pt x="-500" y="-560" on="0"/>
        <pt x="-575" y="-605" on="1"/>
        <pt x="-650" y="-650" on="0"/>
        <pt x="-725" y="-650" on="1"/>
        <pt x="-800" y="-650" on="0"/>
        <pt x="-800" y="-575" on="1"/>
      </contour>
    </TTGlyph>
    <TTGlyph name="glyph214" xMin="-1000" yMin="-650" xMax="0" yMax="-100">
      <contour>
        <pt x="-1000" y="-400" on="1"/>
        <pt x="-1000" y="-275" on="0"/>
        <pt x="-912" y="-188" on="1"/>
        <pt x="-825" y="-100" on="0"/>
        <pt x="-650" y="-100" on="1"/>
        <pt x="-486" y="-100" on="0"/>
        <pt x="-368" y="-184" on="1"/>
        <pt x="-252" y="-267" on="0"/>
        <pt x="-199" y="-367" on="1"/>
        <pt x="-147" y="-467" on="0"/>
        <pt x="-102" y="-508" on="1"/>
        <pt x="-56" y="-550" on="0"/>
        <pt x="0" y="-550" on="1"/>
        <pt x="0" y="-650" on="0"/>
        <pt x="-50" y="-650" on="1"/>
        <pt x="-150" y="-650" on="0"/>
        <pt x="-216" y="-604" on="1"/>
        <pt x="-282" y="-558" on="0"/>
        <pt x="-325" y="-458" on="1"/>
        <pt x="-368" y="-358" on="0"/>
        <pt x="-452" y="-279" on="1"/>
        <pt x="-536" y="-200" on="0"/>
        <pt x="-650" y="-200" on="1"/>
        <pt x="-750" y="-200" on="0"/>
        <pt x="-800" y="-262" on="1"/>
        <pt x="-850" y="-325" on="0"/>
        <pt x="-850" y="-400" on="1"/>
        <pt x="-850" y="-475" on="0"/>
        <pt x="-812" y="-512" on="1"/>
        <pt x="-775" y="-550" on="0"/>
        <pt x="-700" y="-550" on="1"/>
        <pt x="-700" y="-600" on="0"/>
        <pt x="-725" y="-625" on="1"/>
        <pt x="-750" y="-650" on="0"/>
        <pt x="-800" y="-650" on="1"/>
        <pt x="-900" y="-650" on="0"/>
        <pt x="-950" y="-588" on="1"/>
        <pt x="-1000" y="-525" on="0"/>
      </contour>
    </TTGlyph>
    <TTGlyph name="glyph215" xMin="-800" yMin="-650" xMax="0" yMax="-50">
      <contour>
        <pt x="-350" y="-164" on="1"/>
        <pt x="-350" y="-142" on="0"/>
        <pt x="-400" y="-142" on="1"/>
        <pt x="-400" y="-96" on="0"/>
        <pt x="-375" y="-73" on="1"/>
        <pt x="-350" y="-50" on="0"/>
        <pt x="-300" y="-50" on="1"/>
        <pt x="-250" y="-50" on="0"/>
        <pt x="-225" y="-73" on="1"/>
        <pt x="-200" y="-96" on="0"/>
        <pt x="-200" y="-142" on="1"/>
        <pt x="-200" y="-187" on="0"/>
        <pt x="-254" y="-255" on="1"/>
        <pt x="-308" y="-323" on="0"/>
        <pt x="-429" y="-385" on="1"/>
        <pt x="-550" y="-448" on="0"/>
        <pt x="-630" y="-467" on="1"/>
        <pt x="-581" y="-526" on="0"/>
        <pt x="-501" y="-526" on="1"/>
        <pt x="-399" y="-526" on="0"/>
        <pt x="-282" y="-429" on="1"/>
        <pt x="-165" y="-333" on="0"/>
        <pt x="-151" y="-270" on="1"/>
        <pt x="-141" y="-230" on="0"/>
        <pt x="-119" y="-211" on="1"/>
        <pt x="-97" y="-192" on="0"/>
        <pt x="-65" y="-192" on="1"/>
        <pt x="0" y="-192" on="0"/>
        <pt x="0" y="-238" on="1"/>
        <pt x="0" y="-556" on="1"/>
        <pt x="0" y="-602" on="0"/>
        <pt x="-49" y="-625" on="1"/>
        <pt x="-97" y="-650" on="0"/>
        <pt x="-195" y="-650" on="1"/>
        <pt x="-150" y="-602" on="0"/>
        <pt x="-150" y="-556" on="1"/>
        <pt x="-150" y="-476" on="1"/>
        <pt x="-251" y="-577" on="0"/>
        <pt x="-331" y="-613" on="1"/>
        <pt x="-412" y="-650" on="0"/>
        <pt x="-501" y="-650" on="1"/>
        <pt x="-625" y="-650" on="0"/>
        <pt x="-713" y="-604" on="1"/>
        <pt x="-800" y="-561" on="0"/>
        <pt x="-800" y="-473" on="1"/>
        <pt x="-800" y="-370" on="0"/>
        <pt x="-750" y="-355" on="1"/>
        <pt x="-550" y="-295" on="0"/>
        <pt x="-350" y="-186" on="0"/>
      </contour>
    </TTGlyph>
    <TTGlyph name="glyph216" xMin="-831" yMin="-648" xMax="0" yMax="-50">
      <contour>
        <pt x="-188" y="-142" on="1"/>
        <pt x="-205" y="-206" on="0"/>
        <pt x="-262" y="-256" on="1"/>
        <pt x="-326" y="-312" on="0"/>
        <pt x="-398" y="-352" on="1"/>
        <pt x="-348" y="-376" on="1"/>
        <pt x="-279" y="-402" on="1"/>
        <pt x="-267" y="-406" on="0"/>
        <pt x="-256" y="-407" on="1"/>
        <pt x="-249" y="-407" on="1"/>
        <pt x="-213" y="-407" on="0"/>
        <pt x="-188" y="-369" on="1"/>
        <pt x="-162" y="-328" on="0"/>
        <pt x="-152" y="-241" on="1"/>
        <pt x="-151" y="-230" on="0"/>
        <pt x="-151" y="-220" on="1"/>
        <pt x="-151" y="-165" on="0"/>
      </contour>
      <contour>
        <pt x="-681" y="-489" on="1"/>
        <pt x="-682" y="-494" on="0"/>
        <pt x="-682" y="-499" on="1"/>
        <pt x="-682" y="-524" on="0"/>
        <pt x="-664" y="-532" on="1"/>
        <pt x="-643" y="-543" on="0"/>
        <pt x="-595" y="-549" on="1"/>
        <pt x="-582" y="-551" on="0"/>
        <pt x="-569" y="-551" on="1"/>
        <pt x="-539" y="-551" on="0"/>
        <pt x="-516" y="-540" on="1"/>
        <pt x="-484" y="-525" on="0"/>
        <pt x="-478" y="-473" on="1"/>
        <pt x="-471" y="-401" on="1"/>
        <pt x="-518" y="-424" on="0"/>
        <pt x="-570" y="-445" on="1"/>
        <pt x="-622" y="-467" on="0"/>
      </contour>
      <contour>
        <pt x="-183" y="-100" on="1"/>
        <pt x="-159" y="-63" on="0"/>
        <pt x="-121" y="-63" on="1"/>
        <pt x="-113" y="-63" on="1"/>
        <pt x="-70" y="-68" on="0"/>
        <pt x="-32" y="-117" on="1"/>
        <pt x="0" y="-156" on="0"/>
        <pt x="0" y="-221" on="1"/>
        <pt x="0" y="-237" on="0"/>
        <pt x="-3" y="-256" on="1"/>
        <pt x="-19" y="-397" on="0"/>
        <pt x="-74" y="-461" on="1"/>
        <pt x="-122" y="-517" on="0"/>
        <pt x="-199" y="-517" on="1"/>
        <pt x="-211" y="-517" on="0"/>
        <pt x="-224" y="-516" on="1"/>
        <pt x="-243" y="-514" on="0"/>
        <pt x="-288" y="-501" on="0"/>
        <pt x="-313" y="-493" on="1"/>
        <pt x="-379" y="-473" on="1"/>
        <pt x="-390" y="-570" on="0"/>
        <pt x="-442" y="-613" on="1"/>
        <pt x="-485" y="-648" on="0"/>
        <pt x="-556" y="-648" on="1"/>
        <pt x="-572" y="-648" on="0"/>
        <pt x="-590" y="-647" on="1"/>
        <pt x="-719" y="-633" on="0"/>
        <pt x="-779" y="-586" on="1"/>
        <pt x="-831" y="-545" on="0"/>
        <pt x="-831" y="-479" on="1"/>
        <pt x="-831" y="-469" on="0"/>
        <pt x="-830" y="-459" on="1"/>
        <pt x="-822" y="-388" on="0"/>
        <pt x="-770" y="-368" on="1"/>
        <pt x="-600" y="-335" on="0"/>
        <pt x="-481" y="-278" on="1"/>
        <pt x="-363" y="-223" on="0"/>
        <pt x="-325" y="-158" on="1"/>
        <pt x="-309" y="-130" on="0"/>
        <pt x="-309" y="-114" on="1"/>
        <pt x="-309" y="-92" on="0"/>
        <pt x="-337" y="-89" on="1"/>
        <pt x="-332" y="-50" on="0"/>
        <pt x="-263" y="-50" on="1"/>
        <pt x="-188" y="-50" on="0"/>
      </contour>
    </TTGlyph>
    <TTGlyph name="glyph217" xMin="-950" yMin="-650" xMax="0" yMax="-50">
      <contour>
        <pt x="-654" y="-540" on="1"/>
        <pt x="-802" y="-540" on="0"/>
        <pt x="-876" y="-492" on="1"/>
        <pt x="-950" y="-444" on="0"/>
        <pt x="-950" y="-349" on="1"/>
        <pt x="-950" y="-265" on="0"/>
        <pt x="-875" y="-213" on="1"/>
        <pt x="-800" y="-162" on="0"/>
        <pt x="-650" y="-162" on="1"/>
        <pt x="-300" y="-162" on="1"/>
        <pt x="-300" y="-136" on="1"/>
        <pt x="-300" y="-50" on="0"/>
        <pt x="-225" y="-50" on="1"/>
        <pt x="-150" y="-50" on="0"/>
        <pt x="-150" y="-136" on="1"/>
        <pt x="-150" y="-162" on="1"/>
        <pt x="0" y="-162" on="1"/>
        <pt x="0" y="-274" on="1"/>
        <pt x="-150" y="-274" on="1"/>
        <pt x="-150" y="-398" on="1"/>
        <pt x="-100" y="-398" on="0"/>
        <pt x="-75" y="-427" on="1"/>
        <pt x="-50" y="-455" on="0"/>
        <pt x="-50" y="-533" on="1"/>
        <pt x="-50" y="-592" on="0"/>
        <pt x="-81" y="-621" on="1"/>
        <pt x="-113" y="-650" on="0"/>
        <pt x="-175" y="-650" on="1"/>
        <pt x="-237" y="-650" on="0"/>
        <pt x="-269" y="-614" on="1"/>
        <pt x="-300" y="-580" on="0"/>
        <pt x="-300" y="-510" on="1"/>
        <pt x="-600" y="-538" on="1"/>
        <pt x="-627" y="-538" on="1"/>
        <pt x="-635" y="-539" on="0"/>
        <pt x="-648" y="-540" on="0"/>
      </contour>
      <contour>
        <pt x="-800" y="-349" on="1"/>
        <pt x="-800" y="-379" on="0"/>
        <pt x="-767" y="-404" on="1"/>
        <pt x="-735" y="-429" on="0"/>
        <pt x="-650" y="-429" on="1"/>
        <pt x="-627" y="-429" on="0"/>
        <pt x="-600" y="-426" on="1"/>
        <pt x="-300" y="-398" on="1"/>
        <pt x="-300" y="-274" on="1"/>
        <pt x="-650" y="-274" on="1"/>
        <pt x="-735" y="-274" on="0"/>
        <pt x="-767" y="-297" on="1"/>
        <pt x="-800" y="-321" on="0"/>
      </contour>
    </TTGlyph>
    <TTGlyph name="glyph218" xMin="-800" yMin="-648" xMax="0" yMax="-100">
      <contour>
        <pt x="-150" y="-254" on="1"/>
        <pt x="-150" y="-196" on="1"/>
        <pt x="-190" y="-218" on="0"/>
        <pt x="-190" y="-238" on="1"/>
        <pt x="-190" y="-254" on="0"/>
      </contour>
      <contour>
        <pt x="-800" y="-648" on="0"/>
        <pt x="-800" y="-561" on="1"/>
        <pt x="-800" y="-100" on="1"/>
        <pt x="-650" y="-100" on="1"/>
        <pt x="-650" y="-487" on="1"/>
        <pt x="-400" y="-298" on="1"/>
        <pt x="-150" y="-487" on="1"/>
        <pt x="-150" y="-331" on="1"/>
        <pt x="-215" y="-331" on="0"/>
        <pt x="-253" y="-308" on="1"/>
        <pt x="-290" y="-286" on="0"/>
        <pt x="-290" y="-239" on="1"/>
        <pt x="-290" y="-186" on="0"/>
        <pt x="-220" y="-143" on="1"/>
        <pt x="-150" y="-100" on="0"/>
        <pt x="-75" y="-100" on="1"/>
        <pt x="0" y="-100" on="0"/>
        <pt x="0" y="-158" on="1"/>
        <pt x="0" y="-561" on="1"/>
        <pt x="0" y="-648" on="0"/>
        <pt x="-95" y="-648" on="1"/>
        <pt x="-150" y="-648" on="0"/>
        <pt x="-212" y="-599" on="1"/>
        <pt x="-400" y="-451" on="1"/>
        <pt x="-587" y="-599" on="1"/>
        <pt x="-650" y="-648" on="0"/>
        <pt x="-705" y="-648" on="1"/>
      </contour>
    </TTGlyph>
    <TTGlyph name="glyph219" xMin="-800" yMin="-650" xMax="0" yMax="-100">
      <contour>
        <pt x="-622" y="-475" on="0"/>
        <pt x="-642" y="-475" on="1"/>
        <pt x="-642" y="-550" on="1"/>
        <pt x="-601" y="-550" on="0"/>
        <pt x="-601" y="-500" on="1"/>
        <pt x="-601" y="-488" on="0"/>
        <pt x="-612" y="-481" on="1"/>
      </contour>
      <contour>
        <pt x="-642" y="-375" on="1"/>
        <pt x="-579" y="-375" on="0"/>
        <pt x="-548" y="-406" on="1"/>
        <pt x="-517" y="-438" on="0"/>
        <pt x="-517" y="-500" on="1"/>
        <pt x="-517" y="-650" on="0"/>
        <pt x="-642" y="-650" on="1"/>
        <pt x="-800" y="-650" on="0"/>
        <pt x="-800" y="-550" on="1"/>
        <pt x="-800" y="-350" on="1"/>
        <pt x="-800" y="-258" on="0"/>
        <pt x="-717" y="-179" on="1"/>
        <pt x="-635" y="-100" on="0"/>
        <pt x="-582" y="-100" on="1"/>
        <pt x="-538" y="-100" on="0"/>
        <pt x="-399" y="-204" on="1"/>
        <pt x="-260" y="-100" on="0"/>
        <pt x="-216" y="-100" on="1"/>
        <pt x="-164" y="-100" on="0"/>
        <pt x="-82" y="-179" on="1"/>
        <pt x="0" y="-258" on="0"/>
        <pt x="0" y="-350" on="1"/>
        <pt x="0" y="-650" on="1"/>
        <pt x="-157" y="-650" on="1"/>
        <pt x="-157" y="-350" on="1"/>
        <pt x="-157" y="-286" on="0"/>
        <pt x="-200" y="-233" on="1"/>
        <pt x="-210" y="-221" on="0"/>
        <pt x="-226" y="-221" on="1"/>
        <pt x="-280" y="-221" on="0"/>
        <pt x="-399" y="-351" on="1"/>
        <pt x="-519" y="-221" on="0"/>
        <pt x="-573" y="-221" on="1"/>
        <pt x="-589" y="-221" on="0"/>
        <pt x="-599" y="-233" on="1"/>
        <pt x="-642" y="-286" on="0"/>
        <pt x="-642" y="-350" on="1"/>
      </contour>
    </TTGlyph>
    <TTGlyph name="glyph220" xMin="-950" yMin="-650" xMax="0" yMax="-100">
      <contour>
        <pt x="-850" y="-491" on="1"/>
        <pt x="-850" y="-518" on="0"/>
        <pt x="-800" y="-537" on="1"/>
        <pt x="-800" y="-470" on="1"/>
        <pt x="-850" y="-470" on="0"/>
      </contour>
      <contour>
        <pt x="-650" y="-350" on="1"/>
        <pt x="-650" y="-575" on="1"/>
        <pt x="-650" y="-650" on="0"/>
        <pt x="-725" y="-650" on="1"/>
        <pt x="-800" y="-650" on="0"/>
        <pt x="-875" y="-605" on="1"/>
        <pt x="-950" y="-560" on="0"/>
        <pt x="-950" y="-490" on="1"/>
        <pt x="-950" y="-430" on="0"/>
        <pt x="-913" y="-400" on="1"/>
        <pt x="-875" y="-370" on="0"/>
        <pt x="-800" y="-370" on="1"/>
        <pt x="-800" y="-350" on="1"/>
        <pt x="-800" y="-220" on="0"/>
        <pt x="-580" y="-100" on="0"/>
        <pt x="-400" y="-100" on="1"/>
        <pt x="-220" y="-100" on="0"/>
        <pt x="0" y="-220" on="0"/>
        <pt x="0" y="-350" on="1"/>
        <pt x="0" y="-650" on="1"/>
        <pt x="-150" y="-650" on="1"/>
        <pt x="-150" y="-350" on="1"/>
        <pt x="-150" y="-270" on="0"/>
        <pt x="-295" y="-200" on="0"/>
        <pt x="-400" y="-200" on="1"/>
        <pt x="-505" y="-200" on="0"/>
        <pt x="-650" y="-270" on="0"/>
      </contour>
    </TTGlyph>
    <TTGlyph name="glyph221" xMin="-910" yMin="-650" xMax="90" yMax="-100">
      <contour>
        <pt x="-709" y="-494" on="1"/>
        <pt x="-809" y="-494" on="0"/>
        <pt x="-860" y="-446" on="1"/>
        <pt x="-910" y="-397" on="0"/>
        <pt x="-910" y="-300" on="1"/>
        <pt x="-910" y="-250" on="0"/>
        <pt x="-873" y="-225" on="1"/>
        <pt x="-835" y="-200" on="0"/>
        <pt x="-740" y="-200" on="1"/>
        <pt x="-740" y="-280" on="1"/>
        <pt x="-740" y="-316" on="0"/>
        <pt x="-717" y="-338" on="1"/>
        <pt x="-695" y="-361" on="0"/>
        <pt x="-650" y="-361" on="1"/>
        <pt x="-640" y="-361" on="1"/>
        <pt x="-631" y="-361" on="0"/>
        <pt x="-630" y="-360" on="1"/>
        <pt x="-260" y="-320" on="1"/>
        <pt x="-260" y="-100" on="1"/>
        <pt x="-110" y="-100" on="1"/>
        <pt x="-110" y="-320" on="1"/>
        <pt x="-10" y="-320" on="0"/>
        <pt x="90" y="-425" on="0"/>
        <pt x="90" y="-500" on="1"/>
        <pt x="90" y="-575" on="0"/>
        <pt x="46" y="-612" on="1"/>
        <pt x="3" y="-650" on="0"/>
        <pt x="-85" y="-650" on="1"/>
        <pt x="-173" y="-650" on="0"/>
        <pt x="-216" y="-600" on="1"/>
        <pt x="-260" y="-550" on="0"/>
        <pt x="-260" y="-450" on="1"/>
        <pt x="-650" y="-490" on="1"/>
        <pt x="-653" y="-490" on="1"/>
        <pt x="-668" y="-491" on="0"/>
        <pt x="-696" y="-494" on="0"/>
      </contour>
      <contour>
        <pt x="-30" y="-500" on="1"/>
        <pt x="-30" y="-450" on="0"/>
        <pt x="-110" y="-450" on="1"/>
        <pt x="-110" y="-530" on="0"/>
        <pt x="-71" y="-530" on="1"/>
        <pt x="-70" y="-530" on="1"/>
        <pt x="-30" y="-530" on="0"/>
      </contour>
    </TTGlyph>
    <TTGlyph name="glyph222" xMin="-992" yMin="-650" xMax="90" yMax="-100">
      <contour>
        <pt x="-992" y="-436" on="1"/>
        <pt x="-992" y="-283" on="0"/>
        <pt x="-917" y="-191" on="1"/>
        <pt x="-842" y="-100" on="0"/>
        <pt x="-692" y="-100" on="1"/>
        <pt x="-572" y="-100" on="0"/>
        <pt x="-490" y="-164" on="1"/>
        <pt x="-408" y="-229" on="0"/>
        <pt x="-364" y="-359" on="1"/>
        <pt x="-322" y="-458" on="0"/>
        <pt x="-241" y="-517" on="0"/>
        <pt x="-202" y="-517" on="1"/>
        <pt x="-163" y="-517" on="0"/>
        <pt x="-82" y="-328" on="0"/>
        <pt x="-60" y="-214" on="1"/>
        <pt x="-39" y="-100" on="0"/>
        <pt x="37" y="-100" on="1"/>
        <pt x="90" y="-100" on="0"/>
        <pt x="90" y="-165" on="1"/>
        <pt x="90" y="-194" on="0"/>
        <pt x="79" y="-237" on="1"/>
        <pt x="44" y="-374" on="0"/>
        <pt x="-32" y="-511" on="1"/>
        <pt x="-109" y="-649" on="0"/>
        <pt x="-194" y="-649" on="1"/>
        <pt x="-304" y="-649" on="0"/>
        <pt x="-377" y="-595" on="1"/>
        <pt x="-450" y="-541" on="0"/>
        <pt x="-486" y="-433" on="1"/>
        <pt x="-524" y="-312" on="0"/>
        <pt x="-627" y="-211" on="0"/>
        <pt x="-692" y="-211" on="1"/>
        <pt x="-767" y="-211" on="0"/>
        <pt x="-842" y="-328" on="0"/>
        <pt x="-842" y="-436" on="1"/>
        <pt x="-842" y="-528" on="0"/>
        <pt x="-792" y="-528" on="1"/>
        <pt x="-742" y="-528" on="0"/>
        <pt x="-742" y="-467" on="1"/>
        <pt x="-692" y="-467" on="0"/>
        <pt x="-667" y="-489" on="1"/>
        <pt x="-642" y="-512" on="0"/>
        <pt x="-642" y="-558" on="1"/>
        <pt x="-642" y="-604" on="0"/>
        <pt x="-680" y="-627" on="1"/>
        <pt x="-717" y="-650" on="0"/>
        <pt x="-792" y="-650" on="1"/>
        <pt x="-892" y="-650" on="0"/>
        <pt x="-942" y="-604" on="1"/>
        <pt x="-992" y="-558" on="0"/>
      </contour>
    </TTGlyph>
    <TTGlyph name="glyph223" xMin="-800" yMin="-650" xMax="0" yMax="-50">
      <contour>
        <pt x="-279" y="-650" on="0"/>
        <pt x="-500" y="-650" on="1"/>
        <pt x="-650" y="-650" on="0"/>
        <pt x="-725" y="-599" on="1"/>
        <pt x="-800" y="-549" on="0"/>
        <pt x="-800" y="-451" on="1"/>
        <pt x="-800" y="-327" on="0"/>
        <pt x="-710" y="-326" on="1"/>
        <pt x="-620" y="-326" on="0"/>
        <pt x="-335" y="-208" on="0"/>
        <pt x="-150" y="-50" on="1"/>
        <pt x="0" y="-50" on="0"/>
        <pt x="0" y="-200" on="1"/>
        <pt x="0" y="-407" on="0"/>
        <pt x="-139" y="-528" on="1"/>
      </contour>
      <contour>
        <pt x="-210" y="-254" on="1"/>
        <pt x="-315" y="-331" on="0"/>
        <pt x="-425" y="-380" on="1"/>
        <pt x="-535" y="-429" on="0"/>
        <pt x="-640" y="-451" on="1"/>
        <pt x="-640" y="-486" on="0"/>
        <pt x="-602" y="-509" on="1"/>
        <pt x="-565" y="-532" on="0"/>
        <pt x="-500" y="-532" on="1"/>
        <pt x="-360" y="-532" on="0"/>
        <pt x="-262" y="-438" on="1"/>
        <pt x="-164" y="-344" on="0"/>
        <pt x="-152" y="-211" on="1"/>
        <pt x="-157" y="-214" on="1"/>
        <pt x="-170" y="-224" on="0"/>
        <pt x="-196" y="-244" on="0"/>
      </contour>
    </TTGlyph>
    <TTGlyph name="glyph224" xMin="-850" yMin="-650" xMax="0" yMax="-100">
      <contour>
        <pt x="-700" y="-450" on="1"/>
        <pt x="-700" y="-500" on="0"/>
        <pt x="-675" y="-525" on="1"/>
        <pt x="-650" y="-550" on="0"/>
        <pt x="-600" y="-550" on="1"/>
        <pt x="-550" y="-550" on="0"/>
        <pt x="-525" y="-525" on="1"/>
        <pt x="-500" y="-500" on="0"/>
        <pt x="-500" y="-450" on="1"/>
        <pt x="-500" y="-300" on="1"/>
        <pt x="-500" y="-200" on="0"/>
        <pt x="-438" y="-150" on="1"/>
        <pt x="-375" y="-100" on="0"/>
        <pt x="-250" y="-100" on="1"/>
        <pt x="-125" y="-100" on="0"/>
        <pt x="-62" y="-150" on="1"/>
        <pt x="0" y="-200" on="0"/>
        <pt x="0" y="-300" on="1"/>
        <pt x="0" y="-650" on="1"/>
        <pt x="-150" y="-650" on="1"/>
        <pt x="-150" y="-300" on="1"/>
        <pt x="-150" y="-250" on="0"/>
        <pt x="-175" y="-225" on="1"/>
        <pt x="-200" y="-200" on="0"/>
        <pt x="-250" y="-200" on="1"/>
        <pt x="-300" y="-200" on="0"/>
        <pt x="-325" y="-225" on="1"/>
        <pt x="-350" y="-250" on="0"/>
        <pt x="-350" y="-300" on="1"/>
        <pt x="-350" y="-450" on="1"/>
        <pt x="-350" y="-550" on="0"/>
        <pt x="-412" y="-600" on="1"/>
        <pt x="-475" y="-650" on="0"/>
        <pt x="-600" y="-650" on="1"/>
        <pt x="-725" y="-650" on="0"/>
        <pt x="-788" y="-600" on="1"/>
        <pt x="-850" y="-550" on="0"/>
        <pt x="-850" y="-450" on="1"/>
        <pt x="-850" y="-100" on="1"/>
        <pt x="-700" y="-100" on="1"/>
      </contour>
    </TTGlyph>
    <TTGlyph name="glyph225" xMin="-880" yMin="-650" xMax="0" yMax="-100">
      <contour>
        <pt x="-880" y="-525" on="1"/>
        <pt x="-880" y="-450" on="0"/>
        <pt x="-800" y="-450" on="1"/>
        <pt x="-800" y="-230" on="1"/>
        <pt x="-800" y="-200" on="0"/>
        <pt x="-830" y="-200" on="1"/>
        <pt x="-880" y="-200" on="0"/>
        <pt x="-880" y="-150" on="1"/>
        <pt x="-880" y="-100" on="0"/>
        <pt x="-825" y="-100" on="1"/>
        <pt x="-650" y="-100" on="0"/>
        <pt x="-650" y="-230" on="1"/>
        <pt x="-650" y="-290" on="1"/>
        <pt x="-150" y="-290" on="1"/>
        <pt x="-150" y="-230" on="1"/>
        <pt x="-150" y="-200" on="0"/>
        <pt x="-180" y="-200" on="1"/>
        <pt x="-230" y="-200" on="0"/>
        <pt x="-230" y="-150" on="1"/>
        <pt x="-230" y="-100" on="0"/>
        <pt x="-175" y="-100" on="1"/>
        <pt x="0" y="-100" on="0"/>
        <pt x="0" y="-230" on="1"/>
        <pt x="0" y="-550" on="1"/>
        <pt x="0" y="-650" on="0"/>
        <pt x="-75" y="-650" on="1"/>
        <pt x="-150" y="-650" on="0"/>
        <pt x="-230" y="-571" on="0"/>
        <pt x="-230" y="-525" on="1"/>
        <pt x="-230" y="-450" on="0"/>
        <pt x="-150" y="-450" on="1"/>
        <pt x="-150" y="-390" on="1"/>
        <pt x="-650" y="-390" on="1"/>
        <pt x="-650" y="-550" on="1"/>
        <pt x="-650" y="-650" on="0"/>
        <pt x="-725" y="-650" on="1"/>
        <pt x="-800" y="-650" on="0"/>
        <pt x="-880" y="-571" on="0"/>
      </contour>
    </TTGlyph>
    <TTGlyph name="glyph226" xMin="-1800" yMin="-650" xMax="-1000" yMax="-100">
      <contour>
        <pt x="-1400" y="-200" on="1"/>
        <pt x="-1505" y="-200" on="0"/>
        <pt x="-1650" y="-270" on="0"/>
        <pt x="-1650" y="-350" on="1"/>
        <pt x="-1650" y="-650" on="1"/>
        <pt x="-1800" y="-650" on="1"/>
        <pt x="-1800" y="-350" on="1"/>
        <pt x="-1800" y="-220" on="0"/>
        <pt x="-1580" y="-100" on="0"/>
        <pt x="-1400" y="-100" on="1"/>
        <pt x="-1220" y="-100" on="0"/>
        <pt x="-1000" y="-220" on="0"/>
        <pt x="-1000" y="-350" on="1"/>
        <pt x="-1000" y="-650" on="1"/>
        <pt x="-1150" y="-650" on="1"/>
        <pt x="-1150" y="-350" on="1"/>
        <pt x="-1150" y="-270" on="0"/>
        <pt x="-1295" y="-200" on="0"/>
      </contour>
    </TTGlyph>
    <TTGlyph name="glyph227" xMin="-1800" yMin="-650" xMax="-1000" yMax="-50">
      <contour>
        <pt x="-1400" y="-650" on="1"/>
        <pt x="-1600" y="-650" on="0"/>
        <pt x="-1700" y="-603" on="1"/>
        <pt x="-1800" y="-557" on="0"/>
        <pt x="-1800" y="-465" on="1"/>
        <pt x="-1800" y="-387" on="0"/>
        <pt x="-1733" y="-378" on="1"/>
        <pt x="-1418" y="-333" on="1"/>
        <pt x="-1282" y="-315" on="0"/>
        <pt x="-1218" y="-283" on="1"/>
        <pt x="-1153" y="-253" on="0"/>
        <pt x="-1153" y="-216" on="1"/>
        <pt x="-1153" y="-178" on="0"/>
        <pt x="-1215" y="-160" on="1"/>
        <pt x="-1276" y="-141" on="0"/>
        <pt x="-1400" y="-141" on="1"/>
        <pt x="-1566" y="-141" on="0"/>
        <pt x="-1606" y="-170" on="1"/>
        <pt x="-1650" y="-202" on="0"/>
        <pt x="-1650" y="-280" on="1"/>
        <pt x="-1800" y="-280" on="0"/>
        <pt x="-1800" y="-188" on="1"/>
        <pt x="-1800" y="-119" on="0"/>
        <pt x="-1700" y="-84" on="1"/>
        <pt x="-1600" y="-50" on="0"/>
        <pt x="-1400" y="-50" on="1"/>
        <pt x="-1200" y="-50" on="0"/>
        <pt x="-1100" y="-92" on="1"/>
        <pt x="-1000" y="-135" on="0"/>
        <pt x="-1000" y="-221" on="1"/>
        <pt x="-1000" y="-297" on="0"/>
        <pt x="-1087" y="-347" on="1"/>
        <pt x="-1174" y="-398" on="0"/>
        <pt x="-1348" y="-421" on="1"/>
        <pt x="-1651" y="-463" on="1"/>
        <pt x="-1651" y="-510" on="0"/>
        <pt x="-1588" y="-533" on="1"/>
        <pt x="-1526" y="-557" on="0"/>
        <pt x="-1400" y="-557" on="1"/>
        <pt x="-1275" y="-557" on="0"/>
        <pt x="-1212" y="-529" on="1"/>
        <pt x="-1150" y="-502" on="0"/>
        <pt x="-1150" y="-450" on="1"/>
        <pt x="-1000" y="-450" on="1"/>
        <pt x="-1000" y="-529" on="0"/>
        <pt x="-1100" y="-589" on="1"/>
        <pt x="-1200" y="-650" on="0"/>
      </contour>
    </TTGlyph>
    <TTGlyph name="glyph228" xMin="-1800" yMin="-650" xMax="-1000" yMax="-100">
      <contour>
        <pt x="-1650" y="-500" on="1"/>
        <pt x="-1549" y="-400" on="1"/>
        <pt x="-1449" y="-300" on="0"/>
        <pt x="-1400" y="-300" on="1"/>
        <pt x="-1300" y="-300" on="0"/>
        <pt x="-1300" y="-375" on="1"/>
        <pt x="-1300" y="-450" on="0"/>
        <pt x="-1400" y="-450" on="1"/>
        <pt x="-1450" y="-450" on="0"/>
        <pt x="-1550" y="-550" on="1"/>
        <pt x="-1650" y="-650" on="1"/>
        <pt x="-1800" y="-650" on="1"/>
        <pt x="-1800" y="-350" on="1"/>
        <pt x="-1800" y="-220" on="0"/>
        <pt x="-1580" y="-100" on="0"/>
        <pt x="-1400" y="-100" on="1"/>
        <pt x="-1220" y="-100" on="0"/>
        <pt x="-1000" y="-220" on="0"/>
        <pt x="-1000" y="-350" on="1"/>
        <pt x="-1000" y="-650" on="1"/>
        <pt x="-1150" y="-650" on="1"/>
        <pt x="-1150" y="-350" on="1"/>
        <pt x="-1150" y="-270" on="0"/>
        <pt x="-1295" y="-200" on="0"/>
        <pt x="-1400" y="-200" on="1"/>
        <pt x="-1505" y="-200" on="0"/>
        <pt x="-1650" y="-270" on="0"/>
        <pt x="-1650" y="-350" on="1"/>
      </contour>
    </TTGlyph>
    <TTGlyph name="glyph229" xMin="-1800" yMin="-650" xMax="-1000" yMax="-50">
      <contour>
        <pt x="-1500" y="-650" on="1"/>
        <pt x="-1650" y="-650" on="0"/>
        <pt x="-1725" y="-588" on="1"/>
        <pt x="-1800" y="-525" on="0"/>
        <pt x="-1800" y="-400" on="1"/>
        <pt x="-1800" y="-300" on="0"/>
        <pt x="-1763" y="-250" on="1"/>
        <pt x="-1725" y="-200" on="0"/>
        <pt x="-1650" y="-200" on="1"/>
        <pt x="-1600" y="-200" on="0"/>
        <pt x="-1575" y="-225" on="1"/>
        <pt x="-1550" y="-250" on="0"/>
        <pt x="-1550" y="-275" on="1"/>
        <pt x="-1550" y="-300" on="0"/>
        <pt x="-1575" y="-300" on="1"/>
        <pt x="-1600" y="-300" on="0"/>
        <pt x="-1625" y="-325" on="1"/>
        <pt x="-1650" y="-350" on="0"/>
        <pt x="-1650" y="-400" on="1"/>
        <pt x="-1650" y="-455" on="0"/>
        <pt x="-1613" y="-492" on="1"/>
        <pt x="-1575" y="-530" on="0"/>
        <pt x="-1500" y="-530" on="1"/>
        <pt x="-1423" y="-530" on="0"/>
        <pt x="-1354" y="-499" on="1"/>
        <pt x="-1285" y="-468" on="0"/>
        <pt x="-1240" y="-415" on="1"/>
        <pt x="-1195" y="-362" on="0"/>
        <pt x="-1163" y="-268" on="1"/>
        <pt x="-1131" y="-175" on="0"/>
        <pt x="-1123" y="-125" on="1"/>
        <pt x="-1115" y="-75" on="0"/>
        <pt x="-1071" y="-50" on="0"/>
        <pt x="-1040" y="-50" on="1"/>
        <pt x="-1000" y="-50" on="0"/>
        <pt x="-1000" y="-110" on="1"/>
        <pt x="-1013" y="-200" on="0"/>
        <pt x="-1050" y="-312" on="1"/>
        <pt x="-1087" y="-425" on="0"/>
        <pt x="-1150" y="-500" on="1"/>
        <pt x="-1213" y="-575" on="0"/>
        <pt x="-1300" y="-612" on="1"/>
        <pt x="-1387" y="-650" on="0"/>
      </contour>
    </TTGlyph>
    <TTGlyph name="glyph230" xMin="-1780" yMin="-650" xMax="-880" yMax="-51">
      <contour>
        <pt x="-1460" y="-130" on="1"/>
        <pt x="-1460" y="-51" on="0"/>
        <pt x="-1385" y="-51" on="1"/>
        <pt x="-1310" y="-51" on="0"/>
        <pt x="-1310" y="-130" on="1"/>
        <pt x="-1310" y="-199" on="0"/>
        <pt x="-1355" y="-267" on="1"/>
        <pt x="-1400" y="-336" on="0"/>
        <pt x="-1467" y="-384" on="1"/>
        <pt x="-1535" y="-432" on="0"/>
        <pt x="-1630" y="-465" on="1"/>
        <pt x="-1630" y="-508" on="0"/>
        <pt x="-1593" y="-529" on="1"/>
        <pt x="-1555" y="-550" on="0"/>
        <pt x="-1480" y="-550" on="1"/>
        <pt x="-1420" y="-550" on="0"/>
        <pt x="-1361" y="-521" on="1"/>
        <pt x="-1301" y="-492" on="0"/>
        <pt x="-1242" y="-435" on="1"/>
        <pt x="-1192" y="-386" on="1"/>
        <pt x="-1280" y="-352" on="0"/>
        <pt x="-1280" y="-270" on="1"/>
        <pt x="-1280" y="-200" on="0"/>
        <pt x="-1243" y="-166" on="1"/>
        <pt x="-1205" y="-131" on="0"/>
        <pt x="-1130" y="-131" on="1"/>
        <pt x="-1065" y="-131" on="0"/>
        <pt x="-1033" y="-166" on="1"/>
        <pt x="-1000" y="-200" on="0"/>
        <pt x="-1000" y="-270" on="1"/>
        <pt x="-1000" y="-288" on="0"/>
        <pt x="-1016" y="-316" on="1"/>
        <pt x="-980" y="-316" on="1"/>
        <pt x="-953" y="-316" on="0"/>
        <pt x="-880" y="-279" on="1"/>
        <pt x="-880" y="-372" on="0"/>
        <pt x="-982" y="-409" on="1"/>
        <pt x="-1030" y="-409" on="1"/>
        <pt x="-1043" y="-409" on="0"/>
        <pt x="-1068" y="-408" on="0"/>
        <pt x="-1079" y="-407" on="1"/>
        <pt x="-1092" y="-424" on="0"/>
        <pt x="-1123" y="-462" on="0"/>
        <pt x="-1140" y="-483" on="1"/>
        <pt x="-1210" y="-566" on="0"/>
        <pt x="-1295" y="-608" on="1"/>
        <pt x="-1380" y="-650" on="0"/>
        <pt x="-1480" y="-650" on="1"/>
        <pt x="-1630" y="-650" on="0"/>
        <pt x="-1705" y="-604" on="1"/>
        <pt x="-1780" y="-558" on="0"/>
        <pt x="-1780" y="-465" on="1"/>
        <pt x="-1780" y="-370" on="0"/>
        <pt x="-1730" y="-364" on="1"/>
        <pt x="-1625" y="-350" on="0"/>
        <pt x="-1571" y="-314" on="1"/>
        <pt x="-1517" y="-278" on="0"/>
        <pt x="-1488" y="-216" on="1"/>
        <pt x="-1460" y="-155" on="0"/>
      </contour>
      <contour>
        <pt x="-1100" y="-270" on="1"/>
        <pt x="-1094" y="-258" on="0"/>
        <pt x="-1094" y="-249" on="1"/>
        <pt x="-1094" y="-227" on="0"/>
        <pt x="-1130" y="-227" on="1"/>
        <pt x="-1180" y="-227" on="0"/>
        <pt x="-1180" y="-270" on="1"/>
        <pt x="-1180" y="-298" on="0"/>
        <pt x="-1125" y="-308" on="1"/>
        <pt x="-1107" y="-286" on="0"/>
      </contour>
    </TTGlyph>
    <TTGlyph name="glyph231" xMin="-1900" yMin="-650" xMax="-1000" yMax="-100">
      <contour>
        <pt x="-1650" y="-100" on="1"/>
        <pt x="-1650" y="-310" on="1"/>
        <pt x="-1600" y="-310" on="1"/>
        <pt x="-1500" y="-310" on="0"/>
        <pt x="-1425" y="-412" on="1"/>
        <pt x="-1350" y="-485" on="1"/>
        <pt x="-1300" y="-550" on="0"/>
        <pt x="-1250" y="-550" on="1"/>
        <pt x="-1200" y="-550" on="0"/>
        <pt x="-1175" y="-512" on="1"/>
        <pt x="-1150" y="-475" on="0"/>
        <pt x="-1150" y="-399" on="1"/>
        <pt x="-1150" y="-299" on="1"/>
        <pt x="-1187" y="-299" on="1"/>
        <pt x="-1219" y="-299" on="0"/>
        <pt x="-1250" y="-259" on="0"/>
        <pt x="-1250" y="-225" on="1"/>
        <pt x="-1250" y="-198" on="0"/>
        <pt x="-1150" y="-100" on="1"/>
        <pt x="-1000" y="-100" on="1"/>
        <pt x="-1000" y="-399" on="1"/>
        <pt x="-1000" y="-525" on="0"/>
        <pt x="-1063" y="-587" on="1"/>
        <pt x="-1125" y="-650" on="0"/>
        <pt x="-1250" y="-650" on="1"/>
        <pt x="-1350" y="-650" on="0"/>
        <pt x="-1425" y="-548" on="1"/>
        <pt x="-1500" y="-475" on="1"/>
        <pt x="-1550" y="-410" on="0"/>
        <pt x="-1600" y="-410" on="1"/>
        <pt x="-1650" y="-410" on="1"/>
        <pt x="-1650" y="-530" on="1"/>
        <pt x="-1650" y="-650" on="0"/>
        <pt x="-1725" y="-650" on="1"/>
        <pt x="-1800" y="-650" on="0"/>
        <pt x="-1850" y="-550" on="1"/>
        <pt x="-1900" y="-470" on="0"/>
        <pt x="-1900" y="-410" on="1"/>
        <pt x="-1900" y="-360" on="0"/>
        <pt x="-1875" y="-335" on="1"/>
        <pt x="-1850" y="-310" on="0"/>
        <pt x="-1800" y="-310" on="1"/>
        <pt x="-1800" y="-100" on="1"/>
      </contour>
    </TTGlyph>
    <TTGlyph name="glyph232" xMin="-1897" yMin="-650" xMax="-900" yMax="-100">
      <contour>
        <pt x="-1209" y="-650" on="1"/>
        <pt x="-1250" y="-650" on="0"/>
        <pt x="-1303" y="-624" on="1"/>
        <pt x="-1356" y="-597" on="0"/>
        <pt x="-1410" y="-544" on="1"/>
        <pt x="-1447" y="-509" on="1"/>
        <pt x="-1486" y="-544" on="1"/>
        <pt x="-1546" y="-598" on="0"/>
        <pt x="-1596" y="-624" on="1"/>
        <pt x="-1646" y="-650" on="0"/>
        <pt x="-1687" y="-650" on="1"/>
        <pt x="-1797" y="-650" on="0"/>
        <pt x="-1847" y="-557" on="1"/>
        <pt x="-1897" y="-464" on="0"/>
        <pt x="-1897" y="-359" on="1"/>
        <pt x="-1897" y="-240" on="0"/>
        <pt x="-1847" y="-170" on="1"/>
        <pt x="-1797" y="-100" on="0"/>
        <pt x="-1697" y="-100" on="1"/>
        <pt x="-1647" y="-100" on="0"/>
        <pt x="-1647" y="-150" on="1"/>
        <pt x="-1647" y="-200" on="0"/>
        <pt x="-1697" y="-200" on="1"/>
        <pt x="-1722" y="-200" on="0"/>
        <pt x="-1734" y="-245" on="1"/>
        <pt x="-1747" y="-290" on="0"/>
        <pt x="-1747" y="-359" on="1"/>
        <pt x="-1747" y="-414" on="0"/>
        <pt x="-1722" y="-520" on="0"/>
        <pt x="-1667" y="-520" on="1"/>
        <pt x="-1632" y="-520" on="0"/>
        <pt x="-1447" y="-372" on="1"/>
        <pt x="-1269" y="-520" on="0"/>
        <pt x="-1217" y="-520" on="1"/>
        <pt x="-1173" y="-520" on="0"/>
        <pt x="-1148" y="-424" on="0"/>
        <pt x="-1147" y="-398" on="1"/>
        <pt x="-1159" y="-399" on="0"/>
        <pt x="-1184" y="-400" on="0"/>
        <pt x="-1197" y="-400" on="1"/>
        <pt x="-1272" y="-400" on="0"/>
        <pt x="-1310" y="-362" on="1"/>
        <pt x="-1347" y="-325" on="0"/>
        <pt x="-1347" y="-250" on="1"/>
        <pt x="-1347" y="-175" on="0"/>
        <pt x="-1310" y="-138" on="1"/>
        <pt x="-1272" y="-100" on="0"/>
        <pt x="-1197" y="-100" on="1"/>
        <pt x="-1117" y="-100" on="0"/>
        <pt x="-1069" y="-145" on="1"/>
        <pt x="-1021" y="-190" on="0"/>
        <pt x="-1005" y="-279" on="1"/>
        <pt x="-946" y="-258" on="0"/>
        <pt x="-933" y="-258" on="1"/>
        <pt x="-900" y="-258" on="0"/>
        <pt x="-900" y="-301" on="1"/>
        <pt x="-900" y="-336" on="0"/>
        <pt x="-950" y="-356" on="1"/>
        <pt x="-961" y="-360" on="0"/>
        <pt x="-984" y="-368" on="0"/>
        <pt x="-997" y="-372" on="1"/>
        <pt x="-997" y="-380" on="1"/>
        <pt x="-997" y="-465" on="0"/>
        <pt x="-1048" y="-558" on="1"/>
        <pt x="-1098" y="-650" on="0"/>
      </contour>
      <contour>
        <pt x="-1197" y="-200" on="1"/>
        <pt x="-1222" y="-200" on="0"/>
        <pt x="-1234" y="-212" on="1"/>
        <pt x="-1247" y="-225" on="0"/>
        <pt x="-1247" y="-250" on="1"/>
        <pt x="-1247" y="-300" on="0"/>
        <pt x="-1199" y="-300" on="1"/>
        <pt x="-1162" y="-300" on="1"/>
        <pt x="-1151" y="-300" on="0"/>
        <pt x="-1150" y="-299" on="1"/>
        <pt x="-1161" y="-200" on="0"/>
      </contour>
    </TTGlyph>
    <TTGlyph name="glyph233" xMin="-1930" yMin="-600" xMax="-930" yMax="-100">
      <contour>
        <pt x="-930" y="-300" on="1"/>
        <pt x="-930" y="-450" on="0"/>
        <pt x="-997" y="-525" on="1"/>
        <pt x="-1065" y="-600" on="0"/>
        <pt x="-1200" y="-600" on="1"/>
        <pt x="-1313" y="-600" on="0"/>
        <pt x="-1397" y="-564" on="1"/>
        <pt x="-1481" y="-528" on="0"/>
        <pt x="-1536" y="-455" on="1"/>
        <pt x="-1615" y="-352" on="0"/>
        <pt x="-1675" y="-301" on="1"/>
        <pt x="-1737" y="-250" on="0"/>
        <pt x="-1780" y="-250" on="1"/>
        <pt x="-1833" y="-250" on="0"/>
        <pt x="-1870" y="-272" on="1"/>
        <pt x="-1907" y="-295" on="0"/>
        <pt x="-1930" y="-340" on="1"/>
        <pt x="-1930" y="-290" on="1"/>
        <pt x="-1930" y="-240" on="0"/>
        <pt x="-1892" y="-195" on="1"/>
        <pt x="-1855" y="-150" on="0"/>
        <pt x="-1780" y="-150" on="1"/>
        <pt x="-1681" y="-150" on="0"/>
        <pt x="-1589" y="-205" on="1"/>
        <pt x="-1497" y="-260" on="0"/>
        <pt x="-1412" y="-371" on="1"/>
        <pt x="-1363" y="-436" on="0"/>
        <pt x="-1309" y="-468" on="1"/>
        <pt x="-1257" y="-500" on="0"/>
        <pt x="-1200" y="-500" on="1"/>
        <pt x="-1140" y="-500" on="0"/>
        <pt x="-1110" y="-450" on="1"/>
        <pt x="-1080" y="-400" on="0"/>
        <pt x="-1080" y="-300" on="1"/>
        <pt x="-1080" y="-250" on="0"/>
        <pt x="-1105" y="-225" on="1"/>
        <pt x="-1130" y="-200" on="0"/>
        <pt x="-1180" y="-200" on="1"/>
        <pt x="-1180" y="-150" on="0"/>
        <pt x="-1155" y="-125" on="1"/>
        <pt x="-1130" y="-100" on="0"/>
        <pt x="-1080" y="-100" on="1"/>
        <pt x="-1005" y="-100" on="0"/>
        <pt x="-967" y="-150" on="1"/>
        <pt x="-930" y="-200" on="0"/>
      </contour>
    </TTGlyph>
    <TTGlyph name="glyph234" xMin="-1800" yMin="-650" xMax="-1000" yMax="-100">
      <contour>
        <pt x="-1650" y="-470" on="1"/>
        <pt x="-1650" y="-537" on="1"/>
        <pt x="-1600" y="-518" on="0"/>
        <pt x="-1600" y="-491" on="1"/>
        <pt x="-1600" y="-470" on="0"/>
      </contour>
      <contour>
        <pt x="-1800" y="-350" on="1"/>
        <pt x="-1800" y="-220" on="0"/>
        <pt x="-1580" y="-100" on="0"/>
        <pt x="-1400" y="-100" on="1"/>
        <pt x="-1220" y="-100" on="0"/>
        <pt x="-1000" y="-220" on="0"/>
        <pt x="-1000" y="-350" on="1"/>
        <pt x="-1000" y="-650" on="1"/>
        <pt x="-1150" y="-650" on="1"/>
        <pt x="-1150" y="-350" on="1"/>
        <pt x="-1150" y="-270" on="0"/>
        <pt x="-1295" y="-200" on="0"/>
        <pt x="-1400" y="-200" on="1"/>
        <pt x="-1505" y="-200" on="0"/>
        <pt x="-1650" y="-270" on="0"/>
        <pt x="-1650" y="-350" on="1"/>
        <pt x="-1650" y="-370" on="1"/>
        <pt x="-1575" y="-370" on="0"/>
        <pt x="-1537" y="-400" on="1"/>
        <pt x="-1500" y="-430" on="0"/>
        <pt x="-1500" y="-490" on="1"/>
        <pt x="-1500" y="-560" on="0"/>
        <pt x="-1575" y="-605" on="1"/>
        <pt x="-1650" y="-650" on="0"/>
        <pt x="-1725" y="-650" on="1"/>
        <pt x="-1800" y="-650" on="0"/>
        <pt x="-1800" y="-575" on="1"/>
      </contour>
    </TTGlyph>
    <TTGlyph name="glyph235" xMin="-1799" yMin="-650" xMax="-1000" yMax="-50">
      <contour>
        <pt x="-1200" y="-119" on="1"/>
        <pt x="-1200" y="-85" on="0"/>
        <pt x="-1175" y="-67" on="1"/>
        <pt x="-1150" y="-50" on="0"/>
        <pt x="-1100" y="-50" on="1"/>
        <pt x="-1050" y="-50" on="0"/>
        <pt x="-1025" y="-85" on="1"/>
        <pt x="-1000" y="-119" on="0"/>
        <pt x="-1000" y="-188" on="1"/>
        <pt x="-1000" y="-564" on="1"/>
        <pt x="-1000" y="-607" on="0"/>
        <pt x="-1027" y="-628" on="1"/>
        <pt x="-1053" y="-650" on="0"/>
        <pt x="-1107" y="-650" on="1"/>
        <pt x="-1383" y="-504" on="1"/>
        <pt x="-1496" y="-614" on="1"/>
        <pt x="-1534" y="-650" on="0"/>
        <pt x="-1555" y="-650" on="1"/>
        <pt x="-1576" y="-650" on="0"/>
        <pt x="-1604" y="-610" on="1"/>
        <pt x="-1774" y="-374" on="1"/>
        <pt x="-1799" y="-340" on="0"/>
        <pt x="-1799" y="-281" on="1"/>
        <pt x="-1799" y="-224" on="0"/>
        <pt x="-1711" y="-212" on="1"/>
        <pt x="-1620" y="-200" on="0"/>
        <pt x="-1547" y="-194" on="1"/>
        <pt x="-1473" y="-189" on="0"/>
        <pt x="-1410" y="-189" on="1"/>
        <pt x="-1149" y="-189" on="1"/>
        <pt x="-1175" y="-188" on="0"/>
        <pt x="-1187" y="-170" on="1"/>
        <pt x="-1200" y="-153" on="0"/>
      </contour>
      <contour>
        <pt x="-1150" y="-301" on="1"/>
        <pt x="-1423" y="-301" on="1"/>
        <pt x="-1483" y="-301" on="0"/>
        <pt x="-1539" y="-306" on="1"/>
        <pt x="-1594" y="-311" on="0"/>
        <pt x="-1649" y="-322" on="1"/>
        <pt x="-1539" y="-480" on="1"/>
        <pt x="-1399" y="-364" on="1"/>
        <pt x="-1150" y="-470" on="1"/>
      </contour>
    </TTGlyph>
    <TTGlyph name="glyph236" xMin="-1800" yMin="-675" xMax="-1000" yMax="-50">
      <contour>
        <pt x="-1650" y="-221" on="1"/>
        <pt x="-1580" y="-221" on="0"/>
        <pt x="-1580" y="-252" on="1"/>
        <pt x="-1580" y="-287" on="0"/>
        <pt x="-1650" y="-349" on="0"/>
        <pt x="-1725" y="-349" on="1"/>
        <pt x="-1800" y="-349" on="0"/>
        <pt x="-1800" y="-284" on="1"/>
        <pt x="-1800" y="-231" on="1"/>
        <pt x="-1800" y="-178" on="0"/>
        <pt x="-1715" y="-114" on="1"/>
        <pt x="-1630" y="-50" on="0"/>
        <pt x="-1580" y="-50" on="1"/>
        <pt x="-1530" y="-50" on="0"/>
        <pt x="-1400" y="-146" on="1"/>
        <pt x="-1270" y="-50" on="0"/>
        <pt x="-1220" y="-50" on="1"/>
        <pt x="-1170" y="-50" on="0"/>
        <pt x="-1085" y="-114" on="1"/>
        <pt x="-1000" y="-178" on="0"/>
        <pt x="-1000" y="-239" on="1"/>
        <pt x="-1000" y="-295" on="0"/>
        <pt x="-1065" y="-335" on="1"/>
        <pt x="-1129" y="-374" on="0"/>
        <pt x="-1261" y="-409" on="1"/>
        <pt x="-1650" y="-512" on="1"/>
        <pt x="-1600" y="-533" on="0"/>
        <pt x="-1525" y="-533" on="1"/>
        <pt x="-1451" y="-533" on="0"/>
        <pt x="-1339" y="-514" on="1"/>
        <pt x="-1227" y="-495" on="0"/>
        <pt x="-1150" y="-416" on="1"/>
        <pt x="-1000" y="-392" on="1"/>
        <pt x="-1000" y="-589" on="1"/>
        <pt x="-1000" y="-632" on="0"/>
        <pt x="-1025" y="-653" on="1"/>
        <pt x="-1050" y="-675" on="0"/>
        <pt x="-1200" y="-675" on="1"/>
        <pt x="-1150" y="-632" on="0"/>
        <pt x="-1150" y="-589" on="1"/>
        <pt x="-1150" y="-547" on="1"/>
        <pt x="-1239" y="-597" on="0"/>
        <pt x="-1465" y="-650" on="0"/>
        <pt x="-1600" y="-650" on="1"/>
        <pt x="-1700" y="-650" on="0"/>
        <pt x="-1800" y="-580" on="0"/>
        <pt x="-1800" y="-511" on="1"/>
        <pt x="-1800" y="-436" on="0"/>
        <pt x="-1733" y="-420" on="1"/>
        <pt x="-1284" y="-307" on="1"/>
        <pt x="-1217" y="-287" on="0"/>
        <pt x="-1183" y="-265" on="1"/>
        <pt x="-1150" y="-244" on="0"/>
        <pt x="-1150" y="-219" on="1"/>
        <pt x="-1150" y="-188" on="0"/>
        <pt x="-1177" y="-174" on="1"/>
        <pt x="-1205" y="-161" on="0"/>
        <pt x="-1228" y="-161" on="1"/>
        <pt x="-1252" y="-161" on="0"/>
        <pt x="-1400" y="-275" on="1"/>
        <pt x="-1556" y="-161" on="0"/>
        <pt x="-1579" y="-161" on="1"/>
        <pt x="-1602" y="-161" on="0"/>
        <pt x="-1626" y="-175" on="1"/>
        <pt x="-1650" y="-189" on="0"/>
      </contour>
    </TTGlyph>
    <TTGlyph name="glyph237" xMin="-1800" yMin="-650" xMax="-1000" yMax="-100">
      <contour>
        <pt x="-1650" y="-470" on="1"/>
        <pt x="-1650" y="-537" on="1"/>
        <pt x="-1600" y="-518" on="0"/>
        <pt x="-1600" y="-491" on="1"/>
        <pt x="-1600" y="-470" on="0"/>
      </contour>
      <contour>
        <pt x="-1800" y="-350" on="1"/>
        <pt x="-1800" y="-220" on="0"/>
        <pt x="-1580" y="-100" on="0"/>
        <pt x="-1400" y="-100" on="1"/>
        <pt x="-1220" y="-100" on="0"/>
        <pt x="-1000" y="-220" on="0"/>
        <pt x="-1000" y="-350" on="1"/>
        <pt x="-1000" y="-650" on="1"/>
        <pt x="-1150" y="-650" on="1"/>
        <pt x="-1150" y="-350" on="1"/>
        <pt x="-1150" y="-270" on="0"/>
        <pt x="-1295" y="-200" on="0"/>
        <pt x="-1400" y="-200" on="1"/>
        <pt x="-1505" y="-200" on="0"/>
        <pt x="-1650" y="-270" on="0"/>
        <pt x="-1650" y="-350" on="1"/>
        <pt x="-1650" y="-370" on="1"/>
        <pt x="-1575" y="-370" on="0"/>
        <pt x="-1537" y="-400" on="1"/>
        <pt x="-1500" y="-430" on="0"/>
        <pt x="-1500" y="-490" on="1"/>
        <pt x="-1500" y="-560" on="0"/>
        <pt x="-1575" y="-605" on="1"/>
        <pt x="-1650" y="-650" on="0"/>
        <pt x="-1725" y="-650" on="1"/>
        <pt x="-1800" y="-650" on="0"/>
        <pt x="-1800" y="-575" on="1"/>
      </contour>
    </TTGlyph>
    <TTGlyph name="glyph238" xMin="-1900" yMin="-650" xMax="-900" yMax="-100">
      <contour>
        <pt x="-1900" y="-400" on="1"/>
        <pt x="-1900" y="-275" on="0"/>
        <pt x="-1812" y="-188" on="1"/>
        <pt x="-1725" y="-100" on="0"/>
        <pt x="-1550" y="-100" on="1"/>
        <pt x="-1386" y="-100" on="0"/>
        <pt x="-1268" y="-184" on="1"/>
        <pt x="-1152" y="-267" on="0"/>
        <pt x="-1099" y="-367" on="1"/>
        <pt x="-1047" y="-467" on="0"/>
        <pt x="-1002" y="-508" on="1"/>
        <pt x="-956" y="-550" on="0"/>
        <pt x="-900" y="-550" on="1"/>
        <pt x="-900" y="-650" on="0"/>
        <pt x="-950" y="-650" on="1"/>
        <pt x="-1050" y="-650" on="0"/>
        <pt x="-1116" y="-604" on="1"/>
        <pt x="-1182" y="-558" on="0"/>
        <pt x="-1225" y="-458" on="1"/>
        <pt x="-1268" y="-358" on="0"/>
        <pt x="-1352" y="-279" on="1"/>
        <pt x="-1436" y="-200" on="0"/>
        <pt x="-1550" y="-200" on="1"/>
        <pt x="-1650" y="-200" on="0"/>
        <pt x="-1700" y="-262" on="1"/>
        <pt x="-1750" y="-325" on="0"/>
        <pt x="-1750" y="-400" on="1"/>
        <pt x="-1750" y="-475" on="0"/>
        <pt x="-1712" y="-512" on="1"/>
        <pt x="-1675" y="-550" on="0"/>
        <pt x="-1600" y="-550" on="1"/>
        <pt x="-1600" y="-600" on="0"/>
        <pt x="-1625" y="-625" on="1"/>
        <pt x="-1650" y="-650" on="0"/>
        <pt x="-1700" y="-650" on="1"/>
        <pt x="-1800" y="-650" on="0"/>
        <pt x="-1850" y="-588" on="1"/>
        <pt x="-1900" y="-525" on="0"/>
      </contour>
    </TTGlyph>
    <TTGlyph name="glyph239" xMin="-1800" yMin="-650" xMax="-1000" yMax="-50">
      <contour>
        <pt x="-1350" y="-164" on="1"/>
        <pt x="-1350" y="-142" on="0"/>
        <pt x="-1400" y="-142" on="1"/>
        <pt x="-1400" y="-96" on="0"/>
        <pt x="-1375" y="-73" on="1"/>
        <pt x="-1350" y="-50" on="0"/>
        <pt x="-1300" y="-50" on="1"/>
        <pt x="-1250" y="-50" on="0"/>
        <pt x="-1225" y="-73" on="1"/>
        <pt x="-1200" y="-96" on="0"/>
        <pt x="-1200" y="-142" on="1"/>
        <pt x="-1200" y="-187" on="0"/>
        <pt x="-1254" y="-255" on="1"/>
        <pt x="-1308" y="-323" on="0"/>
        <pt x="-1429" y="-385" on="1"/>
        <pt x="-1550" y="-448" on="0"/>
        <pt x="-1630" y="-467" on="1"/>
        <pt x="-1581" y="-526" on="0"/>
        <pt x="-1501" y="-526" on="1"/>
        <pt x="-1399" y="-526" on="0"/>
        <pt x="-1282" y="-429" on="1"/>
        <pt x="-1165" y="-333" on="0"/>
        <pt x="-1151" y="-270" on="1"/>
        <pt x="-1141" y="-230" on="0"/>
        <pt x="-1119" y="-211" on="1"/>
        <pt x="-1097" y="-192" on="0"/>
        <pt x="-1065" y="-192" on="1"/>
        <pt x="-1000" y="-192" on="0"/>
        <pt x="-1000" y="-238" on="1"/>
        <pt x="-1000" y="-556" on="1"/>
        <pt x="-1000" y="-602" on="0"/>
        <pt x="-1049" y="-625" on="1"/>
        <pt x="-1097" y="-650" on="0"/>
        <pt x="-1195" y="-650" on="1"/>
        <pt x="-1150" y="-602" on="0"/>
        <pt x="-1150" y="-556" on="1"/>
        <pt x="-1150" y="-476" on="1"/>
        <pt x="-1251" y="-577" on="0"/>
        <pt x="-1331" y="-613" on="1"/>
        <pt x="-1412" y="-650" on="0"/>
        <pt x="-1501" y="-650" on="1"/>
        <pt x="-1625" y="-650" on="0"/>
        <pt x="-1713" y="-604" on="1"/>
        <pt x="-1800" y="-561" on="0"/>
        <pt x="-1800" y="-473" on="1"/>
        <pt x="-1800" y="-370" on="0"/>
        <pt x="-1750" y="-355" on="1"/>
        <pt x="-1550" y="-295" on="0"/>
        <pt x="-1350" y="-186" on="0"/>
      </contour>
    </TTGlyph>
    <TTGlyph name="glyph240" xMin="-1815" yMin="-648" xMax="-984" yMax="-50">
      <contour>
        <pt x="-1172" y="-142" on="1"/>
        <pt x="-1189" y="-206" on="0"/>
        <pt x="-1246" y="-256" on="1"/>
        <pt x="-1310" y="-312" on="0"/>
        <pt x="-1382" y="-352" on="1"/>
        <pt x="-1332" y="-376" on="1"/>
        <pt x="-1263" y="-402" on="1"/>
        <pt x="-1251" y="-406" on="0"/>
        <pt x="-1240" y="-407" on="1"/>
        <pt x="-1233" y="-407" on="1"/>
        <pt x="-1197" y="-407" on="0"/>
        <pt x="-1172" y="-369" on="1"/>
        <pt x="-1146" y="-328" on="0"/>
        <pt x="-1136" y="-241" on="1"/>
        <pt x="-1135" y="-230" on="0"/>
        <pt x="-1135" y="-220" on="1"/>
        <pt x="-1135" y="-165" on="0"/>
      </contour>
      <contour>
        <pt x="-1665" y="-489" on="1"/>
        <pt x="-1666" y="-494" on="0"/>
        <pt x="-1666" y="-499" on="1"/>
        <pt x="-1666" y="-524" on="0"/>
        <pt x="-1648" y="-532" on="1"/>
        <pt x="-1627" y="-543" on="0"/>
        <pt x="-1579" y="-549" on="1"/>
        <pt x="-1566" y="-551" on="0"/>
        <pt x="-1553" y="-551" on="1"/>
        <pt x="-1523" y="-551" on="0"/>
        <pt x="-1500" y="-540" on="1"/>
        <pt x="-1468" y="-525" on="0"/>
        <pt x="-1462" y="-473" on="1"/>
        <pt x="-1455" y="-401" on="1"/>
        <pt x="-1502" y="-424" on="0"/>
        <pt x="-1554" y="-445" on="1"/>
        <pt x="-1606" y="-467" on="0"/>
      </contour>
      <contour>
        <pt x="-1167" y="-100" on="1"/>
        <pt x="-1143" y="-63" on="0"/>
        <pt x="-1105" y="-63" on="1"/>
        <pt x="-1097" y="-63" on="1"/>
        <pt x="-1054" y="-68" on="0"/>
        <pt x="-1016" y="-117" on="1"/>
        <pt x="-984" y="-156" on="0"/>
        <pt x="-984" y="-221" on="1"/>
        <pt x="-984" y="-237" on="0"/>
        <pt x="-987" y="-256" on="1"/>
        <pt x="-1003" y="-397" on="0"/>
        <pt x="-1058" y="-461" on="1"/>
        <pt x="-1106" y="-517" on="0"/>
        <pt x="-1183" y="-517" on="1"/>
        <pt x="-1195" y="-517" on="0"/>
        <pt x="-1208" y="-516" on="1"/>
        <pt x="-1227" y="-514" on="0"/>
        <pt x="-1272" y="-501" on="0"/>
        <pt x="-1297" y="-493" on="1"/>
        <pt x="-1363" y="-473" on="1"/>
        <pt x="-1374" y="-570" on="0"/>
        <pt x="-1426" y="-613" on="1"/>
        <pt x="-1469" y="-648" on="0"/>
        <pt x="-1540" y="-648" on="1"/>
        <pt x="-1556" y="-648" on="0"/>
        <pt x="-1574" y="-647" on="1"/>
        <pt x="-1703" y="-633" on="0"/>
        <pt x="-1763" y="-586" on="1"/>
        <pt x="-1815" y="-545" on="0"/>
        <pt x="-1815" y="-479" on="1"/>
        <pt x="-1815" y="-469" on="0"/>
        <pt x="-1814" y="-459" on="1"/>
        <pt x="-1806" y="-388" on="0"/>
        <pt x="-1754" y="-368" on="1"/>
        <pt x="-1584" y="-335" on="0"/>
        <pt x="-1465" y="-278" on="1"/>
        <pt x="-1347" y="-223" on="0"/>
        <pt x="-1309" y="-158" on="1"/>
        <pt x="-1293" y="-130" on="0"/>
        <pt x="-1293" y="-114" on="1"/>
        <pt x="-1293" y="-92" on="0"/>
        <pt x="-1321" y="-89" on="1"/>
        <pt x="-1316" y="-50" on="0"/>
        <pt x="-1247" y="-50" on="1"/>
        <pt x="-1172" y="-50" on="0"/>
      </contour>
    </TTGlyph>
    <TTGlyph name="glyph241" xMin="-1875" yMin="-650" xMax="-925" yMax="-50">
      <contour>
        <pt x="-1579" y="-540" on="1"/>
        <pt x="-1727" y="-540" on="0"/>
        <pt x="-1801" y="-492" on="1"/>
        <pt x="-1875" y="-444" on="0"/>
        <pt x="-1875" y="-349" on="1"/>
        <pt x="-1875" y="-265" on="0"/>
        <pt x="-1800" y="-213" on="1"/>
        <pt x="-1725" y="-162" on="0"/>
        <pt x="-1575" y="-162" on="1"/>
        <pt x="-1225" y="-162" on="1"/>
        <pt x="-1225" y="-136" on="1"/>
        <pt x="-1225" y="-50" on="0"/>
        <pt x="-1150" y="-50" on="1"/>
        <pt x="-1075" y="-50" on="0"/>
        <pt x="-1075" y="-136" on="1"/>
        <pt x="-1075" y="-162" on="1"/>
        <pt x="-925" y="-162" on="1"/>
        <pt x="-925" y="-274" on="1"/>
        <pt x="-1075" y="-274" on="1"/>
        <pt x="-1075" y="-398" on="1"/>
        <pt x="-1025" y="-398" on="0"/>
        <pt x="-1000" y="-427" on="1"/>
        <pt x="-975" y="-455" on="0"/>
        <pt x="-975" y="-533" on="1"/>
        <pt x="-975" y="-592" on="0"/>
        <pt x="-1006" y="-621" on="1"/>
        <pt x="-1038" y="-650" on="0"/>
        <pt x="-1100" y="-650" on="1"/>
        <pt x="-1162" y="-650" on="0"/>
        <pt x="-1194" y="-614" on="1"/>
        <pt x="-1225" y="-580" on="0"/>
        <pt x="-1225" y="-510" on="1"/>
        <pt x="-1525" y="-538" on="1"/>
        <pt x="-1552" y="-538" on="1"/>
        <pt x="-1560" y="-539" on="0"/>
        <pt x="-1573" y="-540" on="0"/>
      </contour>
      <contour>
        <pt x="-1725" y="-349" on="1"/>
        <pt x="-1725" y="-379" on="0"/>
        <pt x="-1692" y="-404" on="1"/>
        <pt x="-1660" y="-429" on="0"/>
        <pt x="-1575" y="-429" on="1"/>
        <pt x="-1552" y="-429" on="0"/>
        <pt x="-1525" y="-426" on="1"/>
        <pt x="-1225" y="-398" on="1"/>
        <pt x="-1225" y="-274" on="1"/>
        <pt x="-1575" y="-274" on="1"/>
        <pt x="-1660" y="-274" on="0"/>
        <pt x="-1692" y="-297" on="1"/>
        <pt x="-1725" y="-321" on="0"/>
      </contour>
    </TTGlyph>
    <TTGlyph name="glyph242" xMin="-1800" yMin="-648" xMax="-1000" yMax="-100">
      <contour>
        <pt x="-1150" y="-254" on="1"/>
        <pt x="-1150" y="-196" on="1"/>
        <pt x="-1190" y="-218" on="0"/>
        <pt x="-1190" y="-238" on="1"/>
        <pt x="-1190" y="-254" on="0"/>
      </contour>
      <contour>
        <pt x="-1800" y="-648" on="0"/>
        <pt x="-1800" y="-561" on="1"/>
        <pt x="-1800" y="-100" on="1"/>
        <pt x="-1650" y="-100" on="1"/>
        <pt x="-1650" y="-487" on="1"/>
        <pt x="-1400" y="-298" on="1"/>
        <pt x="-1150" y="-487" on="1"/>
        <pt x="-1150" y="-331" on="1"/>
        <pt x="-1215" y="-331" on="0"/>
        <pt x="-1253" y="-308" on="1"/>
        <pt x="-1290" y="-286" on="0"/>
        <pt x="-1290" y="-239" on="1"/>
        <pt x="-1290" y="-186" on="0"/>
        <pt x="-1220" y="-143" on="1"/>
        <pt x="-1150" y="-100" on="0"/>
        <pt x="-1075" y="-100" on="1"/>
        <pt x="-1000" y="-100" on="0"/>
        <pt x="-1000" y="-158" on="1"/>
        <pt x="-1000" y="-561" on="1"/>
        <pt x="-1000" y="-648" on="0"/>
        <pt x="-1095" y="-648" on="1"/>
        <pt x="-1150" y="-648" on="0"/>
        <pt x="-1212" y="-599" on="1"/>
        <pt x="-1400" y="-451" on="1"/>
        <pt x="-1587" y="-599" on="1"/>
        <pt x="-1650" y="-648" on="0"/>
        <pt x="-1705" y="-648" on="1"/>
      </contour>
    </TTGlyph>
    <TTGlyph name="glyph243" xMin="-1800" yMin="-650" xMax="-1000" yMax="-100">
      <contour>
        <pt x="-1622" y="-475" on="0"/>
        <pt x="-1642" y="-475" on="1"/>
        <pt x="-1642" y="-550" on="1"/>
        <pt x="-1601" y="-550" on="0"/>
        <pt x="-1601" y="-500" on="1"/>
        <pt x="-1601" y="-488" on="0"/>
        <pt x="-1612" y="-481" on="1"/>
      </contour>
      <contour>
        <pt x="-1642" y="-375" on="1"/>
        <pt x="-1579" y="-375" on="0"/>
        <pt x="-1548" y="-406" on="1"/>
        <pt x="-1517" y="-438" on="0"/>
        <pt x="-1517" y="-500" on="1"/>
        <pt x="-1517" y="-650" on="0"/>
        <pt x="-1642" y="-650" on="1"/>
        <pt x="-1800" y="-650" on="0"/>
        <pt x="-1800" y="-550" on="1"/>
        <pt x="-1800" y="-350" on="1"/>
        <pt x="-1800" y="-258" on="0"/>
        <pt x="-1717" y="-179" on="1"/>
        <pt x="-1635" y="-100" on="0"/>
        <pt x="-1582" y="-100" on="1"/>
        <pt x="-1538" y="-100" on="0"/>
        <pt x="-1399" y="-204" on="1"/>
        <pt x="-1260" y="-100" on="0"/>
        <pt x="-1216" y="-100" on="1"/>
        <pt x="-1164" y="-100" on="0"/>
        <pt x="-1082" y="-179" on="1"/>
        <pt x="-1000" y="-258" on="0"/>
        <pt x="-1000" y="-350" on="1"/>
        <pt x="-1000" y="-650" on="1"/>
        <pt x="-1157" y="-650" on="1"/>
        <pt x="-1157" y="-350" on="1"/>
        <pt x="-1157" y="-286" on="0"/>
        <pt x="-1200" y="-233" on="1"/>
        <pt x="-1210" y="-221" on="0"/>
        <pt x="-1226" y="-221" on="1"/>
        <pt x="-1280" y="-221" on="0"/>
        <pt x="-1399" y="-351" on="1"/>
        <pt x="-1519" y="-221" on="0"/>
        <pt x="-1573" y="-221" on="1"/>
        <pt x="-1589" y="-221" on="0"/>
        <pt x="-1599" y="-233" on="1"/>
        <pt x="-1642" y="-286" on="0"/>
        <pt x="-1642" y="-350" on="1"/>
      </contour>
    </TTGlyph>
    <TTGlyph name="glyph244" xMin="-1875" yMin="-650" xMax="-925" yMax="-100">
      <contour>
        <pt x="-1775" y="-491" on="1"/>
        <pt x="-1775" y="-518" on="0"/>
        <pt x="-1725" y="-537" on="1"/>
        <pt x="-1725" y="-470" on="1"/>
        <pt x="-1775" y="-470" on="0"/>
      </contour>
      <contour>
        <pt x="-1575" y="-350" on="1"/>
        <pt x="-1575" y="-575" on="1"/>
        <pt x="-1575" y="-650" on="0"/>
        <pt x="-1650" y="-650" on="1"/>
        <pt x="-1725" y="-650" on="0"/>
        <pt x="-1800" y="-605" on="1"/>
        <pt x="-1875" y="-560" on="0"/>
        <pt x="-1875" y="-490" on="1"/>
        <pt x="-1875" y="-430" on="0"/>
        <pt x="-1838" y="-400" on="1"/>
        <pt x="-1800" y="-370" on="0"/>
        <pt x="-1725" y="-370" on="1"/>
        <pt x="-1725" y="-350" on="1"/>
        <pt x="-1725" y="-220" on="0"/>
        <pt x="-1505" y="-100" on="0"/>
        <pt x="-1325" y="-100" on="1"/>
        <pt x="-1145" y="-100" on="0"/>
        <pt x="-925" y="-220" on="0"/>
        <pt x="-925" y="-350" on="1"/>
        <pt x="-925" y="-650" on="1"/>
        <pt x="-1075" y="-650" on="1"/>
        <pt x="-1075" y="-350" on="1"/>
        <pt x="-1075" y="-270" on="0"/>
        <pt x="-1220" y="-200" on="0"/>
        <pt x="-1325" y="-200" on="1"/>
        <pt x="-1430" y="-200" on="0"/>
        <pt x="-1575" y="-270" on="0"/>
      </contour>
    </TTGlyph>
    <TTGlyph name="glyph245" xMin="-1900" yMin="-650" xMax="-900" yMax="-100">
      <contour>
        <pt x="-1699" y="-494" on="1"/>
        <pt x="-1799" y="-494" on="0"/>
        <pt x="-1850" y="-446" on="1"/>
        <pt x="-1900" y="-397" on="0"/>
        <pt x="-1900" y="-300" on="1"/>
        <pt x="-1900" y="-250" on="0"/>
        <pt x="-1863" y="-225" on="1"/>
        <pt x="-1825" y="-200" on="0"/>
        <pt x="-1730" y="-200" on="1"/>
        <pt x="-1730" y="-280" on="1"/>
        <pt x="-1730" y="-316" on="0"/>
        <pt x="-1707" y="-338" on="1"/>
        <pt x="-1685" y="-361" on="0"/>
        <pt x="-1640" y="-361" on="1"/>
        <pt x="-1630" y="-361" on="1"/>
        <pt x="-1621" y="-361" on="0"/>
        <pt x="-1620" y="-360" on="1"/>
        <pt x="-1250" y="-320" on="1"/>
        <pt x="-1250" y="-100" on="1"/>
        <pt x="-1100" y="-100" on="1"/>
        <pt x="-1100" y="-320" on="1"/>
        <pt x="-1000" y="-320" on="0"/>
        <pt x="-900" y="-425" on="0"/>
        <pt x="-900" y="-500" on="1"/>
        <pt x="-900" y="-575" on="0"/>
        <pt x="-944" y="-612" on="1"/>
        <pt x="-987" y="-650" on="0"/>
        <pt x="-1075" y="-650" on="1"/>
        <pt x="-1163" y="-650" on="0"/>
        <pt x="-1206" y="-600" on="1"/>
        <pt x="-1250" y="-550" on="0"/>
        <pt x="-1250" y="-450" on="1"/>
        <pt x="-1640" y="-490" on="1"/>
        <pt x="-1643" y="-490" on="1"/>
        <pt x="-1658" y="-491" on="0"/>
        <pt x="-1686" y="-494" on="0"/>
      </contour>
      <contour>
        <pt x="-1020" y="-500" on="1"/>
        <pt x="-1020" y="-450" on="0"/>
        <pt x="-1100" y="-450" on="1"/>
        <pt x="-1100" y="-530" on="0"/>
        <pt x="-1061" y="-530" on="1"/>
        <pt x="-1060" y="-530" on="1"/>
        <pt x="-1020" y="-530" on="0"/>
      </contour>
    </TTGlyph>
    <TTGlyph name="glyph246" xMin="-1941" yMin="-650" xMax="-859" yMax="-100">
      <contour>
        <pt x="-1941" y="-436" on="1"/>
        <pt x="-1941" y="-283" on="0"/>
        <pt x="-1866" y="-191" on="1"/>
        <pt x="-1791" y="-100" on="0"/>
        <pt x="-1641" y="-100" on="1"/>
        <pt x="-1521" y="-100" on="0"/>
        <pt x="-1439" y="-164" on="1"/>
        <pt x="-1357" y="-229" on="0"/>
        <pt x="-1313" y="-359" on="1"/>
        <pt x="-1271" y="-458" on="0"/>
        <pt x="-1190" y="-517" on="0"/>
        <pt x="-1151" y="-517" on="1"/>
        <pt x="-1112" y="-517" on="0"/>
        <pt x="-1031" y="-328" on="0"/>
        <pt x="-1009" y="-214" on="1"/>
        <pt x="-988" y="-100" on="0"/>
        <pt x="-912" y="-100" on="1"/>
        <pt x="-859" y="-100" on="0"/>
        <pt x="-859" y="-165" on="1"/>
        <pt x="-859" y="-194" on="0"/>
        <pt x="-870" y="-237" on="1"/>
        <pt x="-905" y="-374" on="0"/>
        <pt x="-981" y="-511" on="1"/>
        <pt x="-1058" y="-649" on="0"/>
        <pt x="-1143" y="-649" on="1"/>
        <pt x="-1253" y="-649" on="0"/>
        <pt x="-1326" y="-595" on="1"/>
        <pt x="-1399" y="-541" on="0"/>
        <pt x="-1435" y="-433" on="1"/>
        <pt x="-1473" y="-312" on="0"/>
        <pt x="-1576" y="-211" on="0"/>
        <pt x="-1641" y="-211" on="1"/>
        <pt x="-1716" y="-211" on="0"/>
        <pt x="-1791" y="-328" on="0"/>
        <pt x="-1791" y="-436" on="1"/>
        <pt x="-1791" y="-528" on="0"/>
        <pt x="-1741" y="-528" on="1"/>
        <pt x="-1691" y="-528" on="0"/>
        <pt x="-1691" y="-467" on="1"/>
        <pt x="-1641" y="-467" on="0"/>
        <pt x="-1616" y="-489" on="1"/>
        <pt x="-1591" y="-512" on="0"/>
        <pt x="-1591" y="-558" on="1"/>
        <pt x="-1591" y="-604" on="0"/>
        <pt x="-1629" y="-627" on="1"/>
        <pt x="-1666" y="-650" on="0"/>
        <pt x="-1741" y="-650" on="1"/>
        <pt x="-1841" y="-650" on="0"/>
        <pt x="-1891" y="-604" on="1"/>
        <pt x="-1941" y="-558" on="0"/>
      </contour>
    </TTGlyph>
    <TTGlyph name="glyph247" xMin="-1800" yMin="-650" xMax="-1000" yMax="-50">
      <contour>
        <pt x="-1279" y="-650" on="0"/>
        <pt x="-1500" y="-650" on="1"/>
        <pt x="-1650" y="-650" on="0"/>
        <pt x="-1725" y="-599" on="1"/>
        <pt x="-1800" y="-549" on="0"/>
        <pt x="-1800" y="-451" on="1"/>
        <pt x="-1800" y="-327" on="0"/>
        <pt x="-1710" y="-326" on="1"/>
        <pt x="-1620" y="-326" on="0"/>
        <pt x="-1335" y="-208" on="0"/>
        <pt x="-1150" y="-50" on="1"/>
        <pt x="-1000" y="-50" on="0"/>
        <pt x="-1000" y="-200" on="1"/>
        <pt x="-1000" y="-407" on="0"/>
        <pt x="-1139" y="-528" on="1"/>
      </contour>
      <contour>
        <pt x="-1210" y="-254" on="1"/>
        <pt x="-1315" y="-331" on="0"/>
        <pt x="-1425" y="-380" on="1"/>
        <pt x="-1535" y="-429" on="0"/>
        <pt x="-1640" y="-451" on="1"/>
        <pt x="-1640" y="-486" on="0"/>
        <pt x="-1602" y="-509" on="1"/>
        <pt x="-1565" y="-532" on="0"/>
        <pt x="-1500" y="-532" on="1"/>
        <pt x="-1360" y="-532" on="0"/>
        <pt x="-1262" y="-438" on="1"/>
        <pt x="-1164" y="-344" on="0"/>
        <pt x="-1152" y="-211" on="1"/>
        <pt x="-1157" y="-214" on="1"/>
        <pt x="-1170" y="-224" on="0"/>
        <pt x="-1196" y="-244" on="0"/>
      </contour>
    </TTGlyph>
    <TTGlyph name="glyph248" xMin="-1825" yMin="-650" xMax="-975" yMax="-100">
      <contour>
        <pt x="-1675" y="-450" on="1"/>
        <pt x="-1675" y="-500" on="0"/>
        <pt x="-1650" y="-525" on="1"/>
        <pt x="-1625" y="-550" on="0"/>
        <pt x="-1575" y="-550" on="1"/>
        <pt x="-1525" y="-550" on="0"/>
        <pt x="-1500" y="-525" on="1"/>
        <pt x="-1475" y="-500" on="0"/>
        <pt x="-1475" y="-450" on="1"/>
        <pt x="-1475" y="-300" on="1"/>
        <pt x="-1475" y="-200" on="0"/>
        <pt x="-1413" y="-150" on="1"/>
        <pt x="-1350" y="-100" on="0"/>
        <pt x="-1225" y="-100" on="1"/>
        <pt x="-1100" y="-100" on="0"/>
        <pt x="-1037" y="-150" on="1"/>
        <pt x="-975" y="-200" on="0"/>
        <pt x="-975" y="-300" on="1"/>
        <pt x="-975" y="-650" on="1"/>
        <pt x="-1125" y="-650" on="1"/>
        <pt x="-1125" y="-300" on="1"/>
        <pt x="-1125" y="-250" on="0"/>
        <pt x="-1150" y="-225" on="1"/>
        <pt x="-1175" y="-200" on="0"/>
        <pt x="-1225" y="-200" on="1"/>
        <pt x="-1275" y="-200" on="0"/>
        <pt x="-1300" y="-225" on="1"/>
        <pt x="-1325" y="-250" on="0"/>
        <pt x="-1325" y="-300" on="1"/>
        <pt x="-1325" y="-450" on="1"/>
        <pt x="-1325" y="-550" on="0"/>
        <pt x="-1387" y="-600" on="1"/>
        <pt x="-1450" y="-650" on="0"/>
        <pt x="-1575" y="-650" on="1"/>
        <pt x="-1700" y="-650" on="0"/>
        <pt x="-1763" y="-600" on="1"/>
        <pt x="-1825" y="-550" on="0"/>
        <pt x="-1825" y="-450" on="1"/>
        <pt x="-1825" y="-100" on="1"/>
        <pt x="-1675" y="-100" on="1"/>
      </contour>
    </TTGlyph>
    <TTGlyph name="glyph249" xMin="-1840" yMin="-650" xMax="-960" yMax="-100">
      <contour>
        <pt x="-1840" y="-525" on="1"/>
        <pt x="-1840" y="-450" on="0"/>
        <pt x="-1760" y="-450" on="1"/>
        <pt x="-1760" y="-230" on="1"/>
        <pt x="-1760" y="-200" on="0"/>
        <pt x="-1790" y="-200" on="1"/>
        <pt x="-1840" y="-200" on="0"/>
        <pt x="-1840" y="-150" on="1"/>
        <pt x="-1840" y="-100" on="0"/>
        <pt x="-1785" y="-100" on="1"/>
        <pt x="-1610" y="-100" on="0"/>
        <pt x="-1610" y="-230" on="1"/>
        <pt x="-1610" y="-290" on="1"/>
        <pt x="-1110" y="-290" on="1"/>
        <pt x="-1110" y="-230" on="1"/>
        <pt x="-1110" y="-200" on="0"/>
        <pt x="-1140" y="-200" on="1"/>
        <pt x="-1190" y="-200" on="0"/>
        <pt x="-1190" y="-150" on="1"/>
        <pt x="-1190" y="-100" on="0"/>
        <pt x="-1135" y="-100" on="1"/>
        <pt x="-960" y="-100" on="0"/>
        <pt x="-960" y="-230" on="1"/>
        <pt x="-960" y="-550" on="1"/>
        <pt x="-960" y="-650" on="0"/>
        <pt x="-1035" y="-650" on="1"/>
        <pt x="-1110" y="-650" on="0"/>
        <pt x="-1190" y="-571" on="0"/>
        <pt x="-1190" y="-525" on="1"/>
        <pt x="-1190" y="-450" on="0"/>
        <pt x="-1110" y="-450" on="1"/>
        <pt x="-1110" y="-390" on="1"/>
        <pt x="-1610" y="-390" on="1"/>
        <pt x="-1610" y="-550" on="1"/>
        <pt x="-1610" y="-650" on="0"/>
        <pt x="-1685" y="-650" on="1"/>
        <pt x="-1760" y="-650" on="0"/>
        <pt x="-1840" y="-571" on="0"/>
      </contour>
    </TTGlyph>
    <TTGlyph name="glyph250" xMin="-1645" yMin="1800" xMax="-1155" yMax="2250">
      <contour>
        <pt x="-1480" y="2250" on="1"/>
        <pt x="-1480" y="1910" on="1"/>
        <pt x="-1480" y="1830" on="0"/>
        <pt x="-1562" y="1800" on="1"/>
        <pt x="-1645" y="1830" on="0"/>
        <pt x="-1645" y="1910" on="1"/>
        <pt x="-1645" y="2250" on="1"/>
      </contour>
      <contour>
        <pt x="-1155" y="2250" on="1"/>
        <pt x="-1155" y="1910" on="1"/>
        <pt x="-1155" y="1830" on="0"/>
        <pt x="-1237" y="1800" on="1"/>
        <pt x="-1320" y="1830" on="0"/>
        <pt x="-1320" y="1910" on="1"/>
        <pt x="-1320" y="2250" on="1"/>
      </contour>
    </TTGlyph>
    <TTGlyph name="glyph251" xMin="-1975" yMin="1600" xMax="-825" yMax="1906">
      <contour>
        <pt x="-1856" y="1600" on="1"/>
        <pt x="-1975" y="1640" on="0"/>
        <pt x="-1975" y="1695" on="1"/>
        <pt x="-1975" y="1732" on="0"/>
        <pt x="-1910" y="1775" on="1"/>
        <pt x="-1844" y="1818" on="1"/>
        <pt x="-1713" y="1906" on="0"/>
        <pt x="-1681" y="1906" on="1"/>
        <pt x="-1647" y="1906" on="0"/>
        <pt x="-1536" y="1827" on="1"/>
        <pt x="-1480" y="1787" on="1"/>
        <pt x="-1453" y="1767" on="0"/>
        <pt x="-1425" y="1767" on="1"/>
        <pt x="-1400" y="1767" on="0"/>
        <pt x="-1374" y="1787" on="1"/>
        <pt x="-1324" y="1827" on="1"/>
        <pt x="-1223" y="1906" on="0"/>
        <pt x="-1187" y="1906" on="1"/>
        <pt x="-1152" y="1906" on="0"/>
        <pt x="-1095" y="1862" on="1"/>
        <pt x="-981" y="1774" on="1"/>
        <pt x="-948" y="1748" on="0"/>
        <pt x="-899" y="1748" on="1"/>
        <pt x="-866" y="1748" on="0"/>
        <pt x="-825" y="1760" on="1"/>
        <pt x="-925" y="1642" on="0"/>
        <pt x="-990" y="1642" on="1"/>
        <pt x="-1056" y="1642" on="0"/>
        <pt x="-1092" y="1670" on="1"/>
        <pt x="-1165" y="1727" on="1"/>
        <pt x="-1202" y="1756" on="0"/>
        <pt x="-1245" y="1756" on="1"/>
        <pt x="-1288" y="1756" on="0"/>
        <pt x="-1356" y="1699" on="1"/>
        <pt x="-1425" y="1642" on="0"/>
        <pt x="-1465" y="1642" on="1"/>
        <pt x="-1532" y="1642" on="0"/>
        <pt x="-1573" y="1670" on="1"/>
        <pt x="-1654" y="1727" on="1"/>
        <pt x="-1695" y="1756" on="0"/>
        <pt x="-1738" y="1756" on="1"/>
        <pt x="-1771" y="1756" on="0"/>
        <pt x="-1798" y="1735" on="1"/>
        <pt x="-1825" y="1714" on="0"/>
        <pt x="-1825" y="1688" on="1"/>
        <pt x="-1825" y="1664" on="0"/>
        <pt x="-1751" y="1634" on="1"/>
      </contour>
    </TTGlyph>
    <TTGlyph name="glyph252" xMin="-1744" yMin="1850" xMax="-1056" yMax="2475">
      <contour>
        <pt x="-1476" y="1966" on="1"/>
        <pt x="-1519" y="1947" on="0"/>
        <pt x="-1580" y="1899" on="1"/>
        <pt x="-1641" y="1850" on="0"/>
        <pt x="-1679" y="1850" on="1"/>
        <pt x="-1711" y="1850" on="0"/>
        <pt x="-1731" y="1877" on="1"/>
        <pt x="-1744" y="1896" on="0"/>
        <pt x="-1744" y="1915" on="1"/>
        <pt x="-1744" y="1976" on="0"/>
        <pt x="-1680" y="2021" on="1"/>
        <pt x="-1586" y="2085" on="1"/>
        <pt x="-1444" y="2182" on="0"/>
        <pt x="-1381" y="2332" on="0"/>
        <pt x="-1381" y="2375" on="1"/>
        <pt x="-1381" y="2475" on="0"/>
        <pt x="-1296" y="2475" on="1"/>
        <pt x="-1212" y="2475" on="0"/>
        <pt x="-1212" y="2375" on="1"/>
        <pt x="-1213" y="2302" on="0"/>
        <pt x="-1277" y="2186" on="0"/>
        <pt x="-1415" y="2076" on="1"/>
        <pt x="-1346" y="2101" on="0"/>
        <pt x="-1284" y="2101" on="1"/>
        <pt x="-1253" y="2101" on="0"/>
        <pt x="-1224" y="2095" on="1"/>
        <pt x="-1137" y="2076" on="0"/>
        <pt x="-1076" y="1984" on="1"/>
        <pt x="-1056" y="1949" on="0"/>
        <pt x="-1056" y="1922" on="1"/>
        <pt x="-1056" y="1884" on="0"/>
        <pt x="-1094" y="1863" on="1"/>
        <pt x="-1115" y="1850" on="0"/>
        <pt x="-1135" y="1850" on="1"/>
        <pt x="-1173" y="1850" on="0"/>
        <pt x="-1203" y="1900" on="1"/>
        <pt x="-1247" y="1975" on="0"/>
        <pt x="-1315" y="1985" on="1"/>
        <pt x="-1433" y="1985" on="0"/>
      </contour>
    </TTGlyph>
    <TTGlyph name="glyph253" xMin="-1610" yMin="1850" xMax="-1190" yMax="2269">
      <contour>
        <pt x="-1460" y="1999" on="1"/>
        <pt x="-1610" y="1999" on="1"/>
        <pt x="-1610" y="2120" on="1"/>
        <pt x="-1460" y="2120" on="1"/>
        <pt x="-1460" y="2269" on="1"/>
        <pt x="-1340" y="2269" on="1"/>
        <pt x="-1340" y="2120" on="1"/>
        <pt x="-1190" y="2120" on="1"/>
        <pt x="-1190" y="1999" on="1"/>
        <pt x="-1340" y="1999" on="1"/>
        <pt x="-1340" y="1850" on="1"/>
        <pt x="-1460" y="1850" on="1"/>
      </contour>
    </TTGlyph>
    <TTGlyph name="glyph254" xMin="0" yMin="0" xMax="1880" yMax="1500">
      <contour>
        <pt x="780" y="900" on="1"/>
        <pt x="880" y="1100" on="0"/>
        <pt x="1280" y="1100" on="1"/>
        <pt x="1680" y="1100" on="0"/>
        <pt x="1780" y="900" on="1"/>
        <pt x="1780" y="0" on="1"/>
        <pt x="1600" y="0" on="1"/>
        <pt x="1600" y="860" on="1"/>
        <pt x="1540" y="980" on="0"/>
        <pt x="1280" y="980" on="1"/>
        <pt x="1020" y="980" on="0"/>
        <pt x="960" y="860" on="1"/>
        <pt x="960" y="0" on="1"/>
        <pt x="780" y="0" on="1"/>
      </contour>
      <contour>
        <pt x="783" y="1040" on="0"/>
        <pt x="680" y="1137" on="0"/>
        <pt x="680" y="1206" on="1"/>
        <pt x="680" y="1275" on="0"/>
        <pt x="914" y="1500" on="1"/>
        <pt x="1124" y="1500" on="0"/>
        <pt x="1307" y="1326" on="1"/>
        <pt x="1496" y="1500" on="0"/>
        <pt x="1543" y="1500" on="1"/>
        <pt x="1629" y="1500" on="0"/>
        <pt x="1728" y="1409" on="1"/>
        <pt x="1790" y="1351" on="0"/>
        <pt x="1834" y="1351" on="1"/>
        <pt x="1860" y="1351" on="0"/>
        <pt x="1880" y="1371" on="1"/>
        <pt x="1880" y="1288" on="0"/>
        <pt x="1847" y="1231" on="1"/>
        <pt x="1813" y="1174" on="0"/>
        <pt x="1756" y="1174" on="1"/>
        <pt x="1699" y="1174" on="0"/>
        <pt x="1507" y="1322" on="1"/>
        <pt x="1506" y="1322" on="1"/>
        <pt x="1436" y="1322" on="0"/>
        <pt x="1241" y="1145" on="1"/>
        <pt x="1131" y="1249" on="0"/>
        <pt x="984" y="1319" on="0"/>
        <pt x="914" y="1324" on="1"/>
        <pt x="814" y="1230" on="1"/>
        <pt x="832" y="1123" on="0"/>
        <pt x="943" y="1068" on="1"/>
        <pt x="865" y="1029" on="1"/>
      </contour>
      <contour>
        <pt x="380" y="150" on="1"/>
        <pt x="440" y="150" on="0"/>
        <pt x="440" y="300" on="1"/>
        <pt x="440" y="400" on="0"/>
        <pt x="380" y="400" on="1"/>
      </contour>
      <contour>
        <pt x="200" y="963" on="1"/>
        <pt x="200" y="1069" on="0"/>
        <pt x="0" y="1131" on="1"/>
        <pt x="20" y="1232" on="0"/>
        <pt x="171" y="1500" on="0"/>
        <pt x="225" y="1500" on="1"/>
        <pt x="269" y="1500" on="0"/>
        <pt x="340" y="1457" on="1"/>
        <pt x="410" y="1414" on="1"/>
        <pt x="441" y="1395" on="0"/>
        <pt x="483" y="1395" on="1"/>
        <pt x="505" y="1395" on="0"/>
        <pt x="530" y="1400" on="1"/>
        <pt x="520" y="1330" on="0"/>
        <pt x="459" y="1241" on="0"/>
        <pt x="408" y="1236" on="1"/>
        <pt x="403" y="1235" on="0"/>
        <pt x="398" y="1235" on="1"/>
        <pt x="348" y="1235" on="0"/>
        <pt x="263" y="1288" on="1"/>
        <pt x="237" y="1303" on="0"/>
        <pt x="215" y="1303" on="1"/>
        <pt x="152" y="1303" on="0"/>
        <pt x="106" y="1188" on="1"/>
        <pt x="380" y="1100" on="0"/>
        <pt x="380" y="1020" on="1"/>
        <pt x="380" y="500" on="1"/>
        <pt x="540" y="500" on="0"/>
        <pt x="540" y="300" on="1"/>
        <pt x="540" y="200" on="0"/>
        <pt x="435" y="0" on="0"/>
        <pt x="330" y="0" on="1"/>
        <pt x="200" y="0" on="0"/>
        <pt x="200" y="100" on="1"/>
      </contour>
    </TTGlyph>
    <TTGlyph name="glyph255" xMin="0" yMin="0" xMax="1780" yMax="1500">
      <contour>
        <pt x="960" y="1025" on="1"/>
        <pt x="960" y="950" on="1"/>
        <pt x="1016" y="950" on="0"/>
        <pt x="1016" y="1000" on="1"/>
        <pt x="1016" y="1025" on="0"/>
      </contour>
      <contour>
        <pt x="1780" y="300" on="1"/>
        <pt x="1780" y="0" on="0"/>
        <pt x="1280" y="0" on="1"/>
        <pt x="780" y="0" on="0"/>
        <pt x="780" y="300" on="1"/>
        <pt x="780" y="567" on="1"/>
        <pt x="1600" y="880" on="0"/>
        <pt x="1600" y="1050" on="1"/>
        <pt x="1600" y="1200" on="1"/>
        <pt x="1600" y="1380" on="0"/>
        <pt x="1280" y="1380" on="1"/>
        <pt x="960" y="1380" on="0"/>
        <pt x="960" y="1200" on="1"/>
        <pt x="960" y="1125" on="1"/>
        <pt x="1042" y="1125" on="0"/>
        <pt x="1079" y="1094" on="1"/>
        <pt x="1116" y="1062" on="0"/>
        <pt x="1116" y="1000" on="1"/>
        <pt x="1116" y="850" on="0"/>
        <pt x="948" y="850" on="1"/>
        <pt x="780" y="850" on="0"/>
        <pt x="780" y="950" on="1"/>
        <pt x="780" y="1200" on="1"/>
        <pt x="780" y="1500" on="0"/>
        <pt x="1280" y="1500" on="1"/>
        <pt x="1780" y="1500" on="0"/>
        <pt x="1780" y="1200" on="1"/>
        <pt x="1780" y="1050" on="1"/>
        <pt x="1780" y="810" on="0"/>
        <pt x="960" y="508" on="1"/>
        <pt x="960" y="300" on="1"/>
        <pt x="960" y="120" on="0"/>
        <pt x="1280" y="120" on="1"/>
        <pt x="1600" y="120" on="0"/>
        <pt x="1600" y="300" on="1"/>
        <pt x="1600" y="600" on="1"/>
        <pt x="1780" y="600" on="1"/>
      </contour>
      <contour>
        <pt x="380" y="150" on="1"/>
        <pt x="440" y="150" on="0"/>
        <pt x="440" y="300" on="1"/>
        <pt x="440" y="400" on="0"/>
        <pt x="380" y="400" on="1"/>
      </contour>
      <contour>
        <pt x="200" y="963" on="1"/>
        <pt x="200" y="1069" on="0"/>
        <pt x="0" y="1131" on="1"/>
        <pt x="20" y="1232" on="0"/>
        <pt x="171" y="1500" on="0"/>
        <pt x="225" y="1500" on="1"/>
        <pt x="269" y="1500" on="0"/>
        <pt x="340" y="1457" on="1"/>
        <pt x="410" y="1414" on="1"/>
        <pt x="441" y="1395" on="0"/>
        <pt x="483" y="1395" on="1"/>
        <pt x="505" y="1395" on="0"/>
        <pt x="530" y="1400" on="1"/>
        <pt x="520" y="1330" on="0"/>
        <pt x="459" y="1241" on="0"/>
        <pt x="408" y="1236" on="1"/>
        <pt x="403" y="1235" on="0"/>
        <pt x="398" y="1235" on="1"/>
        <pt x="348" y="1235" on="0"/>
        <pt x="263" y="1288" on="1"/>
        <pt x="237" y="1303" on="0"/>
        <pt x="215" y="1303" on="1"/>
        <pt x="152" y="1303" on="0"/>
        <pt x="106" y="1188" on="1"/>
        <pt x="380" y="1100" on="0"/>
        <pt x="380" y="1020" on="1"/>
        <pt x="380" y="500" on="1"/>
        <pt x="540" y="500" on="0"/>
        <pt x="540" y="300" on="1"/>
        <pt x="540" y="200" on="0"/>
        <pt x="435" y="0" on="0"/>
        <pt x="330" y="0" on="1"/>
        <pt x="200" y="0" on="0"/>
        <pt x="200" y="100" on="1"/>
      </contour>
    </TTGlyph>
    <TTGlyph name="glyph256" xMin="0" yMin="0" xMax="1880" yMax="1500">
      <contour>
        <pt x="783" y="1040" on="0"/>
        <pt x="680" y="1137" on="0"/>
        <pt x="680" y="1206" on="1"/>
        <pt x="680" y="1275" on="0"/>
        <pt x="914" y="1500" on="1"/>
        <pt x="1124" y="1500" on="0"/>
        <pt x="1307" y="1326" on="1"/>
        <pt x="1496" y="1500" on="0"/>
        <pt x="1543" y="1500" on="1"/>
        <pt x="1629" y="1500" on="0"/>
        <pt x="1728" y="1409" on="1"/>
        <pt x="1790" y="1351" on="0"/>
        <pt x="1834" y="1351" on="1"/>
        <pt x="1860" y="1351" on="0"/>
        <pt x="1880" y="1371" on="1"/>
        <pt x="1880" y="1288" on="0"/>
        <pt x="1847" y="1231" on="1"/>
        <pt x="1813" y="1174" on="0"/>
        <pt x="1756" y="1174" on="1"/>
        <pt x="1699" y="1174" on="0"/>
        <pt x="1507" y="1322" on="1"/>
        <pt x="1506" y="1322" on="1"/>
        <pt x="1436" y="1322" on="0"/>
        <pt x="1241" y="1145" on="1"/>
        <pt x="1131" y="1249" on="0"/>
        <pt x="984" y="1319" on="0"/>
        <pt x="914" y="1324" on="1"/>
        <pt x="814" y="1230" on="1"/>
        <pt x="832" y="1123" on="0"/>
        <pt x="943" y="1068" on="1"/>
        <pt x="865" y="1029" on="1"/>
      </contour>
      <contour>
        <pt x="960" y="270" on="1"/>
        <pt x="1078" y="500" on="0"/>
        <pt x="1242" y="500" on="1"/>
        <pt x="1380" y="500" on="0"/>
        <pt x="1380" y="380" on="1"/>
        <pt x="1380" y="300" on="0"/>
        <pt x="1303" y="300" on="1"/>
        <pt x="1246" y="300" on="0"/>
        <pt x="1246" y="333" on="1"/>
        <pt x="1246" y="366" on="0"/>
        <pt x="1202" y="366" on="1"/>
        <pt x="1130" y="366" on="0"/>
        <pt x="960" y="37" on="1"/>
        <pt x="960" y="0" on="1"/>
        <pt x="780" y="0" on="1"/>
        <pt x="780" y="900" on="1"/>
        <pt x="880" y="1100" on="0"/>
        <pt x="1280" y="1100" on="1"/>
        <pt x="1680" y="1100" on="0"/>
        <pt x="1780" y="900" on="1"/>
        <pt x="1780" y="0" on="1"/>
        <pt x="1600" y="0" on="1"/>
        <pt x="1600" y="860" on="1"/>
        <pt x="1540" y="980" on="0"/>
        <pt x="1280" y="980" on="1"/>
        <pt x="1020" y="980" on="0"/>
        <pt x="960" y="860" on="1"/>
      </contour>
      <contour>
        <pt x="380" y="150" on="1"/>
        <pt x="440" y="150" on="0"/>
        <pt x="440" y="300" on="1"/>
        <pt x="440" y="400" on="0"/>
        <pt x="380" y="400" on="1"/>
      </contour>
      <contour>
        <pt x="200" y="963" on="1"/>
        <pt x="200" y="1069" on="0"/>
        <pt x="0" y="1131" on="1"/>
        <pt x="20" y="1232" on="0"/>
        <pt x="171" y="1500" on="0"/>
        <pt x="225" y="1500" on="1"/>
        <pt x="269" y="1500" on="0"/>
        <pt x="340" y="1457" on="1"/>
        <pt x="410" y="1414" on="1"/>
        <pt x="441" y="1395" on="0"/>
        <pt x="483" y="1395" on="1"/>
        <pt x="505" y="1395" on="0"/>
        <pt x="530" y="1400" on="1"/>
        <pt x="520" y="1330" on="0"/>
        <pt x="459" y="1241" on="0"/>
        <pt x="408" y="1236" on="1"/>
        <pt x="403" y="1235" on="0"/>
        <pt x="398" y="1235" on="1"/>
        <pt x="348" y="1235" on="0"/>
        <pt x="263" y="1288" on="1"/>
        <pt x="237" y="1303" on="0"/>
        <pt x="215" y="1303" on="1"/>
        <pt x="152" y="1303" on="0"/>
        <pt x="106" y="1188" on="1"/>
        <pt x="380" y="1100" on="0"/>
        <pt x="380" y="1020" on="1"/>
        <pt x="380" y="500" on="1"/>
        <pt x="540" y="500" on="0"/>
        <pt x="540" y="300" on="1"/>
        <pt x="540" y="200" on="0"/>
        <pt x="435" y="0" on="0"/>
        <pt x="330" y="0" on="1"/>
        <pt x="200" y="0" on="0"/>
        <pt x="200" y="100" on="1"/>
      </contour>
    </TTGlyph>
    <TTGlyph name="glyph257" xMin="0" yMin="0" xMax="2630" yMax="1500">
      <contour>
        <pt x="780" y="1350" on="1"/>
        <pt x="700" y="1330" on="0"/>
        <pt x="700" y="1200" on="1"/>
        <pt x="700" y="1100" on="0"/>
        <pt x="780" y="1100" on="1"/>
      </contour>
      <contour>
        <pt x="2300" y="963" on="1"/>
        <pt x="2300" y="1069" on="0"/>
        <pt x="2100" y="1131" on="1"/>
        <pt x="2120" y="1232" on="0"/>
        <pt x="2271" y="1500" on="0"/>
        <pt x="2325" y="1500" on="1"/>
        <pt x="2369" y="1500" on="0"/>
        <pt x="2440" y="1457" on="1"/>
        <pt x="2510" y="1414" on="1"/>
        <pt x="2541" y="1395" on="0"/>
        <pt x="2583" y="1395" on="1"/>
        <pt x="2605" y="1395" on="0"/>
        <pt x="2630" y="1400" on="1"/>
        <pt x="2620" y="1330" on="0"/>
        <pt x="2559" y="1241" on="0"/>
        <pt x="2508" y="1236" on="1"/>
        <pt x="2503" y="1235" on="0"/>
        <pt x="2498" y="1235" on="1"/>
        <pt x="2448" y="1235" on="0"/>
        <pt x="2363" y="1288" on="1"/>
        <pt x="2337" y="1303" on="0"/>
        <pt x="2315" y="1303" on="1"/>
        <pt x="2252" y="1303" on="0"/>
        <pt x="2206" y="1188" on="1"/>
        <pt x="2480" y="1100" on="0"/>
        <pt x="2480" y="1020" on="1"/>
        <pt x="2480" y="200" on="1"/>
        <pt x="2380" y="0" on="0"/>
        <pt x="2010" y="0" on="1"/>
        <pt x="1757" y="0" on="0"/>
        <pt x="1630" y="94" on="1"/>
        <pt x="1503" y="0" on="0"/>
        <pt x="1250" y="0" on="1"/>
        <pt x="880" y="0" on="0"/>
        <pt x="780" y="200" on="1"/>
        <pt x="780" y="1000" on="1"/>
        <pt x="600" y="1000" on="0"/>
        <pt x="600" y="1200" on="1"/>
        <pt x="600" y="1330" on="0"/>
        <pt x="665" y="1415" on="1"/>
        <pt x="730" y="1500" on="0"/>
        <pt x="810" y="1500" on="1"/>
        <pt x="960" y="1500" on="0"/>
        <pt x="960" y="1400" on="1"/>
        <pt x="960" y="240" on="1"/>
        <pt x="1020" y="120" on="0"/>
        <pt x="1250" y="120" on="1"/>
        <pt x="1480" y="120" on="0"/>
        <pt x="1540" y="240" on="1"/>
        <pt x="1540" y="963" on="1"/>
        <pt x="1540" y="1069" on="0"/>
        <pt x="1340" y="1131" on="1"/>
        <pt x="1360" y="1232" on="0"/>
        <pt x="1511" y="1500" on="0"/>
        <pt x="1565" y="1500" on="1"/>
        <pt x="1609" y="1500" on="0"/>
        <pt x="1680" y="1457" on="1"/>
        <pt x="1750" y="1414" on="1"/>
        <pt x="1781" y="1395" on="0"/>
        <pt x="1823" y="1395" on="1"/>
        <pt x="1845" y="1395" on="0"/>
        <pt x="1870" y="1400" on="1"/>
        <pt x="1860" y="1330" on="0"/>
        <pt x="1799" y="1241" on="0"/>
        <pt x="1748" y="1236" on="1"/>
        <pt x="1743" y="1235" on="0"/>
        <pt x="1738" y="1235" on="1"/>
        <pt x="1688" y="1235" on="0"/>
        <pt x="1603" y="1288" on="1"/>
        <pt x="1577" y="1303" on="0"/>
        <pt x="1555" y="1303" on="1"/>
        <pt x="1492" y="1303" on="0"/>
        <pt x="1446" y="1188" on="1"/>
        <pt x="1720" y="1100" on="0"/>
        <pt x="1720" y="1020" on="1"/>
        <pt x="1720" y="240" on="1"/>
        <pt x="1780" y="120" on="0"/>
        <pt x="2010" y="120" on="1"/>
        <pt x="2240" y="120" on="0"/>
        <pt x="2300" y="240" on="1"/>
      </contour>
      <contour>
        <pt x="380" y="150" on="1"/>
        <pt x="440" y="150" on="0"/>
        <pt x="440" y="300" on="1"/>
        <pt x="440" y="400" on="0"/>
        <pt x="380" y="400" on="1"/>
      </contour>
      <contour>
        <pt x="200" y="963" on="1"/>
        <pt x="200" y="1069" on="0"/>
        <pt x="0" y="1131" on="1"/>
        <pt x="20" y="1232" on="0"/>
        <pt x="171" y="1500" on="0"/>
        <pt x="225" y="1500" on="1"/>
        <pt x="269" y="1500" on="0"/>
        <pt x="340" y="1457" on="1"/>
        <pt x="410" y="1414" on="1"/>
        <pt x="441" y="1395" on="0"/>
        <pt x="483" y="1395" on="1"/>
        <pt x="505" y="1395" on="0"/>
        <pt x="530" y="1400" on="1"/>
        <pt x="520" y="1330" on="0"/>
        <pt x="459" y="1241" on="0"/>
        <pt x="408" y="1236" on="1"/>
        <pt x="403" y="1235" on="0"/>
        <pt x="398" y="1235" on="1"/>
        <pt x="348" y="1235" on="0"/>
        <pt x="263" y="1288" on="1"/>
        <pt x="237" y="1303" on="0"/>
        <pt x="215" y="1303" on="1"/>
        <pt x="152" y="1303" on="0"/>
        <pt x="106" y="1188" on="1"/>
        <pt x="380" y="1100" on="0"/>
        <pt x="380" y="1020" on="1"/>
        <pt x="380" y="500" on="1"/>
        <pt x="540" y="500" on="0"/>
        <pt x="540" y="300" on="1"/>
        <pt x="540" y="200" on="0"/>
        <pt x="435" y="0" on="0"/>
        <pt x="330" y="0" on="1"/>
        <pt x="200" y="0" on="0"/>
        <pt x="200" y="100" on="1"/>
      </contour>
    </TTGlyph>
    <TTGlyph name="glyph258" xMin="0" yMin="0" xMax="1780" yMax="1700">
      <contour>
        <pt x="1550" y="1320" on="1"/>
        <pt x="1550" y="1380" on="0"/>
        <pt x="1500" y="1380" on="1"/>
        <pt x="1430" y="1380" on="0"/>
        <pt x="1430" y="1320" on="1"/>
        <pt x="1430" y="1286" on="0"/>
        <pt x="1513" y="1231" on="1"/>
        <pt x="1550" y="1273" on="0"/>
      </contour>
      <contour>
        <pt x="780" y="791" on="1"/>
        <pt x="730" y="791" on="0"/>
        <pt x="730" y="710" on="1"/>
        <pt x="730" y="650" on="0"/>
        <pt x="780" y="650" on="1"/>
      </contour>
      <contour>
        <pt x="780" y="550" on="1"/>
        <pt x="630" y="550" on="0"/>
        <pt x="630" y="710" on="1"/>
        <pt x="630" y="900" on="0"/>
        <pt x="780" y="900" on="1"/>
        <pt x="960" y="900" on="0"/>
        <pt x="960" y="800" on="1"/>
        <pt x="960" y="159" on="1"/>
        <pt x="1196" y="395" on="1"/>
        <pt x="1238" y="438" on="0"/>
        <pt x="1281" y="438" on="1"/>
        <pt x="1323" y="438" on="0"/>
        <pt x="1366" y="395" on="1"/>
        <pt x="1600" y="160" on="1"/>
        <pt x="1600" y="900" on="1"/>
        <pt x="1600" y="1008" on="0"/>
        <pt x="1544" y="1065" on="0"/>
        <pt x="1508" y="1089" on="1"/>
        <pt x="1366" y="1000" on="0"/>
        <pt x="1190" y="1000" on="1"/>
        <pt x="952" y="1000" on="0"/>
        <pt x="869" y="1069" on="1"/>
        <pt x="780" y="1144" on="0"/>
        <pt x="780" y="1260" on="1"/>
        <pt x="780" y="1325" on="0"/>
        <pt x="830" y="1460" on="0"/>
        <pt x="830" y="1530" on="1"/>
        <pt x="830" y="1600" on="0"/>
        <pt x="730" y="1600" on="1"/>
        <pt x="730" y="1700" on="0"/>
        <pt x="830" y="1700" on="1"/>
        <pt x="1010" y="1700" on="0"/>
        <pt x="1010" y="1530" on="1"/>
        <pt x="1010" y="1445" on="0"/>
        <pt x="960" y="1330" on="0"/>
        <pt x="960" y="1260" on="1"/>
        <pt x="960" y="1201" on="0"/>
        <pt x="1070" y="1120" on="0"/>
        <pt x="1190" y="1120" on="1"/>
        <pt x="1314" y="1120" on="0"/>
        <pt x="1415" y="1156" on="1"/>
        <pt x="1310" y="1244" on="0"/>
        <pt x="1310" y="1320" on="1"/>
        <pt x="1310" y="1500" on="0"/>
        <pt x="1500" y="1500" on="1"/>
        <pt x="1680" y="1500" on="0"/>
        <pt x="1680" y="1320" on="1"/>
        <pt x="1680" y="1243" on="0"/>
        <pt x="1612" y="1172" on="1"/>
        <pt x="1633" y="1161" on="0"/>
        <pt x="1655" y="1150" on="1"/>
        <pt x="1780" y="1083" on="0"/>
        <pt x="1780" y="900" on="1"/>
        <pt x="1780" y="100" on="1"/>
        <pt x="1780" y="0" on="0"/>
        <pt x="1680" y="0" on="1"/>
        <pt x="1590" y="0" on="0"/>
        <pt x="1513" y="77" on="1"/>
        <pt x="1280" y="310" on="1"/>
        <pt x="1048" y="77" on="1"/>
        <pt x="971" y="0" on="0"/>
        <pt x="880" y="0" on="1"/>
        <pt x="780" y="0" on="0"/>
        <pt x="780" y="100" on="1"/>
      </contour>
      <contour>
        <pt x="380" y="150" on="1"/>
        <pt x="440" y="150" on="0"/>
        <pt x="440" y="300" on="1"/>
        <pt x="440" y="400" on="0"/>
        <pt x="380" y="400" on="1"/>
      </contour>
      <contour>
        <pt x="200" y="963" on="1"/>
        <pt x="200" y="1069" on="0"/>
        <pt x="0" y="1131" on="1"/>
        <pt x="20" y="1232" on="0"/>
        <pt x="171" y="1500" on="0"/>
        <pt x="225" y="1500" on="1"/>
        <pt x="269" y="1500" on="0"/>
        <pt x="340" y="1457" on="1"/>
        <pt x="410" y="1414" on="1"/>
        <pt x="441" y="1395" on="0"/>
        <pt x="483" y="1395" on="1"/>
        <pt x="505" y="1395" on="0"/>
        <pt x="530" y="1400" on="1"/>
        <pt x="520" y="1330" on="0"/>
        <pt x="459" y="1241" on="0"/>
        <pt x="408" y="1236" on="1"/>
        <pt x="403" y="1235" on="0"/>
        <pt x="398" y="1235" on="1"/>
        <pt x="348" y="1235" on="0"/>
        <pt x="263" y="1288" on="1"/>
        <pt x="237" y="1303" on="0"/>
        <pt x="215" y="1303" on="1"/>
        <pt x="152" y="1303" on="0"/>
        <pt x="106" y="1188" on="1"/>
        <pt x="380" y="1100" on="0"/>
        <pt x="380" y="1020" on="1"/>
        <pt x="380" y="500" on="1"/>
        <pt x="540" y="500" on="0"/>
        <pt x="540" y="300" on="1"/>
        <pt x="540" y="200" on="0"/>
        <pt x="435" y="0" on="0"/>
        <pt x="330" y="0" on="1"/>
        <pt x="200" y="0" on="0"/>
        <pt x="200" y="100" on="1"/>
      </contour>
    </TTGlyph>
</ttFont>
